%TF.GenerationSoftware,KiCad,Pcbnew,10.0.2*%
%TF.CreationDate,2026-05-19T12:57:41+02:00*%
%TF.ProjectId,PCB,5043422e-6b69-4636-9164-5f7063625858,rev?*%
%TF.SameCoordinates,Original*%
%TF.FileFunction,Copper,L1,Top*%
%TF.FilePolarity,Positive*%
%FSLAX46Y46*%
G04 Gerber Fmt 4.6, Leading zero omitted, Abs format (unit mm)*
G04 Created by KiCad (PCBNEW 10.0.2) date 2026-05-19 12:57:41*
%MOMM*%
%LPD*%
G01*
G04 APERTURE LIST*
G04 Aperture macros list*
%AMRoundRect*
0 Rectangle with rounded corners*
0 $1 Rounding radius*
0 $2 $3 $4 $5 $6 $7 $8 $9 X,Y pos of 4 corners*
0 Add a 4 corners polygon primitive as box body*
4,1,4,$2,$3,$4,$5,$6,$7,$8,$9,$2,$3,0*
0 Add four circle primitives for the rounded corners*
1,1,$1+$1,$2,$3*
1,1,$1+$1,$4,$5*
1,1,$1+$1,$6,$7*
1,1,$1+$1,$8,$9*
0 Add four rect primitives between the rounded corners*
20,1,$1+$1,$2,$3,$4,$5,0*
20,1,$1+$1,$4,$5,$6,$7,0*
20,1,$1+$1,$6,$7,$8,$9,0*
20,1,$1+$1,$8,$9,$2,$3,0*%
G04 Aperture macros list end*
%TA.AperFunction,ComponentPad*%
%ADD10R,1.700000X1.700000*%
%TD*%
%TA.AperFunction,ComponentPad*%
%ADD11C,1.700000*%
%TD*%
%TA.AperFunction,SMDPad,CuDef*%
%ADD12RoundRect,0.250000X-0.625000X0.400000X-0.625000X-0.400000X0.625000X-0.400000X0.625000X0.400000X0*%
%TD*%
%TA.AperFunction,ComponentPad*%
%ADD13RoundRect,0.760000X-1.140000X-1.140000X1.140000X-1.140000X1.140000X1.140000X-1.140000X1.140000X0*%
%TD*%
%TA.AperFunction,ComponentPad*%
%ADD14C,4.000000*%
%TD*%
%TA.AperFunction,ComponentPad*%
%ADD15R,1.905000X2.000000*%
%TD*%
%TA.AperFunction,ComponentPad*%
%ADD16O,1.905000X2.000000*%
%TD*%
%TA.AperFunction,SMDPad,CuDef*%
%ADD17R,1.000000X1.500000*%
%TD*%
%TA.AperFunction,HeatsinkPad*%
%ADD18C,0.500000*%
%TD*%
%TA.AperFunction,HeatsinkPad*%
%ADD19R,3.000000X2.290000*%
%TD*%
%TA.AperFunction,SMDPad,CuDef*%
%ADD20RoundRect,0.150000X-0.150000X0.825000X-0.150000X-0.825000X0.150000X-0.825000X0.150000X0.825000X0*%
%TD*%
%TA.AperFunction,ComponentPad*%
%ADD21O,1.000000X1.600000*%
%TD*%
%TA.AperFunction,ComponentPad*%
%ADD22O,1.000000X2.100000*%
%TD*%
%TA.AperFunction,SMDPad,CuDef*%
%ADD23RoundRect,0.150000X0.150000X0.575000X-0.150000X0.575000X-0.150000X-0.575000X0.150000X-0.575000X0*%
%TD*%
%TA.AperFunction,SMDPad,CuDef*%
%ADD24RoundRect,0.075000X0.075000X0.650000X-0.075000X0.650000X-0.075000X-0.650000X0.075000X-0.650000X0*%
%TD*%
%TA.AperFunction,SMDPad,CuDef*%
%ADD25R,0.900000X1.500000*%
%TD*%
%TA.AperFunction,SMDPad,CuDef*%
%ADD26R,1.500000X0.900000*%
%TD*%
%TA.AperFunction,HeatsinkPad*%
%ADD27C,0.600000*%
%TD*%
%TA.AperFunction,HeatsinkPad*%
%ADD28R,3.900000X3.900000*%
%TD*%
%TA.AperFunction,SMDPad,CuDef*%
%ADD29RoundRect,0.250000X1.050000X0.550000X-1.050000X0.550000X-1.050000X-0.550000X1.050000X-0.550000X0*%
%TD*%
%TA.AperFunction,ComponentPad*%
%ADD30C,1.508000*%
%TD*%
%TA.AperFunction,ComponentPad*%
%ADD31R,1.508000X1.508000*%
%TD*%
%TA.AperFunction,SMDPad,CuDef*%
%ADD32RoundRect,0.250000X0.475000X-0.337500X0.475000X0.337500X-0.475000X0.337500X-0.475000X-0.337500X0*%
%TD*%
%TA.AperFunction,SMDPad,CuDef*%
%ADD33RoundRect,0.250000X-1.050000X-0.550000X1.050000X-0.550000X1.050000X0.550000X-1.050000X0.550000X0*%
%TD*%
%TA.AperFunction,SMDPad,CuDef*%
%ADD34RoundRect,0.250000X0.550000X-1.050000X0.550000X1.050000X-0.550000X1.050000X-0.550000X-1.050000X0*%
%TD*%
%TA.AperFunction,SMDPad,CuDef*%
%ADD35RoundRect,0.250000X-0.337500X-0.475000X0.337500X-0.475000X0.337500X0.475000X-0.337500X0.475000X0*%
%TD*%
%TA.AperFunction,SMDPad,CuDef*%
%ADD36RoundRect,0.250000X0.337500X0.475000X-0.337500X0.475000X-0.337500X-0.475000X0.337500X-0.475000X0*%
%TD*%
%TA.AperFunction,ComponentPad*%
%ADD37C,6.400000*%
%TD*%
%TA.AperFunction,SMDPad,CuDef*%
%ADD38RoundRect,0.090000X-0.660000X-0.360000X0.660000X-0.360000X0.660000X0.360000X-0.660000X0.360000X0*%
%TD*%
%TA.AperFunction,SMDPad,CuDef*%
%ADD39R,1.500000X1.000000*%
%TD*%
%TA.AperFunction,SMDPad,CuDef*%
%ADD40RoundRect,0.150000X-0.875000X-0.150000X0.875000X-0.150000X0.875000X0.150000X-0.875000X0.150000X0*%
%TD*%
%TA.AperFunction,SMDPad,CuDef*%
%ADD41RoundRect,0.250000X-0.450000X0.325000X-0.450000X-0.325000X0.450000X-0.325000X0.450000X0.325000X0*%
%TD*%
%TA.AperFunction,SMDPad,CuDef*%
%ADD42RoundRect,0.250000X-0.350000X-0.450000X0.350000X-0.450000X0.350000X0.450000X-0.350000X0.450000X0*%
%TD*%
%TA.AperFunction,SMDPad,CuDef*%
%ADD43RoundRect,0.200000X0.200000X0.800000X-0.200000X0.800000X-0.200000X-0.800000X0.200000X-0.800000X0*%
%TD*%
%TA.AperFunction,SMDPad,CuDef*%
%ADD44RoundRect,0.150000X-0.150000X0.512500X-0.150000X-0.512500X0.150000X-0.512500X0.150000X0.512500X0*%
%TD*%
%TA.AperFunction,SMDPad,CuDef*%
%ADD45RoundRect,0.375000X-0.375000X0.625000X-0.375000X-0.625000X0.375000X-0.625000X0.375000X0.625000X0*%
%TD*%
%TA.AperFunction,SMDPad,CuDef*%
%ADD46RoundRect,0.500000X-1.400000X0.500000X-1.400000X-0.500000X1.400000X-0.500000X1.400000X0.500000X0*%
%TD*%
G04 APERTURE END LIST*
D10*
%TO.P,J9,1,Pin_1_1*%
%TO.N,BAU+*%
X68890000Y-90802500D03*
D11*
%TO.P,J9,2,Pin_2_2*%
%TO.N,GND*%
X71430000Y-90802500D03*
%TD*%
D12*
%TO.P,R13,1*%
%TO.N,VCC_12V*%
X65465000Y-89352500D03*
%TO.P,R13,2*%
%TO.N,BAU+*%
X65465000Y-92452500D03*
%TD*%
D13*
%TO.P,J6,1,Pin_1_1*%
%TO.N,GND*%
X53225000Y-84452500D03*
D14*
%TO.P,J6,2,Pin_2_2*%
%TO.N,VCC_12V_IN*%
X58225000Y-84452500D03*
%TD*%
D15*
%TO.P,Q1,1,G_1*%
%TO.N,BAU+*%
X70605000Y-84352500D03*
D16*
%TO.P,Q1,2,D_2*%
%TO.N,VCC_12V*%
X68065000Y-84352500D03*
%TO.P,Q1,3,S_3*%
%TO.N,VCC_12V_IN*%
X65525000Y-84352500D03*
%TD*%
D14*
%TO.P,J10,2,Pin_2_2*%
%TO.N,VCC_12V*%
X58425000Y-91252500D03*
D13*
%TO.P,J10,1,Pin_1_1*%
%TO.N,GND*%
X53425000Y-91252500D03*
%TD*%
D17*
%TO.P,VL1,1,Pin_1_1*%
%TO.N,SCL2*%
X107920000Y-127715000D03*
%TO.P,VL1,2,Pin_2_2*%
%TO.N,Net-(J11-Pin_3)*%
X109220000Y-127715000D03*
%TO.P,VL1,3,Pin_3_3*%
%TO.N,SCL1*%
X110520000Y-127715000D03*
%TD*%
D10*
%TO.P,VL0,1,Pin_1_1*%
%TO.N,XSHUT0*%
X104100000Y-124400000D03*
D11*
%TO.P,VL0,2,Pin_2_2*%
%TO.N,Net-(J11-Pin_2)*%
X104100000Y-126940000D03*
%TO.P,VL0,3,Pin_3_3*%
%TO.N,Net-(J11-Pin_3)*%
X104100000Y-129480000D03*
%TO.P,VL0,4,Pin_4_4*%
%TO.N,GND*%
X104100000Y-132020000D03*
%TO.P,VL0,5,Pin_5_5*%
%TO.N,VCC_5V*%
X104100000Y-134560000D03*
%TD*%
D17*
%TO.P,J24,1,Pin_1_1*%
%TO.N,SDA1*%
X107920000Y-123880000D03*
%TO.P,J24,2,Pin_2_2*%
%TO.N,Net-(J11-Pin_2)*%
X109220000Y-123880000D03*
%TO.P,J24,3,Pin_3_3*%
%TO.N,SDA2*%
X110520000Y-123880000D03*
%TD*%
D10*
%TO.P,J11,1,Pin_1_1*%
%TO.N,XSHUT1*%
X99510000Y-124400000D03*
D11*
%TO.P,J11,2,Pin_2_2*%
%TO.N,Net-(J11-Pin_2)*%
X99510000Y-126940000D03*
%TO.P,J11,3,Pin_3_3*%
%TO.N,Net-(J11-Pin_3)*%
X99510000Y-129480000D03*
%TO.P,J11,4,Pin_4_4*%
%TO.N,GND*%
X99510000Y-132020000D03*
%TO.P,J11,5,Pin_5_5*%
%TO.N,VCC_5V*%
X99510000Y-134560000D03*
%TD*%
D17*
%TO.P,VL2,1,Pin_1_1*%
%TO.N,SCL2*%
X86120000Y-134525000D03*
%TO.P,VL2,2,Pin_2_2*%
%TO.N,Net-(J16-Pin_3)*%
X87420000Y-134525000D03*
%TO.P,VL2,3,Pin_3_3*%
%TO.N,SCL1*%
X88720000Y-134525000D03*
%TD*%
%TO.P,J25,1,Pin_1_1*%
%TO.N,SDA1*%
X86120000Y-130690000D03*
%TO.P,J25,2,Pin_2_2*%
%TO.N,Net-(J16-Pin_2)*%
X87420000Y-130690000D03*
%TO.P,J25,3,Pin_3_3*%
%TO.N,SDA2*%
X88720000Y-130690000D03*
%TD*%
D10*
%TO.P,J21,1,Pin_1_1*%
%TO.N,XSHUT3*%
X82300000Y-123960000D03*
D11*
%TO.P,J21,2,Pin_2_2*%
%TO.N,Net-(J16-Pin_2)*%
X82300000Y-126500000D03*
%TO.P,J21,3,Pin_3_3*%
%TO.N,Net-(J16-Pin_3)*%
X82300000Y-129040000D03*
%TO.P,J21,4,Pin_4_4*%
%TO.N,GND*%
X82300000Y-131580000D03*
%TO.P,J21,5,Pin_5_5*%
%TO.N,VCC_5V*%
X82300000Y-134120000D03*
%TD*%
D10*
%TO.P,J16,1,Pin_1_1*%
%TO.N,XSHUT2*%
X77710000Y-123960000D03*
D11*
%TO.P,J16,2,Pin_2_2*%
%TO.N,Net-(J16-Pin_2)*%
X77710000Y-126500000D03*
%TO.P,J16,3,Pin_3_3*%
%TO.N,Net-(J16-Pin_3)*%
X77710000Y-129040000D03*
%TO.P,J16,4,Pin_4_4*%
%TO.N,GND*%
X77710000Y-131580000D03*
%TO.P,J16,5,Pin_5_5*%
%TO.N,VCC_5V*%
X77710000Y-134120000D03*
%TD*%
D10*
%TO.P,J8,1,Pin_1_1*%
%TO.N,VCC_5V_GLOBAL*%
X72550000Y-146590000D03*
D11*
%TO.P,J8,2,Pin_2_2*%
%TO.N,NEOPIXEL+*%
X72550000Y-144050000D03*
%TO.P,J8,3,Pin_3_3*%
%TO.N,GND*%
X72550000Y-141510000D03*
%TD*%
%TO.P,MPU1,4,Pin_4_4*%
%TO.N,VCC_5V_GLOBAL*%
X57300000Y-135210000D03*
%TO.P,MPU1,3,Pin_3_3*%
%TO.N,GND*%
X57300000Y-132670000D03*
%TO.P,MPU1,2,Pin_2_2*%
%TO.N,Net-(J19-Pin_2)*%
X57300000Y-130130000D03*
D10*
%TO.P,MPU1,1,Pin_1_1*%
%TO.N,Net-(J20-Pin_2)*%
X57300000Y-127590000D03*
%TD*%
D18*
%TO.P,AO4407A1,9,D_9*%
%TO.N,VCC_5V_GLOBAL*%
X84325000Y-32872500D03*
X85325000Y-32872500D03*
X86325000Y-32872500D03*
D19*
X85325000Y-32222500D03*
D18*
X84325000Y-31572500D03*
X85325000Y-31572500D03*
X86325000Y-31572500D03*
D20*
%TO.P,AO4407A1,8,D_8*%
X87230000Y-34697500D03*
%TO.P,AO4407A1,7,D_7*%
X85960000Y-34697500D03*
%TO.P,AO4407A1,6,D_6*%
X84690000Y-34697500D03*
%TO.P,AO4407A1,5,D_5*%
X83420000Y-34697500D03*
%TO.P,AO4407A1,4,G_4*%
%TO.N,Net-(AO4407A1-G)*%
X83420000Y-29747500D03*
%TO.P,AO4407A1,3,S_3*%
%TO.N,VCC_5V_USB*%
X84690000Y-29747500D03*
%TO.P,AO4407A1,2,S_2*%
X85960000Y-29747500D03*
%TO.P,AO4407A1,1,S_1*%
X87230000Y-29747500D03*
%TD*%
D18*
%TO.P,AO4407A2,9,D_9*%
%TO.N,VCC_5V_GLOBAL*%
X77625000Y-32872500D03*
X78625000Y-32872500D03*
X79625000Y-32872500D03*
D19*
X78625000Y-32222500D03*
D18*
X77625000Y-31572500D03*
X78625000Y-31572500D03*
X79625000Y-31572500D03*
D20*
%TO.P,AO4407A2,8,D_8*%
X80530000Y-34697500D03*
%TO.P,AO4407A2,7,D_7*%
X79260000Y-34697500D03*
%TO.P,AO4407A2,6,D_6*%
X77990000Y-34697500D03*
%TO.P,AO4407A2,5,D_5*%
X76720000Y-34697500D03*
%TO.P,AO4407A2,4,G_4*%
%TO.N,Net-(AO4407A2-G)*%
X76720000Y-29747500D03*
%TO.P,AO4407A2,3,S_3*%
%TO.N,VCC_5V_BUCK*%
X77990000Y-29747500D03*
%TO.P,AO4407A2,2,S_2*%
X79260000Y-29747500D03*
%TO.P,AO4407A2,1,S_1*%
X80530000Y-29747500D03*
%TD*%
D21*
%TO.P,J1,SH*%
%TO.N,N/C*%
X94805000Y-29522500D03*
D22*
X94805000Y-33702500D03*
D21*
X103445000Y-29522500D03*
D22*
X103445000Y-33702500D03*
D23*
%TO.P,J1,B12,GND_B12*%
%TO.N,GND*%
X102375000Y-34617500D03*
%TO.P,J1,B9,VBUS_B9*%
%TO.N,VCC_5V_USB*%
X101575000Y-34617500D03*
D24*
%TO.P,J1,B8,SBU2_B8*%
%TO.N,unconnected-(J1-SBU2-PadB8)*%
X100875000Y-34617500D03*
%TO.P,J1,B7,D-_B7*%
%TO.N,USB_N*%
X99875000Y-34617500D03*
%TO.P,J1,B6,D+_B6*%
%TO.N,USB_P*%
X98375000Y-34617500D03*
%TO.P,J1,B5,CC2_B5*%
%TO.N,Net-(J1-CC2)*%
X97375000Y-34617500D03*
D23*
%TO.P,J1,B4,VBUS_B4*%
%TO.N,VCC_5V_USB*%
X96675000Y-34617500D03*
%TO.P,J1,B1,GND_B1*%
%TO.N,GND*%
X95875000Y-34617500D03*
%TO.P,J1,A12,GND_A12*%
X95875000Y-34617500D03*
%TO.P,J1,A9,VBUS_A9*%
%TO.N,VCC_5V_USB*%
X96675000Y-34617500D03*
D24*
%TO.P,J1,A8,SBU1_A8*%
%TO.N,unconnected-(J1-SBU1-PadA8)*%
X97875000Y-34617500D03*
%TO.P,J1,A7,D-_A7*%
%TO.N,USB_N*%
X98875000Y-34617500D03*
%TO.P,J1,A6,D+_A6*%
%TO.N,USB_P*%
X99375000Y-34617500D03*
%TO.P,J1,A5,CC1_A5*%
%TO.N,Net-(J1-CC1)*%
X100375000Y-34617500D03*
D23*
%TO.P,J1,A4,VBUS_A4*%
%TO.N,VCC_5V_USB*%
X101575000Y-34617500D03*
%TO.P,J1,A1,GND_A1*%
%TO.N,GND*%
X102375000Y-34617500D03*
%TD*%
D25*
%TO.P,U6,1,GND_1*%
%TO.N,GND*%
X110385000Y-49267500D03*
%TO.P,U6,2,3V3_2*%
%TO.N,3V3*%
X109115000Y-49267500D03*
%TO.P,U6,3,EN_3*%
%TO.N,ESP32_EN*%
X107845000Y-49267500D03*
%TO.P,U6,4,IO4_4*%
%TO.N,NEOPIXEL*%
X106575000Y-49267500D03*
%TO.P,U6,5,IO5_5*%
%TO.N,M3_PWM*%
X105305000Y-49267500D03*
%TO.P,U6,6,IO6_6*%
%TO.N,M4_PWM*%
X104035000Y-49267500D03*
%TO.P,U6,7,IO7_7*%
%TO.N,M3_IN1*%
X102765000Y-49267500D03*
%TO.P,U6,8,IO15_8*%
%TO.N,M3_IN2*%
X101495000Y-49267500D03*
%TO.P,U6,9,IO16_9*%
%TO.N,M4_IN1*%
X100225000Y-49267500D03*
%TO.P,U6,10,IO17_10*%
%TO.N,UART1+*%
X98955000Y-49267500D03*
%TO.P,U6,11,IO18_11*%
%TO.N,UART1-*%
X97685000Y-49267500D03*
%TO.P,U6,12,IO8_12*%
%TO.N,M4_IN2*%
X96415000Y-49267500D03*
%TO.P,U6,13,IO19_13*%
%TO.N,USB_N*%
X95145000Y-49267500D03*
%TO.P,U6,14,IO20_14*%
%TO.N,USB_P*%
X93875000Y-49267500D03*
D26*
%TO.P,U6,15,IO3_15*%
%TO.N,unconnected-(U6-IO3-Pad15)*%
X92625000Y-51032501D03*
%TO.P,U6,16,IO46_16*%
%TO.N,unconnected-(U6-IO46-Pad16)*%
X92625000Y-52302500D03*
%TO.P,U6,17,IO9_17*%
%TO.N,M1_IN1*%
X92625000Y-53572500D03*
%TO.P,U6,18,IO10_18*%
%TO.N,M1_IN2*%
X92625001Y-54842500D03*
%TO.P,U6,19,IO11_19*%
%TO.N,M2_IN1*%
X92625000Y-56112500D03*
%TO.P,U6,20,IO12_20*%
%TO.N,M2_IN2*%
X92625000Y-57382500D03*
%TO.P,U6,21,IO13_21*%
%TO.N,M1_PWM*%
X92625000Y-58652500D03*
%TO.P,U6,22,IO14_22*%
%TO.N,M2_PWM*%
X92625000Y-59922500D03*
%TO.P,U6,23,IO21_23*%
%TO.N,unconnected-(U6-IO21-Pad23)*%
X92625001Y-61192500D03*
%TO.P,U6,24,IO47_24*%
%TO.N,unconnected-(U6-IO47-Pad24)*%
X92625000Y-62462500D03*
%TO.P,U6,25,IO48_25*%
%TO.N,unconnected-(U6-IO48-Pad25)*%
X92625000Y-63732500D03*
%TO.P,U6,26,IO45_26*%
%TO.N,unconnected-(U6-IO45-Pad26)*%
X92625000Y-65002499D03*
D25*
%TO.P,U6,27,IO0_27*%
%TO.N,BOOT*%
X93875000Y-66767500D03*
%TO.P,U6,28,IO35_28*%
%TO.N,SCLK*%
X95145000Y-66767500D03*
%TO.P,U6,29,IO36_29*%
%TO.N,MOSI*%
X96415000Y-66767500D03*
%TO.P,U6,30,IO37_30*%
%TO.N,RST*%
X97685000Y-66767500D03*
%TO.P,U6,31,IO38_31*%
%TO.N,DC*%
X98955000Y-66767500D03*
%TO.P,U6,32,IO39_32*%
%TO.N,CS*%
X100225000Y-66767500D03*
%TO.P,U6,33,IO40_33*%
%TO.N,BLK*%
X101495000Y-66767500D03*
%TO.P,U6,34,IO41_34*%
%TO.N,SDA2*%
X102765000Y-66767500D03*
%TO.P,U6,35,IO42_35*%
%TO.N,SCL2*%
X104035000Y-66767500D03*
%TO.P,U6,36,RXD0_36*%
%TO.N,UART0-*%
X105305000Y-66767500D03*
%TO.P,U6,37,TXD0_37*%
%TO.N,UART0+*%
X106575000Y-66767500D03*
%TO.P,U6,38,IO2_38*%
%TO.N,SCL1*%
X107845000Y-66767500D03*
%TO.P,U6,39,IO1_39*%
%TO.N,SDA1*%
X109115000Y-66767500D03*
%TO.P,U6,40,GND_40*%
%TO.N,GND*%
X110385000Y-66767500D03*
D27*
%TO.P,U6,41,GND_41*%
X103365000Y-55117500D03*
X101965000Y-55117500D03*
X104065000Y-55817500D03*
X102665000Y-55817500D03*
X101265000Y-55817500D03*
X103365000Y-56517500D03*
D28*
X102665000Y-56517500D03*
D27*
X101965000Y-56517500D03*
X104065000Y-57217500D03*
X102665000Y-57217500D03*
X101265000Y-57217500D03*
X103365000Y-57917500D03*
X101965000Y-57917500D03*
%TD*%
D29*
%TO.P,C15,2*%
%TO.N,GND*%
X73250000Y-73790000D03*
%TO.P,C15,1*%
%TO.N,VCC_12V*%
X76850000Y-73790000D03*
%TD*%
D30*
%TO.P,U8,16,~{EN}_16*%
%TO.N,M1_IN1*%
X81400000Y-77080000D03*
%TO.P,U8,15,MS1_15*%
%TO.N,Net-(JP3-B)*%
X81400000Y-74540000D03*
%TO.P,U8,14,MS2_14*%
%TO.N,Net-(JP4-B)*%
X81400000Y-72000000D03*
%TO.P,U8,13,SPRD_13*%
%TO.N,unconnected-(U8-SPRD-Pad13)*%
X81400000Y-69460000D03*
%TO.P,U8,12,UART_12*%
%TO.N,unconnected-(U8-UART-Pad12)*%
X81400000Y-66920000D03*
%TO.P,U8,11,PDN_11*%
%TO.N,unconnected-(U8-PDN-Pad11)*%
X81400000Y-64380000D03*
%TO.P,U8,10,STEP_10*%
%TO.N,unconnected-(U8-STEP-Pad10)*%
X81400000Y-61840000D03*
%TO.P,U8,9,DIR_9*%
%TO.N,unconnected-(U8-DIR-Pad9)*%
X81400000Y-59300000D03*
%TO.P,U8,8,VM_8*%
%TO.N,VCC_12V*%
X68700000Y-77080000D03*
%TO.P,U8,7,GND_7*%
%TO.N,GND*%
X68700000Y-74540000D03*
%TO.P,U8,6,M2B_6*%
%TO.N,MOTORB4*%
X68700000Y-72000000D03*
%TO.P,U8,5,M2A_5*%
%TO.N,MOTORB3*%
X68700000Y-69460000D03*
%TO.P,U8,4,M1A_4*%
%TO.N,MOTORB2*%
X68700000Y-66920000D03*
%TO.P,U8,3,M1B_3*%
%TO.N,MOTORB1*%
X68700000Y-64380000D03*
%TO.P,U8,2,VIO_2*%
%TO.N,3V3*%
X68700000Y-61840000D03*
D31*
%TO.P,U8,1,GND_1*%
%TO.N,GND*%
X68700000Y-59300000D03*
%TD*%
D32*
%TO.P,C3,2*%
%TO.N,GND*%
X73750000Y-67852500D03*
%TO.P,C3,1*%
%TO.N,VCC_5V_GLOBAL*%
X73750000Y-69927500D03*
%TD*%
%TO.P,C11,2*%
%TO.N,GND*%
X76250000Y-67752500D03*
%TO.P,C11,1*%
%TO.N,VCC_12V*%
X76250000Y-69827500D03*
%TD*%
D11*
%TO.P,J14,4,Pin_4_4*%
%TO.N,MOTORB4*%
X64925000Y-71982500D03*
%TO.P,J14,3,Pin_3_3*%
%TO.N,MOTORB3*%
X64925000Y-69442500D03*
%TO.P,J14,2,Pin_2_2*%
%TO.N,MOTORB2*%
X64925000Y-66902500D03*
D10*
%TO.P,J14,1,Pin_1_1*%
%TO.N,MOTORB1*%
X64925000Y-64362500D03*
%TD*%
D33*
%TO.P,C13,2*%
%TO.N,GND*%
X76850000Y-63590000D03*
%TO.P,C13,1*%
%TO.N,VCC_12V*%
X73250000Y-63590000D03*
%TD*%
D34*
%TO.P,C14,2*%
%TO.N,GND*%
X80762500Y-84752500D03*
%TO.P,C14,1*%
%TO.N,VCC_12V*%
X80762500Y-88352500D03*
%TD*%
D35*
%TO.P,C1,2*%
%TO.N,GND*%
X86800000Y-85952500D03*
%TO.P,C1,1*%
%TO.N,VCC_12V*%
X84725000Y-85952500D03*
%TD*%
D30*
%TO.P,U7,16,~{EN}_16*%
%TO.N,M1_IN1*%
X94552500Y-80202500D03*
%TO.P,U7,15,MS1_15*%
%TO.N,Net-(JP1-B)*%
X92012500Y-80202500D03*
%TO.P,U7,14,MS2_14*%
%TO.N,Net-(JP2-B)*%
X89472500Y-80202500D03*
%TO.P,U7,13,SPRD_13*%
%TO.N,unconnected-(U7-SPRD-Pad13)*%
X86932500Y-80202500D03*
%TO.P,U7,12,UART_12*%
%TO.N,unconnected-(U7-UART-Pad12)*%
X84392500Y-80202500D03*
%TO.P,U7,11,PDN_11*%
%TO.N,unconnected-(U7-PDN-Pad11)*%
X81852500Y-80202500D03*
%TO.P,U7,10,STEP_10*%
%TO.N,unconnected-(U7-STEP-Pad10)*%
X79312500Y-80202500D03*
%TO.P,U7,9,DIR_9*%
%TO.N,unconnected-(U7-DIR-Pad9)*%
X76772500Y-80202500D03*
%TO.P,U7,8,VM_8*%
%TO.N,VCC_12V*%
X94552500Y-92902500D03*
%TO.P,U7,7,GND_7*%
%TO.N,GND*%
X92012500Y-92902500D03*
%TO.P,U7,6,M2B_6*%
%TO.N,MOTORA4*%
X89472500Y-92902500D03*
%TO.P,U7,5,M2A_5*%
%TO.N,MOTORA3*%
X86932500Y-92902500D03*
%TO.P,U7,4,M1A_4*%
%TO.N,MOTORA2*%
X84392500Y-92902500D03*
%TO.P,U7,3,M1B_3*%
%TO.N,MOTORA1*%
X81852500Y-92902500D03*
%TO.P,U7,2,VIO_2*%
%TO.N,3V3*%
X79312500Y-92902500D03*
D31*
%TO.P,U7,1,GND_1*%
%TO.N,GND*%
X76772500Y-92902500D03*
%TD*%
D10*
%TO.P,J13,1,Pin_1_1*%
%TO.N,MOTORA1*%
X81962500Y-96502500D03*
D11*
%TO.P,J13,2,Pin_2_2*%
%TO.N,MOTORA2*%
X84502500Y-96502500D03*
%TO.P,J13,3,Pin_3_3*%
%TO.N,MOTORA3*%
X87042500Y-96502500D03*
%TO.P,J13,4,Pin_4_4*%
%TO.N,MOTORA4*%
X89582500Y-96502500D03*
%TD*%
D36*
%TO.P,C8,2*%
%TO.N,GND*%
X84725000Y-88252500D03*
%TO.P,C8,1*%
%TO.N,VCC_5V_GLOBAL*%
X86800000Y-88252500D03*
%TD*%
D34*
%TO.P,C6,1*%
%TO.N,VCC_12V*%
X90962500Y-88732500D03*
%TO.P,C6,2*%
%TO.N,GND*%
X90962500Y-85132500D03*
%TD*%
D31*
%TO.P,U9,1,GND_1*%
%TO.N,GND*%
X48375000Y-59262500D03*
D30*
%TO.P,U9,2,VIO_2*%
%TO.N,3V3*%
X48375000Y-61802500D03*
%TO.P,U9,3,M1B_3*%
%TO.N,MOTORC1*%
X48375000Y-64342500D03*
%TO.P,U9,4,M1A_4*%
%TO.N,MOTORC2*%
X48375000Y-66882500D03*
%TO.P,U9,5,M2A_5*%
%TO.N,MOTORC3*%
X48375000Y-69422500D03*
%TO.P,U9,6,M2B_6*%
%TO.N,MOTORC4*%
X48375000Y-71962500D03*
%TO.P,U9,7,GND_7*%
%TO.N,GND*%
X48375000Y-74502500D03*
%TO.P,U9,8,VM_8*%
%TO.N,VCC_12V*%
X48375000Y-77042500D03*
%TO.P,U9,9,DIR_9*%
%TO.N,unconnected-(U9-DIR-Pad9)*%
X61075000Y-59262500D03*
%TO.P,U9,10,STEP_10*%
%TO.N,unconnected-(U9-STEP-Pad10)*%
X61075000Y-61802500D03*
%TO.P,U9,11,PDN_11*%
%TO.N,unconnected-(U9-PDN-Pad11)*%
X61075000Y-64342500D03*
%TO.P,U9,12,UART_12*%
%TO.N,unconnected-(U9-UART-Pad12)*%
X61075000Y-66882500D03*
%TO.P,U9,13,SPRD_13*%
%TO.N,unconnected-(U9-SPRD-Pad13)*%
X61075000Y-69422500D03*
%TO.P,U9,14,MS2_14*%
%TO.N,Net-(JP6-B)*%
X61075000Y-71962500D03*
%TO.P,U9,15,MS1_15*%
%TO.N,Net-(JP5-B)*%
X61075000Y-74502500D03*
%TO.P,U9,16,~{EN}_16*%
%TO.N,M1_IN1*%
X61075000Y-77042500D03*
%TD*%
D11*
%TO.P,J22,4,Pin_4_4*%
%TO.N,MOTORC4*%
X44625000Y-72052500D03*
%TO.P,J22,3,Pin_3_3*%
%TO.N,MOTORC3*%
X44625000Y-69512500D03*
%TO.P,J22,2,Pin_2_2*%
%TO.N,MOTORC2*%
X44625000Y-66972500D03*
D10*
%TO.P,J22,1,Pin_1_1*%
%TO.N,MOTORC1*%
X44625000Y-64432500D03*
%TD*%
D37*
%TO.P,H2,1,1_1*%
%TO.N,GND*%
X45825000Y-94152500D03*
%TD*%
%TO.P,H3,1,1_1*%
%TO.N,GND*%
X108825000Y-31152500D03*
%TD*%
D38*
%TO.P,D6,4,DIN_4*%
%TO.N,Net-(D6-DIN)*%
X81300000Y-142200000D03*
%TO.P,D6,3,VSS_3*%
%TO.N,GND*%
X81300000Y-145500000D03*
%TO.P,D6,2,DOUT_2*%
%TO.N,NEOPIXEL+*%
X76400000Y-145500000D03*
%TO.P,D6,1,VDD_1*%
%TO.N,VCC_5V_GLOBAL*%
X76400000Y-142200000D03*
%TD*%
D11*
%TO.P,J5,2,Pin_2_2*%
%TO.N,GND*%
X83725000Y-52817500D03*
D10*
%TO.P,J5,1,Pin_1_1*%
%TO.N,TEAM_BTN*%
X83725000Y-50277500D03*
%TD*%
D11*
%TO.P,J7,2,Pin_2_2*%
%TO.N,GND*%
X86265000Y-52817500D03*
D10*
%TO.P,J7,1,Pin_1_1*%
%TO.N,LAUNCHPULL*%
X86265000Y-50277500D03*
%TD*%
D33*
%TO.P,C16,2*%
%TO.N,GND*%
X56525000Y-67302500D03*
%TO.P,C16,1*%
%TO.N,VCC_12V*%
X52925000Y-67302500D03*
%TD*%
D11*
%TO.P,J3,8,Pin_8_8*%
%TO.N,BLK*%
X97960000Y-114600000D03*
%TO.P,J3,7,Pin_7_7*%
%TO.N,CS*%
X95420000Y-114600000D03*
%TO.P,J3,6,Pin_6_6*%
%TO.N,DC*%
X92880000Y-114600000D03*
%TO.P,J3,5,Pin_5_5*%
%TO.N,RST*%
X90340000Y-114600000D03*
%TO.P,J3,4,Pin_4_4*%
%TO.N,MOSI*%
X87800000Y-114600000D03*
%TO.P,J3,3,Pin_3_3*%
%TO.N,SCLK*%
X85260000Y-114600000D03*
%TO.P,J3,2,Pin_2_2*%
%TO.N,3V3*%
X82720000Y-114600000D03*
D10*
%TO.P,J3,1,Pin_1_1*%
%TO.N,GND*%
X80180000Y-114600000D03*
%TD*%
D39*
%TO.P,J18,3,Pin_3_3*%
%TO.N,SCL2*%
X45775000Y-40782500D03*
%TO.P,J18,2,Pin_2_2*%
%TO.N,Net-(J18-Pin_2)*%
X45775000Y-42082500D03*
%TO.P,J18,1,Pin_1_1*%
%TO.N,SCL1*%
X45775000Y-43382500D03*
%TD*%
%TO.P,J17,3,Pin_3_3*%
%TO.N,SDA1*%
X45775000Y-48682500D03*
%TO.P,J17,2,Pin_2_2*%
%TO.N,Net-(J17-Pin_2)*%
X45775000Y-47382500D03*
%TO.P,J17,1,Pin_1_1*%
%TO.N,SDA2*%
X45775000Y-46082500D03*
%TD*%
D40*
%TO.P,U10,18,VDD_18*%
%TO.N,3V3*%
X60925000Y-40752500D03*
%TO.P,U10,17,GP7_17*%
%TO.N,EN2*%
X60925000Y-42022500D03*
%TO.P,U10,16,GP6_16*%
%TO.N,EN1*%
X60925000Y-43292500D03*
%TO.P,U10,15,GP5_15*%
%TO.N,XSHUT3*%
X60925000Y-44562500D03*
%TO.P,U10,14,GP4_14*%
%TO.N,XSHUT2*%
X60925000Y-45832500D03*
%TO.P,U10,13,GP3_13*%
%TO.N,XSHUT1*%
X60925000Y-47102500D03*
%TO.P,U10,12,GP2_12*%
%TO.N,XSHUT0*%
X60925000Y-48372500D03*
%TO.P,U10,11,GP1_11*%
%TO.N,LAUNCHPULL*%
X60925000Y-49642500D03*
%TO.P,U10,10,GP0_10*%
%TO.N,TEAM_BTN*%
X60925000Y-50912500D03*
%TO.P,U10,9,VSS_9*%
%TO.N,GND*%
X51625000Y-50912500D03*
%TO.P,U10,8,INT_8*%
%TO.N,unconnected-(U10-INT-Pad8)*%
X51625000Y-49642500D03*
%TO.P,U10,7,NC_7*%
%TO.N,unconnected-(U10-NC-Pad7)*%
X51625000Y-48372500D03*
%TO.P,U10,6,~{RESET}_6*%
%TO.N,3V3*%
X51625000Y-47102500D03*
%TO.P,U10,5,A0_5*%
%TO.N,GND*%
X51625000Y-45832500D03*
%TO.P,U10,4,A1_4*%
X51625000Y-44562500D03*
%TO.P,U10,3,A2_3*%
X51625000Y-43292500D03*
%TO.P,U10,2,SDA_2*%
%TO.N,Net-(J18-Pin_2)*%
X51625000Y-42022500D03*
%TO.P,U10,1,SCL_1*%
%TO.N,Net-(J17-Pin_2)*%
X51625000Y-40752500D03*
%TD*%
D36*
%TO.P,C17,2*%
%TO.N,GND*%
X44737500Y-51082500D03*
%TO.P,C17,1*%
%TO.N,3V3*%
X46812500Y-51082500D03*
%TD*%
D11*
%TO.P,J2,11,Pin_11_11*%
%TO.N,1V8_OUT*%
X44525000Y-37212500D03*
%TO.P,J2,10,Pin_10_10*%
%TO.N,GND*%
X47065000Y-37212500D03*
%TO.P,J2,9,Pin_9_9*%
%TO.N,GPIO4_C1_z*%
X49605000Y-37212500D03*
%TO.P,J2,8,Pin_8_8*%
%TO.N,GPIO4_C0_z*%
X52145000Y-37212500D03*
%TO.P,J2,7,Pin_7_7*%
%TO.N,GPIO0_A4_d*%
X54685000Y-37212500D03*
%TO.P,J2,6,Pin_6_6*%
%TO.N,GPIO1_C7_d*%
X57225000Y-37212500D03*
%TO.P,J2,5,Pin_5_5*%
%TO.N,GPIO1_C6_d*%
X59765000Y-37212500D03*
%TO.P,J2,4,Pin_4_4*%
%TO.N,GPIO1_D3_d*%
X62305000Y-37212500D03*
%TO.P,J2,3,Pin_3_3*%
%TO.N,GPIO1_D2_d*%
X64845000Y-37212500D03*
%TO.P,J2,2,Pin_2_2*%
%TO.N,GPIO1_D1_d*%
X67385000Y-37212500D03*
D10*
%TO.P,J2,1,Pin_1_1*%
%TO.N,GPIO1_D0_d*%
X69925000Y-37212500D03*
%TD*%
D11*
%TO.P,J4,11,Pin_11_11*%
%TO.N,GPIO1_C5_d*%
X69925000Y-54992500D03*
%TO.P,J4,10,Pin_10_10*%
%TO.N,GPIO1_C4_d*%
X67385000Y-54992500D03*
%TO.P,J4,9,Pin_9_9*%
%TO.N,GPIO1_C3_d*%
X64845000Y-54992500D03*
%TO.P,J4,8,Pin_8_8*%
%TO.N,GPIO1_C2_d*%
X62305000Y-54992500D03*
%TO.P,J4,7,Pin_7_7*%
%TO.N,GPIO1_C1_d*%
X59765000Y-54992500D03*
%TO.P,J4,6,Pin_6_6*%
%TO.N,GPIO1_C0_d*%
X57225000Y-54992500D03*
%TO.P,J4,5,Pin_5_5*%
%TO.N,GPIO1_B3_u*%
X54685000Y-54992500D03*
%TO.P,J4,4,Pin_4_4*%
%TO.N,GPIO1_B2_d*%
X52145000Y-54992500D03*
%TO.P,J4,3,Pin_3_3*%
%TO.N,3V3_OUT*%
X49605000Y-54992500D03*
%TO.P,J4,2,Pin_2_2*%
%TO.N,GND*%
X47065000Y-54992500D03*
D10*
%TO.P,J4,1,Pin_1_1*%
%TO.N,VCC_5V_GLOBAL*%
X44525000Y-54992500D03*
%TD*%
D37*
%TO.P,H4,1,1_1*%
%TO.N,GND*%
X45825000Y-31152500D03*
%TD*%
%TO.P,H1,1,1_1*%
%TO.N,GND*%
X108825000Y-94152500D03*
%TD*%
D10*
%TO.P,JP6,1,A_1*%
%TO.N,3V3*%
X70250000Y-116000000D03*
D11*
%TO.P,JP6,2,B_2*%
%TO.N,Net-(JP6-B)*%
X70250000Y-118540000D03*
%TD*%
D10*
%TO.P,JP5,1,A_1*%
%TO.N,3V3*%
X65660000Y-116000000D03*
D11*
%TO.P,JP5,2,B_2*%
%TO.N,Net-(JP5-B)*%
X65660000Y-118540000D03*
%TD*%
%TO.P,JP2,2,B_2*%
%TO.N,Net-(JP2-B)*%
X56160000Y-114440000D03*
D10*
%TO.P,JP2,1,A_1*%
%TO.N,3V3*%
X58700000Y-114440000D03*
%TD*%
D11*
%TO.P,JP1,2,B_2*%
%TO.N,Net-(JP1-B)*%
X56160000Y-111900000D03*
D10*
%TO.P,JP1,1,A_1*%
%TO.N,3V3*%
X58700000Y-111900000D03*
%TD*%
%TO.P,J12,1,Pin_1_1*%
%TO.N,VCC_5V_GLOBAL*%
X88025000Y-43727500D03*
D11*
%TO.P,J12,2,Pin_2_2*%
%TO.N,VCC_5V_USB*%
X88025000Y-41187500D03*
%TD*%
D10*
%TO.P,UART1,1,Pin_1_1*%
%TO.N,GND*%
X109325000Y-40252500D03*
D11*
%TO.P,UART1,2,Pin_2_2*%
%TO.N,UART1-*%
X106785000Y-40252500D03*
%TO.P,UART1,3,Pin_3_3*%
%TO.N,UART1+*%
X104245000Y-40252500D03*
%TO.P,UART1,4,Pin_4_4*%
%TO.N,VCC_5V*%
X101705000Y-40252500D03*
%TD*%
D41*
%TO.P,D1,1,K_1*%
%TO.N,Net-(D1-K)*%
X84725000Y-41477500D03*
%TO.P,D1,2,A_2*%
%TO.N,3V3*%
X84725000Y-43527500D03*
%TD*%
D42*
%TO.P,R7,1*%
%TO.N,3V3*%
X62500000Y-155200000D03*
%TO.P,R7,2*%
%TO.N,SCL2*%
X64500000Y-155200000D03*
%TD*%
D43*
%TO.P,SW1,1,1_1*%
%TO.N,GND*%
X111275000Y-70552500D03*
%TO.P,SW1,2,2_2*%
%TO.N,BOOT*%
X107075000Y-70552500D03*
%TD*%
D44*
%TO.P,U2,1,VIN_1*%
%TO.N,VCC_5V_USB*%
X91875000Y-31235000D03*
%TO.P,U2,2,GND_2*%
%TO.N,GND*%
X90925000Y-31235000D03*
%TO.P,U2,3,CTL_3*%
X89975000Y-31235000D03*
%TO.P,U2,4,STAT_4*%
%TO.N,unconnected-(U2-STAT-Pad4)*%
X89975000Y-33510000D03*
%TO.P,U2,5,GATE_5*%
%TO.N,Net-(AO4407A1-G)*%
X90925000Y-33510000D03*
%TO.P,U2,6,SENSE_6*%
%TO.N,VCC_5V_GLOBAL*%
X91875000Y-33510000D03*
%TD*%
D10*
%TO.P,JP3,1,A_1*%
%TO.N,3V3*%
X65720000Y-107060000D03*
D11*
%TO.P,JP3,2,B_2*%
%TO.N,Net-(JP3-B)*%
X65720000Y-109600000D03*
%TD*%
D10*
%TO.P,JP4,1,A_1*%
%TO.N,3V3*%
X68260000Y-107060000D03*
D11*
%TO.P,JP4,2,B_2*%
%TO.N,Net-(JP4-B)*%
X68260000Y-109600000D03*
%TD*%
D44*
%TO.P,U3,1,VIN_1*%
%TO.N,VCC_5V_BUCK*%
X73675000Y-31315000D03*
%TO.P,U3,2,GND_2*%
%TO.N,GND*%
X72725000Y-31315000D03*
%TO.P,U3,3,CTL_3*%
X71775000Y-31315000D03*
%TO.P,U3,4,STAT_4*%
%TO.N,unconnected-(U3-STAT-Pad4)*%
X71775000Y-33590000D03*
%TO.P,U3,5,GATE_5*%
%TO.N,Net-(AO4407A2-G)*%
X72725000Y-33590000D03*
%TO.P,U3,6,SENSE_6*%
%TO.N,VCC_5V_GLOBAL*%
X73675000Y-33590000D03*
%TD*%
D42*
%TO.P,R5,1*%
%TO.N,3V3*%
X62500000Y-149300000D03*
%TO.P,R5,2*%
%TO.N,SCL1*%
X64500000Y-149300000D03*
%TD*%
%TO.P,R6,1*%
%TO.N,3V3*%
X62500000Y-152250000D03*
%TO.P,R6,2*%
%TO.N,SDA1*%
X64500000Y-152250000D03*
%TD*%
%TO.P,R8,1*%
%TO.N,3V3*%
X62500000Y-158150000D03*
%TO.P,R8,2*%
%TO.N,SDA2*%
X64500000Y-158150000D03*
%TD*%
D43*
%TO.P,SW2,1,1_1*%
%TO.N,GND*%
X110975000Y-45152500D03*
%TO.P,SW2,2,2_2*%
%TO.N,ESP32_EN*%
X106775000Y-45152500D03*
%TD*%
D13*
%TO.P,J15,1,Pin_1_1*%
%TO.N,GND*%
X54225000Y-31652500D03*
D14*
%TO.P,J15,2,Pin_2_2*%
%TO.N,VCC_5V_BUCK*%
X59225000Y-31652500D03*
%TD*%
D45*
%TO.P,U4,1,GND_1*%
%TO.N,GND*%
X81525000Y-39440000D03*
%TO.P,U4,2,VO_2*%
%TO.N,3V3*%
X79225000Y-39440000D03*
D46*
X79225000Y-45740000D03*
D45*
%TO.P,U4,3,VI_3*%
%TO.N,VCC_5V_GLOBAL*%
X76925000Y-39440000D03*
%TD*%
D10*
%TO.P,UART0,1,Pin_1_1*%
%TO.N,GND*%
X69370000Y-165170000D03*
D11*
%TO.P,UART0,2,Pin_2_2*%
%TO.N,UART0-*%
X66830000Y-165170000D03*
%TO.P,UART0,3,Pin_3_3*%
%TO.N,UART0+*%
X64290000Y-165170000D03*
%TO.P,UART0,4,Pin_4_4*%
%TO.N,VCC_5V*%
X61750000Y-165170000D03*
%TD*%
M02*
