M48
; DRILL file {KiCad 8.0.1} date 2025-04-29T20:59:41+0100
; FORMAT={-:-/ absolute / inch / decimal}
; #@! TF.CreationDate,2025-04-29T20:59:41+01:00
; #@! TF.GenerationSoftware,Kicad,Pcbnew,8.0.1
; #@! TF.FileFunction,Plated,1,2,PTH
FMAT,2
INCH
; #@! TA.AperFunction,Plated,PTH,ComponentDrill
T1C0.0079
; #@! TA.AperFunction,Plated,PTH,ViaDrill
T2C0.0118
; #@! TA.AperFunction,Plated,PTH,ComponentDrill
T3C0.0236
; #@! TA.AperFunction,Plated,PTH,ComponentDrill
T4C0.0394
; #@! TA.AperFunction,Plated,PTH,ComponentDrill
T5C0.1260
%
G90
G05
T1
X5.6398Y-4.7827
X5.6398Y-4.8378
X5.6673Y-4.7551
X5.6673Y-4.8102
X5.6673Y-4.8654
X5.6949Y-4.7827
X5.6949Y-4.8378
X5.7224Y-4.7551
X5.7224Y-4.8102
X5.7224Y-4.8654
X5.75Y-4.7827
X5.75Y-4.8378
T2
X4.4961Y-3.8307
X4.498Y-4.8917
X4.5Y-3.0945
X4.5Y-3.6378
X4.502Y-3.268
X4.502Y-3.296
X4.502Y-3.324
X4.502Y-3.354
X4.502Y-3.382
X4.502Y-3.412
X4.502Y-3.44
X4.5118Y-3.7992
X4.5354Y-4.126
X4.5433Y-3.7835
X4.563Y-4.126
X4.59Y-4.126
X4.5984Y-4.7677
X4.6024Y-3.122
X4.6024Y-3.8543
X4.6024Y-4.8858
X4.622Y-3.8307
X4.6496Y-3.8071
X4.6535Y-3.2835
X4.6919Y-3.2687
X4.6969Y-4.7677
X4.7205Y-4.9213
X4.7244Y-3.1004
X4.7244Y-5.1378
X4.748Y-3.626
X4.752Y-2.8583
X4.7717Y-2.9252
X4.7795Y-3.1614
X4.7795Y-3.2638
X4.7835Y-3.0079
X4.7835Y-3.626
X4.7913Y-3.2913
X4.7992Y-5.1339
X4.8071Y-3.0709
X4.815Y-3.122
X4.8189Y-3.626
X4.8268Y-3.2913
X4.842Y-4.816
X4.852Y-4.784
X4.8543Y-3.626
X4.8622Y-3.2913
X4.8622Y-5.0039
X4.8819Y-3.1614
X4.8819Y-3.2638
X4.8898Y-3.626
X4.8976Y-3.2913
X4.9252Y-3.626
X4.9331Y-3.2913
X4.9606Y-3.626
X4.9646Y-5.002
X4.9685Y-3.2913
X4.9803Y-3.1575
X4.9803Y-3.2598
X4.9961Y-3.626
X5.0Y-5.092
X5.0118Y-2.9764
X5.028Y-4.334
X5.0354Y-3.626
X5.0512Y-4.0236
X5.0669Y-3.6417
X5.0679Y-4.3381
X5.0827Y-3.1614
X5.0827Y-3.2559
X5.0866Y-3.6614
X5.0866Y-4.9685
X5.098Y-4.744
X5.1063Y-2.9882
X5.1066Y-4.6966
X5.1066Y-4.3434
X5.1496Y-3.0118
X5.1811Y-3.1575
X5.1811Y-3.2559
X5.1811Y-3.752
X5.1922Y-3.9967
X5.1929Y-4.2992
X5.2047Y-4.874
X5.2074Y-4.0242
X5.2205Y-4.3543
X5.2283Y-4.502
X5.2283Y-4.5394
X5.2402Y-3.9882
X5.2795Y-3.9803
X5.2869Y-4.2485
X5.3189Y-4.0039
X5.3307Y-3.0984
X5.3386Y-4.0928
X5.3504Y-3.8583
X5.358Y-5.116
X5.3583Y-3.0787
X5.3646Y-4.0723
X5.37Y-5.062
X5.3701Y-4.6142
X5.3701Y-4.6614
X5.3701Y-4.8189
X5.3701Y-4.8583
X5.374Y-3.8937
X5.3858Y-4.1102
X5.3937Y-4.4843
X5.4094Y-2.9961
X5.4094Y-3.9409
X5.4232Y-5.0
X5.4232Y-5.0315
X5.4232Y-5.065
X5.4291Y-3.9646
X5.4311Y-4.252
X5.4605Y-4.008
X5.4606Y-3.9646
X5.4646Y-2.9478
X5.4724Y-3.1102
X5.4862Y-5.0
X5.4862Y-5.0315
X5.4862Y-5.065
X5.4882Y-3.9685
X5.4961Y-3.0079
X5.5291Y-3.0654
X5.5354Y-4.3543
X5.5394Y-4.7677
X5.5394Y-4.815
X5.5453Y-5.0
X5.5453Y-5.0315
X5.5453Y-5.065
X5.5483Y-4.3228
X5.5748Y-4.7717
X5.5787Y-4.7402
X5.5787Y-4.8189
X5.5827Y-4.2598
X5.5827Y-4.3228
X5.5827Y-4.8583
X5.6043Y-5.0
X5.6043Y-5.0315
X5.6043Y-5.065
X5.622Y-4.5748
X5.6602Y-4.3537
X5.6654Y-4.2992
X5.6693Y-5.0
X5.6693Y-5.0315
X5.6693Y-5.065
X5.6772Y-3.0984
X5.7323Y-5.0
X5.7323Y-5.0315
X5.7323Y-5.065
X5.7343Y-4.6063
X5.7441Y-3.1063
X5.7815Y-4.2657
X5.7913Y-4.6024
X5.7913Y-5.0
X5.7913Y-5.0315
X5.7913Y-5.065
X5.7992Y-4.8425
X5.8071Y-3.1063
X5.811Y-4.878
X5.8287Y-4.7087
X5.8374Y-3.9834
X5.8465Y-4.878
X5.8504Y-5.0
X5.8504Y-5.0315
X5.8504Y-5.065
X5.8622Y-3.1102
X5.874Y-4.8395
X5.8757Y-2.9921
X5.876Y-4.748
X5.8799Y-4.0984
X5.8819Y-3.0669
X5.884Y-4.674
X5.8957Y-4.5236
X5.8957Y-4.9642
X5.8976Y-4.878
X5.9016Y-3.8858
X5.91Y-4.084
X5.912Y-4.674
X5.912Y-5.116
X5.9154Y-3.916
X5.928Y-3.0
X5.9291Y-4.811
X5.9365Y-4.2561
X5.9381Y-4.0621
X5.9528Y-2.9685
X5.9666Y-4.2893
X5.9685Y-4.1654
X6.001Y-4.1663
X6.0079Y-3.9921
X6.0128Y-4.3021
X6.0236Y-3.3386
X6.0315Y-4.0157
X6.0335Y-3.2776
X6.0406Y-4.5484
X6.048Y-4.6106
X6.05Y-4.774
X6.052Y-4.73
X6.0551Y-4.6929
X6.056Y-4.938
X6.063Y-3.7795
X6.0748Y-3.1378
X6.1024Y-3.1614
X6.1063Y-4.6929
X6.1142Y-4.6457
X6.1142Y-4.9921
X6.122Y-3.3386
X6.1457Y-5.0039
X6.1496Y-3.3386
X6.1496Y-4.6929
X6.1693Y-4.9528
X6.1772Y-5.0276
X6.1969Y-4.6929
X6.198Y-4.834
X6.2008Y-4.7559
X6.2165Y-3.3386
X6.2362Y-4.6693
X6.2441Y-3.3386
X6.258Y-2.9803
X6.3031Y-4.7795
X6.3251Y-3.9491
X6.332Y-5.09
X6.3425Y-3.2835
X6.3489Y-3.9727
X6.378Y-2.9961
X6.378Y-3.2835
X6.378Y-4.6535
X6.3819Y-4.7795
X6.3976Y-4.9488
X6.4055Y-3.7717
X6.4094Y-3.6299
X6.4094Y-4.0394
X6.412Y-4.9764
X6.4134Y-3.2835
X6.4252Y-5.0906
X6.4449Y-3.6299
X6.4488Y-3.2835
X6.4803Y-3.6299
X6.4843Y-3.2835
X6.4882Y-3.9055
X6.5118Y-2.9685
X6.5157Y-3.6299
X6.5197Y-3.2835
X6.5315Y-2.8583
X6.5354Y-3.0669
X6.5512Y-3.6299
X6.5551Y-3.2835
X6.5866Y-3.6299
X6.5906Y-3.2835
X6.5984Y-3.1181
X6.6024Y-4.0709
X6.6024Y-4.2362
X6.6024Y-4.2756
X6.6063Y-4.1102
X6.626Y-3.926
X6.63Y-4.346
X6.6417Y-3.8898
X6.6457Y-4.0709
X6.6457Y-4.1102
X6.6457Y-4.2362
X6.6457Y-4.2756
X6.6772Y-3.122
X6.685Y-3.7874
X6.6888Y-4.0709
X6.6888Y-4.2362
X6.689Y-4.1102
X6.689Y-4.2756
X6.7559Y-3.1417
X6.7638Y-3.6024
X6.7677Y-3.1063
X6.7717Y-3.9213
X6.7717Y-3.9567
X6.7717Y-3.9921
X6.772Y-3.782
X6.784Y-3.282
X6.784Y-3.312
X6.784Y-3.342
X6.784Y-3.372
X6.784Y-3.402
X6.784Y-3.432
T4
X4.5319Y-3.2087
X4.5319Y-3.7087
X4.548Y-4.3157
X4.548Y-4.4157
X4.548Y-4.5157
X4.548Y-4.6157
X4.548Y-4.7157
X4.6319Y-3.2087
X4.6319Y-3.7087
X4.648Y-4.3157
X4.648Y-4.4157
X4.648Y-4.5157
X4.648Y-4.6157
X4.648Y-4.7157
X4.7319Y-3.2087
X4.7319Y-3.7087
X4.748Y-4.3157
X4.748Y-4.4157
X4.748Y-4.5157
X4.748Y-4.6157
X4.748Y-4.7157
X4.8319Y-3.2087
X4.8319Y-3.7087
X4.8575Y-2.8898
X4.9118Y-3.8504
X4.9205Y-3.0709
X4.9319Y-3.2087
X4.9319Y-3.7087
X4.9575Y-2.8898
X5.0118Y-3.8504
X5.0205Y-3.0709
X5.0319Y-3.2087
X5.0319Y-3.7087
X5.0575Y-2.8898
X5.1Y-3.3335
X5.1Y-3.4335
X5.1118Y-3.8504
X5.1205Y-3.0709
X5.1319Y-3.2087
X5.1319Y-3.7087
X5.1575Y-2.8898
X5.2Y-3.3335
X5.2Y-3.4335
X5.2118Y-3.8504
X5.2205Y-3.0709
X5.2319Y-3.2087
X5.2319Y-3.7087
X5.2575Y-2.8898
X5.3575Y-2.8898
X5.4709Y-3.815
X5.4854Y-4.1378
X5.5709Y-3.815
X5.5827Y-2.9659
X5.5827Y-3.0659
X5.5854Y-4.1378
X5.6854Y-4.1378
X5.7337Y-3.815
X5.7854Y-4.1378
X5.8337Y-3.815
X5.9189Y-2.8898
X6.0189Y-2.8898
X6.0551Y-3.2087
X6.0551Y-3.7087
X6.0654Y-3.8504
X6.0819Y-3.0669
X6.0886Y-3.4827
X6.0886Y-3.5827
X6.1189Y-2.8898
X6.1551Y-3.2087
X6.1551Y-3.7087
X6.1654Y-3.8504
X6.1819Y-3.0669
X6.1886Y-3.4827
X6.1886Y-3.5827
X6.2189Y-2.8898
X6.2551Y-3.2087
X6.2551Y-3.7087
X6.2654Y-3.8504
X6.2756Y-4.0994
X6.2756Y-4.1994
X6.2819Y-3.0669
X6.3189Y-2.8898
X6.3551Y-3.2087
X6.3551Y-3.7087
X6.3654Y-3.8504
X6.3819Y-3.0669
X6.4189Y-2.8898
X6.4551Y-3.2087
X6.4551Y-3.7087
X6.5551Y-3.2087
X6.5551Y-3.7087
X6.6551Y-3.2087
X6.6551Y-3.7087
X6.7551Y-3.2087
X6.7551Y-3.7087
T5
X4.598Y-2.9535
X4.598Y-5.0402
X6.6846Y-2.9535
X6.6846Y-5.0402
T3
G00X6.5026Y-4.5051
M15
G01X6.5459Y-4.5051
M16
G05
G00X6.5026Y-4.8453
M15
G01X6.5459Y-4.8453
M16
G05
G00X6.677Y-4.5051
M15
G01X6.7006Y-4.5051
M16
G05
G00X6.677Y-4.8453
M15
G01X6.7006Y-4.8453
M16
G05
M30
