M48
; DRILL file KiCad 10.0.2 date 2026-05-19T12:57:33
; FORMAT={-:-/ absolute / metric / decimal}
; #@! TF.CreationDate,2026-05-19T12:57:33+02:00
; #@! TF.GenerationSoftware,Kicad,Pcbnew,10.0.2
; #@! TF.FileFunction,Plated,1,2,PTH
FMAT,2
METRIC
; #@! TA.AperFunction,Plated,PTH,ComponentDrill
T1C0.200
; #@! TA.AperFunction,Plated,PTH,ComponentDrill
T2C0.600
; #@! TA.AperFunction,Plated,PTH,ComponentDrill
T3C1.000
; #@! TA.AperFunction,Plated,PTH,ComponentDrill
T4C1.100
; #@! TA.AperFunction,Plated,PTH,ComponentDrill
T5C2.700
; #@! TA.AperFunction,Plated,PTH,ComponentDrill
T6C3.200
%
G90
G05
T1
X77.625Y-31.572
X77.625Y-32.872
X78.625Y-31.572
X78.625Y-32.872
X79.625Y-31.572
X79.625Y-32.872
X84.325Y-31.572
X84.325Y-32.872
X85.325Y-31.572
X85.325Y-32.872
X86.325Y-31.572
X86.325Y-32.872
X101.265Y-55.817
X101.265Y-57.217
X101.965Y-55.117
X101.965Y-56.517
X101.965Y-57.917
X102.665Y-55.817
X102.665Y-57.217
X103.365Y-55.117
X103.365Y-56.517
X103.365Y-57.917
X104.065Y-55.817
X104.065Y-57.217
T3
X44.525Y-37.212
X44.525Y-54.992
X44.625Y-64.432
X44.625Y-66.972
X44.625Y-69.513
X44.625Y-72.052
X47.065Y-37.212
X47.065Y-54.992
X48.375Y-59.262
X48.375Y-61.802
X48.375Y-64.343
X48.375Y-66.882
X48.375Y-69.422
X48.375Y-71.962
X48.375Y-74.502
X48.375Y-77.042
X49.605Y-37.212
X49.605Y-54.992
X52.145Y-37.212
X52.145Y-54.992
X54.685Y-37.212
X54.685Y-54.992
X56.16Y-111.9
X56.16Y-114.44
X57.225Y-37.212
X57.225Y-54.992
X57.3Y-127.59
X57.3Y-130.13
X57.3Y-132.67
X57.3Y-135.21
X58.7Y-111.9
X58.7Y-114.44
X59.765Y-37.212
X59.765Y-54.992
X61.075Y-59.262
X61.075Y-61.802
X61.075Y-64.343
X61.075Y-66.882
X61.075Y-69.422
X61.075Y-71.962
X61.075Y-74.502
X61.075Y-77.042
X61.75Y-165.17
X62.305Y-37.212
X62.305Y-54.992
X64.29Y-165.17
X64.845Y-37.212
X64.845Y-54.992
X64.925Y-64.362
X64.925Y-66.903
X64.925Y-69.442
X64.925Y-71.983
X65.66Y-116.0
X65.66Y-118.54
X65.72Y-107.06
X65.72Y-109.6
X66.83Y-165.17
X67.385Y-37.212
X67.385Y-54.992
X68.26Y-107.06
X68.26Y-109.6
X68.7Y-59.3
X68.7Y-61.84
X68.7Y-64.38
X68.7Y-66.92
X68.7Y-69.46
X68.7Y-72.0
X68.7Y-74.54
X68.7Y-77.08
X68.89Y-90.802
X69.37Y-165.17
X69.925Y-37.212
X69.925Y-54.992
X70.25Y-116.0
X70.25Y-118.54
X71.43Y-90.802
X72.55Y-141.51
X72.55Y-144.05
X72.55Y-146.59
X76.772Y-80.203
X76.772Y-92.902
X77.71Y-123.96
X77.71Y-126.5
X77.71Y-129.04
X77.71Y-131.58
X77.71Y-134.12
X79.312Y-80.203
X79.312Y-92.902
X80.18Y-114.6
X81.4Y-59.3
X81.4Y-61.84
X81.4Y-64.38
X81.4Y-66.92
X81.4Y-69.46
X81.4Y-72.0
X81.4Y-74.54
X81.4Y-77.08
X81.852Y-80.203
X81.852Y-92.902
X81.962Y-96.502
X82.3Y-123.96
X82.3Y-126.5
X82.3Y-129.04
X82.3Y-131.58
X82.3Y-134.12
X82.72Y-114.6
X83.725Y-50.277
X83.725Y-52.817
X84.392Y-80.203
X84.392Y-92.902
X84.502Y-96.502
X85.26Y-114.6
X86.265Y-50.277
X86.265Y-52.817
X86.932Y-80.203
X86.932Y-92.902
X87.042Y-96.502
X87.8Y-114.6
X88.025Y-41.188
X88.025Y-43.727
X89.472Y-80.203
X89.472Y-92.902
X89.582Y-96.502
X90.34Y-114.6
X92.013Y-80.203
X92.013Y-92.902
X92.88Y-114.6
X94.552Y-80.203
X94.552Y-92.902
X95.42Y-114.6
X97.96Y-114.6
X99.51Y-124.4
X99.51Y-126.94
X99.51Y-129.48
X99.51Y-132.02
X99.51Y-134.56
X101.705Y-40.252
X104.1Y-124.4
X104.1Y-126.94
X104.1Y-129.48
X104.1Y-132.02
X104.1Y-134.56
X104.245Y-40.252
X106.785Y-40.252
X109.325Y-40.252
T4
X65.525Y-84.352
X68.065Y-84.352
X70.605Y-84.352
T5
X53.225Y-84.453
X53.425Y-91.252
X54.225Y-31.652
X58.225Y-84.453
X58.425Y-91.252
X59.225Y-31.652
T6
X45.825Y-31.152
X45.825Y-94.152
X108.825Y-31.152
X108.825Y-94.152
T2
G00X94.805Y-29.822
M15
G01X94.805Y-29.223
M16
G05
G00X94.805Y-34.252
M15
G01X94.805Y-33.152
M16
G05
G00X103.445Y-29.822
M15
G01X103.445Y-29.223
M16
G05
G00X103.445Y-34.252
M15
G01X103.445Y-33.152
M16
G05
M30
