%TF.GenerationSoftware,KiCad,Pcbnew,10.0.2*%
%TF.CreationDate,2026-05-19T12:57:41+02:00*%
%TF.ProjectId,PCB,5043422e-6b69-4636-9164-5f7063625858,rev?*%
%TF.SameCoordinates,Original*%
%TF.FileFunction,Copper,L2,Bot*%
%TF.FilePolarity,Positive*%
%FSLAX46Y46*%
G04 Gerber Fmt 4.6, Leading zero omitted, Abs format (unit mm)*
G04 Created by KiCad (PCBNEW 10.0.2) date 2026-05-19 12:57:41*
%MOMM*%
%LPD*%
G01*
G04 APERTURE LIST*
G04 Aperture macros list*
%AMRoundRect*
0 Rectangle with rounded corners*
0 $1 Rounding radius*
0 $2 $3 $4 $5 $6 $7 $8 $9 X,Y pos of 4 corners*
0 Add a 4 corners polygon primitive as box body*
4,1,4,$2,$3,$4,$5,$6,$7,$8,$9,$2,$3,0*
0 Add four circle primitives for the rounded corners*
1,1,$1+$1,$2,$3*
1,1,$1+$1,$4,$5*
1,1,$1+$1,$6,$7*
1,1,$1+$1,$8,$9*
0 Add four rect primitives between the rounded corners*
20,1,$1+$1,$2,$3,$4,$5,0*
20,1,$1+$1,$4,$5,$6,$7,0*
20,1,$1+$1,$6,$7,$8,$9,0*
20,1,$1+$1,$8,$9,$2,$3,0*%
G04 Aperture macros list end*
%TA.AperFunction,ComponentPad*%
%ADD10R,1.700000X1.700000*%
%TD*%
%TA.AperFunction,ComponentPad*%
%ADD11C,1.700000*%
%TD*%
%TA.AperFunction,ComponentPad*%
%ADD12RoundRect,0.760000X-1.140000X-1.140000X1.140000X-1.140000X1.140000X1.140000X-1.140000X1.140000X0*%
%TD*%
%TA.AperFunction,ComponentPad*%
%ADD13C,4.000000*%
%TD*%
%TA.AperFunction,ComponentPad*%
%ADD14R,1.905000X2.000000*%
%TD*%
%TA.AperFunction,ComponentPad*%
%ADD15O,1.905000X2.000000*%
%TD*%
%TA.AperFunction,SMDPad,CuDef*%
%ADD16R,1.000000X1.500000*%
%TD*%
%TA.AperFunction,HeatsinkPad*%
%ADD17C,0.500000*%
%TD*%
%TA.AperFunction,HeatsinkPad*%
%ADD18R,2.500000X1.800000*%
%TD*%
%TA.AperFunction,ComponentPad*%
%ADD19O,1.000000X1.600000*%
%TD*%
%TA.AperFunction,ComponentPad*%
%ADD20O,1.000000X2.100000*%
%TD*%
%TA.AperFunction,SMDPad,CuDef*%
%ADD21RoundRect,0.250000X0.450000X-0.350000X0.450000X0.350000X-0.450000X0.350000X-0.450000X-0.350000X0*%
%TD*%
%TA.AperFunction,HeatsinkPad*%
%ADD22C,0.600000*%
%TD*%
%TA.AperFunction,SMDPad,CuDef*%
%ADD23RoundRect,0.100000X0.100000X-0.850000X0.100000X0.850000X-0.100000X0.850000X-0.100000X-0.850000X0*%
%TD*%
%TA.AperFunction,ComponentPad*%
%ADD24C,1.508000*%
%TD*%
%TA.AperFunction,ComponentPad*%
%ADD25R,1.508000X1.508000*%
%TD*%
%TA.AperFunction,SMDPad,CuDef*%
%ADD26RoundRect,0.100000X0.850000X0.100000X-0.850000X0.100000X-0.850000X-0.100000X0.850000X-0.100000X0*%
%TD*%
%TA.AperFunction,ComponentPad*%
%ADD27C,6.400000*%
%TD*%
%TA.AperFunction,SMDPad,CuDef*%
%ADD28RoundRect,0.250000X-0.475000X0.337500X-0.475000X-0.337500X0.475000X-0.337500X0.475000X0.337500X0*%
%TD*%
%TA.AperFunction,SMDPad,CuDef*%
%ADD29RoundRect,0.250000X0.650000X-0.412500X0.650000X0.412500X-0.650000X0.412500X-0.650000X-0.412500X0*%
%TD*%
%TA.AperFunction,SMDPad,CuDef*%
%ADD30RoundRect,0.250000X0.400000X0.625000X-0.400000X0.625000X-0.400000X-0.625000X0.400000X-0.625000X0*%
%TD*%
%TA.AperFunction,SMDPad,CuDef*%
%ADD31RoundRect,0.250000X-0.450000X0.350000X-0.450000X-0.350000X0.450000X-0.350000X0.450000X0.350000X0*%
%TD*%
G04 APERTURE END LIST*
D10*
%TO.P,J9,1,Pin_1_1*%
%TO.N,BAU+*%
X68890000Y-90802500D03*
D11*
%TO.P,J9,2,Pin_2_2*%
%TO.N,GND*%
X71430000Y-90802500D03*
%TD*%
D12*
%TO.P,J6,1,Pin_1_1*%
%TO.N,GND*%
X53225000Y-84452500D03*
D13*
%TO.P,J6,2,Pin_2_2*%
%TO.N,VCC_12V_IN*%
X58225000Y-84452500D03*
%TD*%
D14*
%TO.P,Q1,1,G_1*%
%TO.N,BAU+*%
X70605000Y-84352500D03*
D15*
%TO.P,Q1,2,D_2*%
%TO.N,VCC_12V*%
X68065000Y-84352500D03*
%TO.P,Q1,3,S_3*%
%TO.N,VCC_12V_IN*%
X65525000Y-84352500D03*
%TD*%
D13*
%TO.P,J10,2,Pin_2_2*%
%TO.N,VCC_12V*%
X58425000Y-91252500D03*
D12*
%TO.P,J10,1,Pin_1_1*%
%TO.N,GND*%
X53425000Y-91252500D03*
%TD*%
D10*
%TO.P,VL0,1,Pin_1_1*%
%TO.N,XSHUT0*%
X104100000Y-124400000D03*
D11*
%TO.P,VL0,2,Pin_2_2*%
%TO.N,Net-(J11-Pin_2)*%
X104100000Y-126940000D03*
%TO.P,VL0,3,Pin_3_3*%
%TO.N,Net-(J11-Pin_3)*%
X104100000Y-129480000D03*
%TO.P,VL0,4,Pin_4_4*%
%TO.N,GND*%
X104100000Y-132020000D03*
%TO.P,VL0,5,Pin_5_5*%
%TO.N,VCC_5V*%
X104100000Y-134560000D03*
%TD*%
D10*
%TO.P,J11,1,Pin_1_1*%
%TO.N,XSHUT1*%
X99510000Y-124400000D03*
D11*
%TO.P,J11,2,Pin_2_2*%
%TO.N,Net-(J11-Pin_2)*%
X99510000Y-126940000D03*
%TO.P,J11,3,Pin_3_3*%
%TO.N,Net-(J11-Pin_3)*%
X99510000Y-129480000D03*
%TO.P,J11,4,Pin_4_4*%
%TO.N,GND*%
X99510000Y-132020000D03*
%TO.P,J11,5,Pin_5_5*%
%TO.N,VCC_5V*%
X99510000Y-134560000D03*
%TD*%
D10*
%TO.P,J21,1,Pin_1_1*%
%TO.N,XSHUT3*%
X82300000Y-123960000D03*
D11*
%TO.P,J21,2,Pin_2_2*%
%TO.N,Net-(J16-Pin_2)*%
X82300000Y-126500000D03*
%TO.P,J21,3,Pin_3_3*%
%TO.N,Net-(J16-Pin_3)*%
X82300000Y-129040000D03*
%TO.P,J21,4,Pin_4_4*%
%TO.N,GND*%
X82300000Y-131580000D03*
%TO.P,J21,5,Pin_5_5*%
%TO.N,VCC_5V*%
X82300000Y-134120000D03*
%TD*%
D10*
%TO.P,J16,1,Pin_1_1*%
%TO.N,XSHUT2*%
X77710000Y-123960000D03*
D11*
%TO.P,J16,2,Pin_2_2*%
%TO.N,Net-(J16-Pin_2)*%
X77710000Y-126500000D03*
%TO.P,J16,3,Pin_3_3*%
%TO.N,Net-(J16-Pin_3)*%
X77710000Y-129040000D03*
%TO.P,J16,4,Pin_4_4*%
%TO.N,GND*%
X77710000Y-131580000D03*
%TO.P,J16,5,Pin_5_5*%
%TO.N,VCC_5V*%
X77710000Y-134120000D03*
%TD*%
D16*
%TO.P,J20,1,Pin_1_1*%
%TO.N,SDA1*%
X61900000Y-131400000D03*
%TO.P,J20,2,Pin_2_2*%
%TO.N,Net-(J20-Pin_2)*%
X63200000Y-131400000D03*
%TO.P,J20,3,Pin_3_3*%
%TO.N,SDA2*%
X64500000Y-131400000D03*
%TD*%
%TO.P,J19,1,Pin_1_1*%
%TO.N,SCL2*%
X64500000Y-134000000D03*
%TO.P,J19,2,Pin_2_2*%
%TO.N,Net-(J19-Pin_2)*%
X63200000Y-134000000D03*
%TO.P,J19,3,Pin_3_3*%
%TO.N,SCL1*%
X61900000Y-134000000D03*
%TD*%
D10*
%TO.P,J8,1,Pin_1_1*%
%TO.N,VCC_5V_GLOBAL*%
X72550000Y-146590000D03*
D11*
%TO.P,J8,2,Pin_2_2*%
%TO.N,NEOPIXEL+*%
X72550000Y-144050000D03*
%TO.P,J8,3,Pin_3_3*%
%TO.N,GND*%
X72550000Y-141510000D03*
%TD*%
%TO.P,MPU1,4,Pin_4_4*%
%TO.N,VCC_5V_GLOBAL*%
X57300000Y-135210000D03*
%TO.P,MPU1,3,Pin_3_3*%
%TO.N,GND*%
X57300000Y-132670000D03*
%TO.P,MPU1,2,Pin_2_2*%
%TO.N,Net-(J19-Pin_2)*%
X57300000Y-130130000D03*
D10*
%TO.P,MPU1,1,Pin_1_1*%
%TO.N,Net-(J20-Pin_2)*%
X57300000Y-127590000D03*
%TD*%
D17*
%TO.P,AO4407A1,9,D_9*%
%TO.N,VCC_5V_GLOBAL*%
X84325000Y-32872500D03*
X85325000Y-32872500D03*
X86325000Y-32872500D03*
D18*
X85325000Y-32222500D03*
D17*
X84325000Y-31572500D03*
X85325000Y-31572500D03*
X86325000Y-31572500D03*
%TD*%
%TO.P,AO4407A2,9,D_9*%
%TO.N,VCC_5V_GLOBAL*%
X77625000Y-32872500D03*
X78625000Y-32872500D03*
X79625000Y-32872500D03*
D18*
X78625000Y-32222500D03*
D17*
X77625000Y-31572500D03*
X78625000Y-31572500D03*
X79625000Y-31572500D03*
%TD*%
D19*
%TO.P,J1,SH*%
%TO.N,N/C*%
X94805000Y-29522500D03*
D20*
X94805000Y-33702500D03*
D19*
X103445000Y-29522500D03*
D20*
X103445000Y-33702500D03*
%TD*%
D21*
%TO.P,R1,2*%
%TO.N,ESP32_EN*%
X105225000Y-43902500D03*
%TO.P,R1,1*%
%TO.N,3V3*%
X105225000Y-45902500D03*
%TD*%
D22*
%TO.P,U6,41,GND_41*%
%TO.N,GND*%
X103365000Y-55117500D03*
X101965000Y-55117500D03*
X104065000Y-55817500D03*
X102665000Y-55817500D03*
X101265000Y-55817500D03*
X103365000Y-56517500D03*
X101965000Y-56517500D03*
X104065000Y-57217500D03*
X102665000Y-57217500D03*
X101265000Y-57217500D03*
X103365000Y-57917500D03*
X101965000Y-57917500D03*
%TD*%
D23*
%TO.P,U5,24,VM1_24*%
%TO.N,VCC_12V*%
X78625000Y-65190000D03*
%TO.P,U5,23,PWMA_23*%
%TO.N,M3_PWM*%
X77975000Y-65190000D03*
%TO.P,U5,22,AIN2_22*%
%TO.N,M3_IN2*%
X77325000Y-65190000D03*
%TO.P,U5,21,AIN1_21*%
%TO.N,M3_IN1*%
X76675000Y-65190000D03*
%TO.P,U5,20,VCC_20*%
%TO.N,VCC_5V_GLOBAL*%
X76025000Y-65190000D03*
%TO.P,U5,19,STBY_19*%
X75375000Y-65190000D03*
%TO.P,U5,18,GND_18*%
%TO.N,GND*%
X74725000Y-65190000D03*
%TO.P,U5,17,BIN1_17*%
%TO.N,M4_IN1*%
X74075000Y-65190000D03*
%TO.P,U5,16,BIN2_16*%
%TO.N,M4_IN2*%
X73425000Y-65190000D03*
%TO.P,U5,15,PWMB_15*%
%TO.N,M4_PWM*%
X72775000Y-65190000D03*
%TO.P,U5,14,VM3_14*%
%TO.N,VCC_12V*%
X72125000Y-65190000D03*
%TO.P,U5,13,VM2_13*%
X71475000Y-65190000D03*
%TO.P,U5,12,BO1_12*%
%TO.N,M4+*%
X71475000Y-72190000D03*
%TO.P,U5,11,BO1_11*%
X72125000Y-72190000D03*
%TO.P,U5,10,PGND2_10*%
%TO.N,GND*%
X72775000Y-72190000D03*
%TO.P,U5,9,PGND2_9*%
X73425000Y-72190000D03*
%TO.P,U5,8,BO2_8*%
%TO.N,M4-*%
X74075000Y-72190000D03*
%TO.P,U5,7,BO2_7*%
X74725000Y-72190000D03*
%TO.P,U5,6,AO2_6*%
%TO.N,M3-*%
X75375000Y-72190000D03*
%TO.P,U5,5,AO2_5*%
X76025000Y-72190000D03*
%TO.P,U5,4,PGND1_4*%
%TO.N,GND*%
X76675000Y-72190000D03*
%TO.P,U5,3,PGND1_3*%
X77325000Y-72190000D03*
%TO.P,U5,2,AO1_2*%
%TO.N,M3+*%
X77975000Y-72190000D03*
%TO.P,U5,1,AO1_1*%
X78625000Y-72190000D03*
%TD*%
D24*
%TO.P,U8,16,~{EN}_16*%
%TO.N,M1_IN1*%
X81400000Y-77080000D03*
%TO.P,U8,15,MS1_15*%
%TO.N,Net-(JP3-B)*%
X81400000Y-74540000D03*
%TO.P,U8,14,MS2_14*%
%TO.N,Net-(JP4-B)*%
X81400000Y-72000000D03*
%TO.P,U8,13,SPRD_13*%
%TO.N,unconnected-(U8-SPRD-Pad13)*%
X81400000Y-69460000D03*
%TO.P,U8,12,UART_12*%
%TO.N,unconnected-(U8-UART-Pad12)*%
X81400000Y-66920000D03*
%TO.P,U8,11,PDN_11*%
%TO.N,unconnected-(U8-PDN-Pad11)*%
X81400000Y-64380000D03*
%TO.P,U8,10,STEP_10*%
%TO.N,unconnected-(U8-STEP-Pad10)*%
X81400000Y-61840000D03*
%TO.P,U8,9,DIR_9*%
%TO.N,unconnected-(U8-DIR-Pad9)*%
X81400000Y-59300000D03*
%TO.P,U8,8,VM_8*%
%TO.N,VCC_12V*%
X68700000Y-77080000D03*
%TO.P,U8,7,GND_7*%
%TO.N,GND*%
X68700000Y-74540000D03*
%TO.P,U8,6,M2B_6*%
%TO.N,MOTORB4*%
X68700000Y-72000000D03*
%TO.P,U8,5,M2A_5*%
%TO.N,MOTORB3*%
X68700000Y-69460000D03*
%TO.P,U8,4,M1A_4*%
%TO.N,MOTORB2*%
X68700000Y-66920000D03*
%TO.P,U8,3,M1B_3*%
%TO.N,MOTORB1*%
X68700000Y-64380000D03*
%TO.P,U8,2,VIO_2*%
%TO.N,3V3*%
X68700000Y-61840000D03*
D25*
%TO.P,U8,1,GND_1*%
%TO.N,GND*%
X68700000Y-59300000D03*
%TD*%
D11*
%TO.P,J14,4,Pin_4_4*%
%TO.N,MOTORB4*%
X64925000Y-71982500D03*
%TO.P,J14,3,Pin_3_3*%
%TO.N,MOTORB3*%
X64925000Y-69442500D03*
%TO.P,J14,2,Pin_2_2*%
%TO.N,MOTORB2*%
X64925000Y-66902500D03*
D10*
%TO.P,J14,1,Pin_1_1*%
%TO.N,MOTORB1*%
X64925000Y-64362500D03*
%TD*%
D24*
%TO.P,U7,16,~{EN}_16*%
%TO.N,M1_IN1*%
X94552500Y-80202500D03*
%TO.P,U7,15,MS1_15*%
%TO.N,Net-(JP1-B)*%
X92012500Y-80202500D03*
%TO.P,U7,14,MS2_14*%
%TO.N,Net-(JP2-B)*%
X89472500Y-80202500D03*
%TO.P,U7,13,SPRD_13*%
%TO.N,unconnected-(U7-SPRD-Pad13)*%
X86932500Y-80202500D03*
%TO.P,U7,12,UART_12*%
%TO.N,unconnected-(U7-UART-Pad12)*%
X84392500Y-80202500D03*
%TO.P,U7,11,PDN_11*%
%TO.N,unconnected-(U7-PDN-Pad11)*%
X81852500Y-80202500D03*
%TO.P,U7,10,STEP_10*%
%TO.N,unconnected-(U7-STEP-Pad10)*%
X79312500Y-80202500D03*
%TO.P,U7,9,DIR_9*%
%TO.N,unconnected-(U7-DIR-Pad9)*%
X76772500Y-80202500D03*
%TO.P,U7,8,VM_8*%
%TO.N,VCC_12V*%
X94552500Y-92902500D03*
%TO.P,U7,7,GND_7*%
%TO.N,GND*%
X92012500Y-92902500D03*
%TO.P,U7,6,M2B_6*%
%TO.N,MOTORA4*%
X89472500Y-92902500D03*
%TO.P,U7,5,M2A_5*%
%TO.N,MOTORA3*%
X86932500Y-92902500D03*
%TO.P,U7,4,M1A_4*%
%TO.N,MOTORA2*%
X84392500Y-92902500D03*
%TO.P,U7,3,M1B_3*%
%TO.N,MOTORA1*%
X81852500Y-92902500D03*
%TO.P,U7,2,VIO_2*%
%TO.N,3V3*%
X79312500Y-92902500D03*
D25*
%TO.P,U7,1,GND_1*%
%TO.N,GND*%
X76772500Y-92902500D03*
%TD*%
D10*
%TO.P,J13,1,Pin_1_1*%
%TO.N,MOTORA1*%
X81962500Y-96502500D03*
D11*
%TO.P,J13,2,Pin_2_2*%
%TO.N,MOTORA2*%
X84502500Y-96502500D03*
%TO.P,J13,3,Pin_3_3*%
%TO.N,MOTORA3*%
X87042500Y-96502500D03*
%TO.P,J13,4,Pin_4_4*%
%TO.N,MOTORA4*%
X89582500Y-96502500D03*
%TD*%
D26*
%TO.P,U1,24,VM1_24*%
%TO.N,VCC_12V*%
X82162500Y-82977500D03*
%TO.P,U1,23,PWMA_23*%
%TO.N,M1_PWM*%
X82162500Y-83627500D03*
%TO.P,U1,22,AIN2_22*%
%TO.N,M1_IN2*%
X82162500Y-84277500D03*
%TO.P,U1,21,AIN1_21*%
%TO.N,M1_IN1*%
X82162500Y-84927500D03*
%TO.P,U1,20,VCC_20*%
%TO.N,VCC_5V_GLOBAL*%
X82162500Y-85577500D03*
%TO.P,U1,19,STBY_19*%
X82162500Y-86227500D03*
%TO.P,U1,18,GND_18*%
%TO.N,GND*%
X82162500Y-86877500D03*
%TO.P,U1,17,BIN1_17*%
%TO.N,M2_IN1*%
X82162500Y-87527500D03*
%TO.P,U1,16,BIN2_16*%
%TO.N,M2_IN2*%
X82162500Y-88177500D03*
%TO.P,U1,15,PWMB_15*%
%TO.N,M2_PWM*%
X82162500Y-88827500D03*
%TO.P,U1,14,VM3_14*%
%TO.N,VCC_12V*%
X82162500Y-89477500D03*
%TO.P,U1,13,VM2_13*%
X82162500Y-90127500D03*
%TO.P,U1,12,BO1_12*%
%TO.N,M2+*%
X89162500Y-90127500D03*
%TO.P,U1,11,BO1_11*%
X89162500Y-89477500D03*
%TO.P,U1,10,PGND2_10*%
%TO.N,GND*%
X89162500Y-88827500D03*
%TO.P,U1,9,PGND2_9*%
X89162500Y-88177500D03*
%TO.P,U1,8,BO2_8*%
%TO.N,M2-*%
X89162500Y-87527500D03*
%TO.P,U1,7,BO2_7*%
X89162500Y-86877500D03*
%TO.P,U1,6,AO2_6*%
%TO.N,M1-*%
X89162500Y-86227500D03*
%TO.P,U1,5,AO2_5*%
X89162500Y-85577500D03*
%TO.P,U1,4,PGND1_4*%
%TO.N,GND*%
X89162500Y-84927500D03*
%TO.P,U1,3,PGND1_3*%
X89162500Y-84277500D03*
%TO.P,U1,2,AO1_2*%
%TO.N,M1+*%
X89162500Y-83627500D03*
%TO.P,U1,1,AO1_1*%
X89162500Y-82977500D03*
%TD*%
D25*
%TO.P,U9,1,GND_1*%
%TO.N,GND*%
X48375000Y-59262500D03*
D24*
%TO.P,U9,2,VIO_2*%
%TO.N,3V3*%
X48375000Y-61802500D03*
%TO.P,U9,3,M1B_3*%
%TO.N,MOTORC1*%
X48375000Y-64342500D03*
%TO.P,U9,4,M1A_4*%
%TO.N,MOTORC2*%
X48375000Y-66882500D03*
%TO.P,U9,5,M2A_5*%
%TO.N,MOTORC3*%
X48375000Y-69422500D03*
%TO.P,U9,6,M2B_6*%
%TO.N,MOTORC4*%
X48375000Y-71962500D03*
%TO.P,U9,7,GND_7*%
%TO.N,GND*%
X48375000Y-74502500D03*
%TO.P,U9,8,VM_8*%
%TO.N,VCC_12V*%
X48375000Y-77042500D03*
%TO.P,U9,9,DIR_9*%
%TO.N,unconnected-(U9-DIR-Pad9)*%
X61075000Y-59262500D03*
%TO.P,U9,10,STEP_10*%
%TO.N,unconnected-(U9-STEP-Pad10)*%
X61075000Y-61802500D03*
%TO.P,U9,11,PDN_11*%
%TO.N,unconnected-(U9-PDN-Pad11)*%
X61075000Y-64342500D03*
%TO.P,U9,12,UART_12*%
%TO.N,unconnected-(U9-UART-Pad12)*%
X61075000Y-66882500D03*
%TO.P,U9,13,SPRD_13*%
%TO.N,unconnected-(U9-SPRD-Pad13)*%
X61075000Y-69422500D03*
%TO.P,U9,14,MS2_14*%
%TO.N,Net-(JP6-B)*%
X61075000Y-71962500D03*
%TO.P,U9,15,MS1_15*%
%TO.N,Net-(JP5-B)*%
X61075000Y-74502500D03*
%TO.P,U9,16,~{EN}_16*%
%TO.N,M1_IN1*%
X61075000Y-77042500D03*
%TD*%
D11*
%TO.P,J22,4,Pin_4_4*%
%TO.N,MOTORC4*%
X44625000Y-72052500D03*
%TO.P,J22,3,Pin_3_3*%
%TO.N,MOTORC3*%
X44625000Y-69512500D03*
%TO.P,J22,2,Pin_2_2*%
%TO.N,MOTORC2*%
X44625000Y-66972500D03*
D10*
%TO.P,J22,1,Pin_1_1*%
%TO.N,MOTORC1*%
X44625000Y-64432500D03*
%TD*%
D27*
%TO.P,H2,1,1_1*%
%TO.N,GND*%
X45825000Y-94152500D03*
%TD*%
%TO.P,H3,1,1_1*%
%TO.N,GND*%
X108825000Y-31152500D03*
%TD*%
D21*
%TO.P,R12,2*%
%TO.N,Net-(D6-DIN)*%
X80350000Y-142850000D03*
%TO.P,R12,1*%
%TO.N,NEOPIXEL*%
X80350000Y-144850000D03*
%TD*%
D28*
%TO.P,C12,2*%
%TO.N,GND*%
X77350000Y-144887500D03*
%TO.P,C12,1*%
%TO.N,VCC_5V_GLOBAL*%
X77350000Y-142812500D03*
%TD*%
D11*
%TO.P,J5,2,Pin_2_2*%
%TO.N,GND*%
X83725000Y-52817500D03*
D10*
%TO.P,J5,1,Pin_1_1*%
%TO.N,TEAM_BTN*%
X83725000Y-50277500D03*
%TD*%
D11*
%TO.P,J7,2,Pin_2_2*%
%TO.N,GND*%
X86265000Y-52817500D03*
D10*
%TO.P,J7,1,Pin_1_1*%
%TO.N,LAUNCHPULL*%
X86265000Y-50277500D03*
%TD*%
D11*
%TO.P,J3,8,Pin_8_8*%
%TO.N,BLK*%
X97960000Y-114600000D03*
%TO.P,J3,7,Pin_7_7*%
%TO.N,CS*%
X95420000Y-114600000D03*
%TO.P,J3,6,Pin_6_6*%
%TO.N,DC*%
X92880000Y-114600000D03*
%TO.P,J3,5,Pin_5_5*%
%TO.N,RST*%
X90340000Y-114600000D03*
%TO.P,J3,4,Pin_4_4*%
%TO.N,MOSI*%
X87800000Y-114600000D03*
%TO.P,J3,3,Pin_3_3*%
%TO.N,SCLK*%
X85260000Y-114600000D03*
%TO.P,J3,2,Pin_2_2*%
%TO.N,3V3*%
X82720000Y-114600000D03*
D10*
%TO.P,J3,1,Pin_1_1*%
%TO.N,GND*%
X80180000Y-114600000D03*
%TD*%
D11*
%TO.P,J2,11,Pin_11_11*%
%TO.N,1V8_OUT*%
X44525000Y-37212500D03*
%TO.P,J2,10,Pin_10_10*%
%TO.N,GND*%
X47065000Y-37212500D03*
%TO.P,J2,9,Pin_9_9*%
%TO.N,GPIO4_C1_z*%
X49605000Y-37212500D03*
%TO.P,J2,8,Pin_8_8*%
%TO.N,GPIO4_C0_z*%
X52145000Y-37212500D03*
%TO.P,J2,7,Pin_7_7*%
%TO.N,GPIO0_A4_d*%
X54685000Y-37212500D03*
%TO.P,J2,6,Pin_6_6*%
%TO.N,GPIO1_C7_d*%
X57225000Y-37212500D03*
%TO.P,J2,5,Pin_5_5*%
%TO.N,GPIO1_C6_d*%
X59765000Y-37212500D03*
%TO.P,J2,4,Pin_4_4*%
%TO.N,GPIO1_D3_d*%
X62305000Y-37212500D03*
%TO.P,J2,3,Pin_3_3*%
%TO.N,GPIO1_D2_d*%
X64845000Y-37212500D03*
%TO.P,J2,2,Pin_2_2*%
%TO.N,GPIO1_D1_d*%
X67385000Y-37212500D03*
D10*
%TO.P,J2,1,Pin_1_1*%
%TO.N,GPIO1_D0_d*%
X69925000Y-37212500D03*
%TD*%
D11*
%TO.P,J4,11,Pin_11_11*%
%TO.N,GPIO1_C5_d*%
X69925000Y-54992500D03*
%TO.P,J4,10,Pin_10_10*%
%TO.N,GPIO1_C4_d*%
X67385000Y-54992500D03*
%TO.P,J4,9,Pin_9_9*%
%TO.N,GPIO1_C3_d*%
X64845000Y-54992500D03*
%TO.P,J4,8,Pin_8_8*%
%TO.N,GPIO1_C2_d*%
X62305000Y-54992500D03*
%TO.P,J4,7,Pin_7_7*%
%TO.N,GPIO1_C1_d*%
X59765000Y-54992500D03*
%TO.P,J4,6,Pin_6_6*%
%TO.N,GPIO1_C0_d*%
X57225000Y-54992500D03*
%TO.P,J4,5,Pin_5_5*%
%TO.N,GPIO1_B3_u*%
X54685000Y-54992500D03*
%TO.P,J4,4,Pin_4_4*%
%TO.N,GPIO1_B2_d*%
X52145000Y-54992500D03*
%TO.P,J4,3,Pin_3_3*%
%TO.N,3V3_OUT*%
X49605000Y-54992500D03*
%TO.P,J4,2,Pin_2_2*%
%TO.N,GND*%
X47065000Y-54992500D03*
D10*
%TO.P,J4,1,Pin_1_1*%
%TO.N,VCC_5V_GLOBAL*%
X44525000Y-54992500D03*
%TD*%
D27*
%TO.P,H4,1,1_1*%
%TO.N,GND*%
X45825000Y-31152500D03*
%TD*%
%TO.P,H1,1,1_1*%
%TO.N,GND*%
X108825000Y-94152500D03*
%TD*%
D10*
%TO.P,JP6,1,A_1*%
%TO.N,3V3*%
X70250000Y-116000000D03*
D11*
%TO.P,JP6,2,B_2*%
%TO.N,Net-(JP6-B)*%
X70250000Y-118540000D03*
%TD*%
D10*
%TO.P,JP5,1,A_1*%
%TO.N,3V3*%
X65660000Y-116000000D03*
D11*
%TO.P,JP5,2,B_2*%
%TO.N,Net-(JP5-B)*%
X65660000Y-118540000D03*
%TD*%
%TO.P,JP2,2,B_2*%
%TO.N,Net-(JP2-B)*%
X56160000Y-114440000D03*
D10*
%TO.P,JP2,1,A_1*%
%TO.N,3V3*%
X58700000Y-114440000D03*
%TD*%
D11*
%TO.P,JP1,2,B_2*%
%TO.N,Net-(JP1-B)*%
X56160000Y-111900000D03*
D10*
%TO.P,JP1,1,A_1*%
%TO.N,3V3*%
X58700000Y-111900000D03*
%TD*%
%TO.P,J12,1,Pin_1_1*%
%TO.N,VCC_5V_GLOBAL*%
X88025000Y-43727500D03*
D11*
%TO.P,J12,2,Pin_2_2*%
%TO.N,VCC_5V_USB*%
X88025000Y-41187500D03*
%TD*%
D29*
%TO.P,C7,1*%
%TO.N,3V3*%
X81125000Y-43652500D03*
%TO.P,C7,2*%
%TO.N,GND*%
X81125000Y-40527500D03*
%TD*%
D10*
%TO.P,UART1,1,Pin_1_1*%
%TO.N,GND*%
X109325000Y-40252500D03*
D11*
%TO.P,UART1,2,Pin_2_2*%
%TO.N,UART1-*%
X106785000Y-40252500D03*
%TO.P,UART1,3,Pin_3_3*%
%TO.N,UART1+*%
X104245000Y-40252500D03*
%TO.P,UART1,4,Pin_4_4*%
%TO.N,VCC_5V*%
X101705000Y-40252500D03*
%TD*%
D28*
%TO.P,C9,1*%
%TO.N,3V3*%
X110225000Y-43865000D03*
%TO.P,C9,2*%
%TO.N,GND*%
X110225000Y-45940000D03*
%TD*%
D29*
%TO.P,C5,1*%
%TO.N,VCC_5V_GLOBAL*%
X77525000Y-43652500D03*
%TO.P,C5,2*%
%TO.N,GND*%
X77525000Y-40527500D03*
%TD*%
D10*
%TO.P,JP3,1,A_1*%
%TO.N,3V3*%
X65720000Y-107060000D03*
D11*
%TO.P,JP3,2,B_2*%
%TO.N,Net-(JP3-B)*%
X65720000Y-109600000D03*
%TD*%
D10*
%TO.P,JP4,1,A_1*%
%TO.N,3V3*%
X68260000Y-107060000D03*
D11*
%TO.P,JP4,2,B_2*%
%TO.N,Net-(JP4-B)*%
X68260000Y-109600000D03*
%TD*%
D21*
%TO.P,R2,1*%
%TO.N,Net-(J1-CC2)*%
X100225000Y-45902500D03*
%TO.P,R2,2*%
%TO.N,GND*%
X100225000Y-43902500D03*
%TD*%
D28*
%TO.P,C2,1*%
%TO.N,ESP32_EN*%
X102725000Y-43865000D03*
%TO.P,C2,2*%
%TO.N,GND*%
X102725000Y-45940000D03*
%TD*%
%TO.P,C10,1*%
%TO.N,3V3*%
X107725000Y-43865000D03*
%TO.P,C10,2*%
%TO.N,GND*%
X107725000Y-45940000D03*
%TD*%
D30*
%TO.P,R10,1*%
%TO.N,3V3*%
X110725000Y-70552500D03*
%TO.P,R10,2*%
%TO.N,BOOT*%
X107625000Y-70552500D03*
%TD*%
D12*
%TO.P,J15,1,Pin_1_1*%
%TO.N,GND*%
X54225000Y-31652500D03*
D13*
%TO.P,J15,2,Pin_2_2*%
%TO.N,VCC_5V_BUCK*%
X59225000Y-31652500D03*
%TD*%
D31*
%TO.P,R4,1*%
%TO.N,Net-(D1-K)*%
X84725000Y-41452500D03*
%TO.P,R4,2*%
%TO.N,GND*%
X84725000Y-43452500D03*
%TD*%
D21*
%TO.P,R3,1*%
%TO.N,Net-(J1-CC1)*%
X97725000Y-45902500D03*
%TO.P,R3,2*%
%TO.N,GND*%
X97725000Y-43902500D03*
%TD*%
D10*
%TO.P,UART0,1,Pin_1_1*%
%TO.N,GND*%
X69370000Y-165170000D03*
D11*
%TO.P,UART0,2,Pin_2_2*%
%TO.N,UART0-*%
X66830000Y-165170000D03*
%TO.P,UART0,3,Pin_3_3*%
%TO.N,UART0+*%
X64290000Y-165170000D03*
%TO.P,UART0,4,Pin_4_4*%
%TO.N,VCC_5V*%
X61750000Y-165170000D03*
%TD*%
M02*
