%TF.GenerationSoftware,KiCad,Pcbnew,10.0.2*%
%TF.CreationDate,2026-05-19T12:57:41+02:00*%
%TF.ProjectId,PCB,5043422e-6b69-4636-9164-5f7063625858,rev?*%
%TF.SameCoordinates,Original*%
%TF.FileFunction,Paste,Top*%
%TF.FilePolarity,Positive*%
%FSLAX46Y46*%
G04 Gerber Fmt 4.6, Leading zero omitted, Abs format (unit mm)*
G04 Created by KiCad (PCBNEW 10.0.2) date 2026-05-19 12:57:41*
%MOMM*%
%LPD*%
G01*
G04 APERTURE LIST*
G04 Aperture macros list*
%AMRoundRect*
0 Rectangle with rounded corners*
0 $1 Rounding radius*
0 $2 $3 $4 $5 $6 $7 $8 $9 X,Y pos of 4 corners*
0 Add a 4 corners polygon primitive as box body*
4,1,4,$2,$3,$4,$5,$6,$7,$8,$9,$2,$3,0*
0 Add four circle primitives for the rounded corners*
1,1,$1+$1,$2,$3*
1,1,$1+$1,$4,$5*
1,1,$1+$1,$6,$7*
1,1,$1+$1,$8,$9*
0 Add four rect primitives between the rounded corners*
20,1,$1+$1,$2,$3,$4,$5,0*
20,1,$1+$1,$4,$5,$6,$7,0*
20,1,$1+$1,$6,$7,$8,$9,0*
20,1,$1+$1,$8,$9,$2,$3,0*%
G04 Aperture macros list end*
%ADD10RoundRect,0.250000X-0.625000X0.400000X-0.625000X-0.400000X0.625000X-0.400000X0.625000X0.400000X0*%
%ADD11RoundRect,0.150000X-0.150000X0.825000X-0.150000X-0.825000X0.150000X-0.825000X0.150000X0.825000X0*%
%ADD12RoundRect,0.240000X-0.385000X0.240000X-0.385000X-0.240000X0.385000X-0.240000X0.385000X0.240000X0*%
%ADD13RoundRect,0.150000X0.150000X0.575000X-0.150000X0.575000X-0.150000X-0.575000X0.150000X-0.575000X0*%
%ADD14RoundRect,0.075000X0.075000X0.650000X-0.075000X0.650000X-0.075000X-0.650000X0.075000X-0.650000X0*%
%ADD15R,0.900000X0.900000*%
%ADD16R,0.900000X1.500000*%
%ADD17R,1.500000X0.900000*%
%ADD18RoundRect,0.250000X1.050000X0.550000X-1.050000X0.550000X-1.050000X-0.550000X1.050000X-0.550000X0*%
%ADD19RoundRect,0.250000X0.475000X-0.337500X0.475000X0.337500X-0.475000X0.337500X-0.475000X-0.337500X0*%
%ADD20RoundRect,0.250000X-1.050000X-0.550000X1.050000X-0.550000X1.050000X0.550000X-1.050000X0.550000X0*%
%ADD21RoundRect,0.250000X0.550000X-1.050000X0.550000X1.050000X-0.550000X1.050000X-0.550000X-1.050000X0*%
%ADD22RoundRect,0.250000X-0.337500X-0.475000X0.337500X-0.475000X0.337500X0.475000X-0.337500X0.475000X0*%
%ADD23RoundRect,0.250000X0.337500X0.475000X-0.337500X0.475000X-0.337500X-0.475000X0.337500X-0.475000X0*%
%ADD24RoundRect,0.090000X-0.660000X-0.360000X0.660000X-0.360000X0.660000X0.360000X-0.660000X0.360000X0*%
%ADD25RoundRect,0.150000X-0.875000X-0.150000X0.875000X-0.150000X0.875000X0.150000X-0.875000X0.150000X0*%
%ADD26RoundRect,0.250000X-0.450000X0.325000X-0.450000X-0.325000X0.450000X-0.325000X0.450000X0.325000X0*%
%ADD27RoundRect,0.250000X-0.350000X-0.450000X0.350000X-0.450000X0.350000X0.450000X-0.350000X0.450000X0*%
%ADD28RoundRect,0.200000X0.200000X0.800000X-0.200000X0.800000X-0.200000X-0.800000X0.200000X-0.800000X0*%
%ADD29RoundRect,0.150000X-0.150000X0.512500X-0.150000X-0.512500X0.150000X-0.512500X0.150000X0.512500X0*%
%ADD30RoundRect,0.375000X-0.375000X0.625000X-0.375000X-0.625000X0.375000X-0.625000X0.375000X0.625000X0*%
%ADD31RoundRect,0.500000X-1.400000X0.500000X-1.400000X-0.500000X1.400000X-0.500000X1.400000X0.500000X0*%
G04 APERTURE END LIST*
D10*
%TO.C,R13*%
X65465000Y-89352500D03*
X65465000Y-92452500D03*
%TD*%
D11*
%TO.C,AO4407A1*%
X87230000Y-34697500D03*
X85960000Y-34697500D03*
X84690000Y-34697500D03*
X83420000Y-34697500D03*
X83420000Y-29747500D03*
X84690000Y-29747500D03*
X85960000Y-29747500D03*
X87230000Y-29747500D03*
D12*
X84575000Y-32792500D03*
X86075000Y-32792500D03*
X84575000Y-31652500D03*
X86075000Y-31652500D03*
%TD*%
D11*
%TO.C,AO4407A2*%
X80530000Y-34697500D03*
X79260000Y-34697500D03*
X77990000Y-34697500D03*
X76720000Y-34697500D03*
X76720000Y-29747500D03*
X77990000Y-29747500D03*
X79260000Y-29747500D03*
X80530000Y-29747500D03*
D12*
X77875000Y-32792500D03*
X79375000Y-32792500D03*
X77875000Y-31652500D03*
X79375000Y-31652500D03*
%TD*%
D13*
%TO.C,J1*%
X102375000Y-34617500D03*
X101575000Y-34617500D03*
D14*
X100875000Y-34617500D03*
X99875000Y-34617500D03*
X98375000Y-34617500D03*
X97375000Y-34617500D03*
D13*
X96675000Y-34617500D03*
X95875000Y-34617500D03*
X95875000Y-34617500D03*
X96675000Y-34617500D03*
D14*
X97875000Y-34617500D03*
X98875000Y-34617500D03*
X99375000Y-34617500D03*
X100375000Y-34617500D03*
D13*
X101575000Y-34617500D03*
X102375000Y-34617500D03*
%TD*%
D15*
%TO.C,U6*%
X101265000Y-55113106D03*
X104065000Y-55117500D03*
X102665000Y-55117500D03*
X101265000Y-56513106D03*
X104065000Y-56517500D03*
X102665000Y-56517500D03*
X101265000Y-57913106D03*
X104065000Y-57917500D03*
X102665000Y-57917500D03*
D16*
X110385000Y-49267500D03*
X109115000Y-49267500D03*
X107845000Y-49267500D03*
X106575000Y-49267500D03*
X105305000Y-49267500D03*
X104035000Y-49267500D03*
X102765000Y-49267500D03*
X101495000Y-49267500D03*
X100225000Y-49267500D03*
X98955000Y-49267500D03*
X97685000Y-49267500D03*
X96415000Y-49267500D03*
X95145000Y-49267500D03*
X93875000Y-49267500D03*
D17*
X92625000Y-51032501D03*
X92625000Y-52302500D03*
X92625000Y-53572500D03*
X92625001Y-54842500D03*
X92625000Y-56112500D03*
X92625000Y-57382500D03*
X92625000Y-58652500D03*
X92625000Y-59922500D03*
X92625001Y-61192500D03*
X92625000Y-62462500D03*
X92625000Y-63732500D03*
X92625000Y-65002499D03*
D16*
X93875000Y-66767500D03*
X95145000Y-66767500D03*
X96415000Y-66767500D03*
X97685000Y-66767500D03*
X98955000Y-66767500D03*
X100225000Y-66767500D03*
X101495000Y-66767500D03*
X102765000Y-66767500D03*
X104035000Y-66767500D03*
X105305000Y-66767500D03*
X106575000Y-66767500D03*
X107845000Y-66767500D03*
X109115000Y-66767500D03*
X110385000Y-66767500D03*
%TD*%
D18*
%TO.C,C15*%
X73250000Y-73790000D03*
X76850000Y-73790000D03*
%TD*%
D19*
%TO.C,C3*%
X73750000Y-67852500D03*
X73750000Y-69927500D03*
%TD*%
%TO.C,C11*%
X76250000Y-67752500D03*
X76250000Y-69827500D03*
%TD*%
D20*
%TO.C,C13*%
X76850000Y-63590000D03*
X73250000Y-63590000D03*
%TD*%
D21*
%TO.C,C14*%
X80762500Y-84752500D03*
X80762500Y-88352500D03*
%TD*%
D22*
%TO.C,C1*%
X86800000Y-85952500D03*
X84725000Y-85952500D03*
%TD*%
D23*
%TO.C,C8*%
X84725000Y-88252500D03*
X86800000Y-88252500D03*
%TD*%
D21*
%TO.C,C6*%
X90962500Y-88732500D03*
X90962500Y-85132500D03*
%TD*%
D24*
%TO.C,D6*%
X81300000Y-142200000D03*
X81300000Y-145500000D03*
X76400000Y-145500000D03*
X76400000Y-142200000D03*
%TD*%
D20*
%TO.C,C16*%
X56525000Y-67302500D03*
X52925000Y-67302500D03*
%TD*%
D25*
%TO.C,U10*%
X60925000Y-40752500D03*
X60925000Y-42022500D03*
X60925000Y-43292500D03*
X60925000Y-44562500D03*
X60925000Y-45832500D03*
X60925000Y-47102500D03*
X60925000Y-48372500D03*
X60925000Y-49642500D03*
X60925000Y-50912500D03*
X51625000Y-50912500D03*
X51625000Y-49642500D03*
X51625000Y-48372500D03*
X51625000Y-47102500D03*
X51625000Y-45832500D03*
X51625000Y-44562500D03*
X51625000Y-43292500D03*
X51625000Y-42022500D03*
X51625000Y-40752500D03*
%TD*%
D23*
%TO.C,C17*%
X44737500Y-51082500D03*
X46812500Y-51082500D03*
%TD*%
D26*
%TO.C,D1*%
X84725000Y-41477500D03*
X84725000Y-43527500D03*
%TD*%
D27*
%TO.C,R7*%
X62500000Y-155200000D03*
X64500000Y-155200000D03*
%TD*%
D28*
%TO.C,SW1*%
X111275000Y-70552500D03*
X107075000Y-70552500D03*
%TD*%
D29*
%TO.C,U2*%
X91875000Y-31235000D03*
X90925000Y-31235000D03*
X89975000Y-31235000D03*
X89975000Y-33510000D03*
X90925000Y-33510000D03*
X91875000Y-33510000D03*
%TD*%
%TO.C,U3*%
X73675000Y-31315000D03*
X72725000Y-31315000D03*
X71775000Y-31315000D03*
X71775000Y-33590000D03*
X72725000Y-33590000D03*
X73675000Y-33590000D03*
%TD*%
D27*
%TO.C,R5*%
X62500000Y-149300000D03*
X64500000Y-149300000D03*
%TD*%
%TO.C,R6*%
X62500000Y-152250000D03*
X64500000Y-152250000D03*
%TD*%
%TO.C,R8*%
X62500000Y-158150000D03*
X64500000Y-158150000D03*
%TD*%
D28*
%TO.C,SW2*%
X110975000Y-45152500D03*
X106775000Y-45152500D03*
%TD*%
D30*
%TO.C,U4*%
X81525000Y-39440000D03*
X79225000Y-39440000D03*
D31*
X79225000Y-45740000D03*
D30*
X76925000Y-39440000D03*
%TD*%
M02*
