%TF.GenerationSoftware,KiCad,Pcbnew,8.0.1*%
%TF.CreationDate,2025-04-29T20:59:45+01:00*%
%TF.ProjectId,PCB,5043422e-6b69-4636-9164-5f7063625858,rev?*%
%TF.SameCoordinates,Original*%
%TF.FileFunction,Drillmap*%
%TF.FilePolarity,Positive*%
%FSLAX45Y45*%
G04 Gerber Fmt 4.5, Leading zero omitted, Abs format (unit mm)*
G04 Created by KiCad (PCBNEW 8.0.1) date 2025-04-29 20:59:45*
%MOMM*%
%LPD*%
G01*
G04 APERTURE LIST*
%ADD10C,0.050000*%
%ADD11C,0.200000*%
%ADD12C,0.100000*%
%ADD13C,0.320000*%
G04 APERTURE END LIST*
D10*
X12648916Y-11036355D02*
X12958720Y-11329412D01*
X14900000Y-9460000D02*
X13820000Y-9460000D01*
X12580196Y-11009002D02*
G75*
G02*
X12648914Y-11036357I4J-99979D01*
G01*
X12791247Y-11929280D02*
G75*
G02*
X12746202Y-11940001I-45047J89280D01*
G01*
X17025000Y-13150000D02*
X11625000Y-13150000D01*
X15000000Y-9360000D02*
G75*
G02*
X14900000Y-9460000I-100000J0D01*
G01*
X12990000Y-11402059D02*
X12990000Y-11767448D01*
D11*
X13260000Y-10520000D02*
G75*
G02*
X13020000Y-10520000I-120000J0D01*
G01*
X13020000Y-10520000D02*
G75*
G02*
X13260000Y-10520000I120000J0D01*
G01*
D10*
X12300000Y-11840000D02*
X12300000Y-11109002D01*
X17025000Y-7150000D02*
G75*
G02*
X17325000Y-7450000I0J-300000D01*
G01*
X12300000Y-11109002D02*
G75*
G02*
X12400000Y-11009000I100000J2D01*
G01*
X11625000Y-7150000D02*
X17025000Y-7150000D01*
D11*
X13260000Y-12900000D02*
G75*
G02*
X13020000Y-12900000I-120000J0D01*
G01*
X13020000Y-12900000D02*
G75*
G02*
X13260000Y-12900000I120000J0D01*
G01*
D10*
X11325000Y-7450000D02*
G75*
G02*
X11625000Y-7150000I300000J0D01*
G01*
X14900000Y-8000000D02*
G75*
G02*
X15000000Y-8100000I0J-100000D01*
G01*
X13720000Y-8100000D02*
G75*
G02*
X13820000Y-8000000I100000J0D01*
G01*
X11625000Y-13150000D02*
G75*
G02*
X11325000Y-12850000I0J300000D01*
G01*
X15000000Y-8100000D02*
X15000000Y-9360000D01*
X12990000Y-11767448D02*
G75*
G02*
X12935043Y-11856725I-99990J-2D01*
G01*
D11*
X15610000Y-12900000D02*
G75*
G02*
X15370000Y-12900000I-120000J0D01*
G01*
X15370000Y-12900000D02*
G75*
G02*
X15610000Y-12900000I120000J0D01*
G01*
D10*
X17325000Y-7450000D02*
X17325000Y-12850000D01*
X12746202Y-11940000D02*
X12400000Y-11940000D01*
D11*
X15610000Y-10520000D02*
G75*
G02*
X15370000Y-10520000I-120000J0D01*
G01*
X15370000Y-10520000D02*
G75*
G02*
X15610000Y-10520000I120000J0D01*
G01*
D10*
X13720000Y-9360000D02*
X13720000Y-8100000D01*
X13820000Y-8000000D02*
X14900000Y-8000000D01*
X12935045Y-11856728D02*
X12791247Y-11929280D01*
X17325000Y-12850000D02*
G75*
G02*
X17025000Y-13150000I-300000J0D01*
G01*
X11325000Y-12850000D02*
X11325000Y-7450000D01*
X12400000Y-11009002D02*
X12580196Y-11009002D01*
X13820000Y-9460000D02*
G75*
G02*
X13720000Y-9360000I0J100000D01*
G01*
X12958720Y-11329412D02*
G75*
G02*
X12990001Y-11402059I-68720J-72648D01*
G01*
X12400000Y-11940000D02*
G75*
G02*
X12300000Y-11840000I0J100000D01*
G01*
D11*
D12*
X14315000Y-12138000D02*
X14335000Y-12158000D01*
X14335000Y-12138000D02*
X14315000Y-12158000D01*
X14315000Y-12278000D02*
X14335000Y-12298000D01*
X14335000Y-12278000D02*
X14315000Y-12298000D01*
X14385000Y-12068000D02*
X14405000Y-12088000D01*
X14405000Y-12068000D02*
X14385000Y-12088000D01*
X14385000Y-12208000D02*
X14405000Y-12228000D01*
X14405000Y-12208000D02*
X14385000Y-12228000D01*
X14385000Y-12348000D02*
X14405000Y-12368000D01*
X14405000Y-12348000D02*
X14385000Y-12368000D01*
X14455000Y-12138000D02*
X14475000Y-12158000D01*
X14475000Y-12138000D02*
X14455000Y-12158000D01*
X14455000Y-12278000D02*
X14475000Y-12298000D01*
X14475000Y-12278000D02*
X14455000Y-12298000D01*
X14525000Y-12068000D02*
X14545000Y-12088000D01*
X14545000Y-12068000D02*
X14525000Y-12088000D01*
X14525000Y-12208000D02*
X14545000Y-12228000D01*
X14545000Y-12208000D02*
X14525000Y-12228000D01*
X14525000Y-12348000D02*
X14545000Y-12368000D01*
X14545000Y-12348000D02*
X14525000Y-12368000D01*
X14595000Y-12138000D02*
X14615000Y-12158000D01*
X14615000Y-12138000D02*
X14595000Y-12158000D01*
X14595000Y-12278000D02*
X14615000Y-12298000D01*
X14615000Y-12278000D02*
X14595000Y-12298000D01*
X11435000Y-9730000D02*
G75*
G02*
X11405000Y-9730000I-15000J0D01*
G01*
X11405000Y-9730000D02*
G75*
G02*
X11435000Y-9730000I15000J0D01*
G01*
X11440000Y-12425000D02*
G75*
G02*
X11410000Y-12425000I-15000J0D01*
G01*
X11410000Y-12425000D02*
G75*
G02*
X11440000Y-12425000I15000J0D01*
G01*
X11445000Y-7860000D02*
G75*
G02*
X11415000Y-7860000I-15000J0D01*
G01*
X11415000Y-7860000D02*
G75*
G02*
X11445000Y-7860000I15000J0D01*
G01*
X11445000Y-9240000D02*
G75*
G02*
X11415000Y-9240000I-15000J0D01*
G01*
X11415000Y-9240000D02*
G75*
G02*
X11445000Y-9240000I15000J0D01*
G01*
X11450080Y-8300720D02*
G75*
G02*
X11420080Y-8300720I-15000J0D01*
G01*
X11420080Y-8300720D02*
G75*
G02*
X11450080Y-8300720I15000J0D01*
G01*
X11450080Y-8371840D02*
G75*
G02*
X11420080Y-8371840I-15000J0D01*
G01*
X11420080Y-8371840D02*
G75*
G02*
X11450080Y-8371840I15000J0D01*
G01*
X11450080Y-8442960D02*
G75*
G02*
X11420080Y-8442960I-15000J0D01*
G01*
X11420080Y-8442960D02*
G75*
G02*
X11450080Y-8442960I15000J0D01*
G01*
X11450080Y-8519160D02*
G75*
G02*
X11420080Y-8519160I-15000J0D01*
G01*
X11420080Y-8519160D02*
G75*
G02*
X11450080Y-8519160I15000J0D01*
G01*
X11450080Y-8590280D02*
G75*
G02*
X11420080Y-8590280I-15000J0D01*
G01*
X11420080Y-8590280D02*
G75*
G02*
X11450080Y-8590280I15000J0D01*
G01*
X11450080Y-8666480D02*
G75*
G02*
X11420080Y-8666480I-15000J0D01*
G01*
X11420080Y-8666480D02*
G75*
G02*
X11450080Y-8666480I15000J0D01*
G01*
X11450080Y-8737600D02*
G75*
G02*
X11420080Y-8737600I-15000J0D01*
G01*
X11420080Y-8737600D02*
G75*
G02*
X11450080Y-8737600I15000J0D01*
G01*
X11475000Y-9650000D02*
G75*
G02*
X11445000Y-9650000I-15000J0D01*
G01*
X11445000Y-9650000D02*
G75*
G02*
X11475000Y-9650000I15000J0D01*
G01*
X11535000Y-10480000D02*
G75*
G02*
X11505000Y-10480000I-15000J0D01*
G01*
X11505000Y-10480000D02*
G75*
G02*
X11535000Y-10480000I15000J0D01*
G01*
X11555000Y-9610000D02*
G75*
G02*
X11525000Y-9610000I-15000J0D01*
G01*
X11525000Y-9610000D02*
G75*
G02*
X11555000Y-9610000I15000J0D01*
G01*
X11605000Y-10480000D02*
G75*
G02*
X11575000Y-10480000I-15000J0D01*
G01*
X11575000Y-10480000D02*
G75*
G02*
X11605000Y-10480000I15000J0D01*
G01*
X11673600Y-10480040D02*
G75*
G02*
X11643600Y-10480040I-15000J0D01*
G01*
X11643600Y-10480040D02*
G75*
G02*
X11673600Y-10480040I15000J0D01*
G01*
X11695000Y-12110000D02*
G75*
G02*
X11665000Y-12110000I-15000J0D01*
G01*
X11665000Y-12110000D02*
G75*
G02*
X11695000Y-12110000I15000J0D01*
G01*
X11705000Y-7930000D02*
G75*
G02*
X11675000Y-7930000I-15000J0D01*
G01*
X11675000Y-7930000D02*
G75*
G02*
X11705000Y-7930000I15000J0D01*
G01*
X11705000Y-9790000D02*
G75*
G02*
X11675000Y-9790000I-15000J0D01*
G01*
X11675000Y-9790000D02*
G75*
G02*
X11705000Y-9790000I15000J0D01*
G01*
X11705000Y-12410000D02*
G75*
G02*
X11675000Y-12410000I-15000J0D01*
G01*
X11675000Y-12410000D02*
G75*
G02*
X11705000Y-12410000I15000J0D01*
G01*
X11755000Y-9730000D02*
G75*
G02*
X11725000Y-9730000I-15000J0D01*
G01*
X11725000Y-9730000D02*
G75*
G02*
X11755000Y-9730000I15000J0D01*
G01*
X11825000Y-9670000D02*
G75*
G02*
X11795000Y-9670000I-15000J0D01*
G01*
X11795000Y-9670000D02*
G75*
G02*
X11825000Y-9670000I15000J0D01*
G01*
X11835000Y-8340000D02*
G75*
G02*
X11805000Y-8340000I-15000J0D01*
G01*
X11805000Y-8340000D02*
G75*
G02*
X11835000Y-8340000I15000J0D01*
G01*
X11932500Y-8302500D02*
G75*
G02*
X11902500Y-8302500I-15000J0D01*
G01*
X11902500Y-8302500D02*
G75*
G02*
X11932500Y-8302500I15000J0D01*
G01*
X11945000Y-12110000D02*
G75*
G02*
X11915000Y-12110000I-15000J0D01*
G01*
X11915000Y-12110000D02*
G75*
G02*
X11945000Y-12110000I15000J0D01*
G01*
X12005000Y-12500000D02*
G75*
G02*
X11975000Y-12500000I-15000J0D01*
G01*
X11975000Y-12500000D02*
G75*
G02*
X12005000Y-12500000I15000J0D01*
G01*
X12015000Y-7875000D02*
G75*
G02*
X11985000Y-7875000I-15000J0D01*
G01*
X11985000Y-7875000D02*
G75*
G02*
X12015000Y-7875000I15000J0D01*
G01*
X12015000Y-13050000D02*
G75*
G02*
X11985000Y-13050000I-15000J0D01*
G01*
X11985000Y-13050000D02*
G75*
G02*
X12015000Y-13050000I15000J0D01*
G01*
X12075000Y-9210000D02*
G75*
G02*
X12045000Y-9210000I-15000J0D01*
G01*
X12045000Y-9210000D02*
G75*
G02*
X12075000Y-9210000I15000J0D01*
G01*
X12085000Y-7260000D02*
G75*
G02*
X12055000Y-7260000I-15000J0D01*
G01*
X12055000Y-7260000D02*
G75*
G02*
X12085000Y-7260000I15000J0D01*
G01*
X12135000Y-7430000D02*
G75*
G02*
X12105000Y-7430000I-15000J0D01*
G01*
X12105000Y-7430000D02*
G75*
G02*
X12135000Y-7430000I15000J0D01*
G01*
X12155000Y-8030000D02*
G75*
G02*
X12125000Y-8030000I-15000J0D01*
G01*
X12125000Y-8030000D02*
G75*
G02*
X12155000Y-8030000I15000J0D01*
G01*
X12155000Y-8290000D02*
G75*
G02*
X12125000Y-8290000I-15000J0D01*
G01*
X12125000Y-8290000D02*
G75*
G02*
X12155000Y-8290000I15000J0D01*
G01*
X12165000Y-7640000D02*
G75*
G02*
X12135000Y-7640000I-15000J0D01*
G01*
X12135000Y-7640000D02*
G75*
G02*
X12165000Y-7640000I15000J0D01*
G01*
X12165000Y-9210000D02*
G75*
G02*
X12135000Y-9210000I-15000J0D01*
G01*
X12135000Y-9210000D02*
G75*
G02*
X12165000Y-9210000I15000J0D01*
G01*
X12185000Y-8360000D02*
G75*
G02*
X12155000Y-8360000I-15000J0D01*
G01*
X12155000Y-8360000D02*
G75*
G02*
X12185000Y-8360000I15000J0D01*
G01*
X12205000Y-13040000D02*
G75*
G02*
X12175000Y-13040000I-15000J0D01*
G01*
X12175000Y-13040000D02*
G75*
G02*
X12205000Y-13040000I15000J0D01*
G01*
X12225000Y-7800000D02*
G75*
G02*
X12195000Y-7800000I-15000J0D01*
G01*
X12195000Y-7800000D02*
G75*
G02*
X12225000Y-7800000I15000J0D01*
G01*
X12245000Y-7930000D02*
G75*
G02*
X12215000Y-7930000I-15000J0D01*
G01*
X12215000Y-7930000D02*
G75*
G02*
X12245000Y-7930000I15000J0D01*
G01*
X12255000Y-9210000D02*
G75*
G02*
X12225000Y-9210000I-15000J0D01*
G01*
X12225000Y-9210000D02*
G75*
G02*
X12255000Y-9210000I15000J0D01*
G01*
X12275000Y-8360000D02*
G75*
G02*
X12245000Y-8360000I-15000J0D01*
G01*
X12245000Y-8360000D02*
G75*
G02*
X12275000Y-8360000I15000J0D01*
G01*
X12313680Y-12232640D02*
G75*
G02*
X12283680Y-12232640I-15000J0D01*
G01*
X12283680Y-12232640D02*
G75*
G02*
X12313680Y-12232640I15000J0D01*
G01*
X12339080Y-12151360D02*
G75*
G02*
X12309080Y-12151360I-15000J0D01*
G01*
X12309080Y-12151360D02*
G75*
G02*
X12339080Y-12151360I15000J0D01*
G01*
X12345000Y-9210000D02*
G75*
G02*
X12315000Y-9210000I-15000J0D01*
G01*
X12315000Y-9210000D02*
G75*
G02*
X12345000Y-9210000I15000J0D01*
G01*
X12365000Y-8360000D02*
G75*
G02*
X12335000Y-8360000I-15000J0D01*
G01*
X12335000Y-8360000D02*
G75*
G02*
X12365000Y-8360000I15000J0D01*
G01*
X12365000Y-12710000D02*
G75*
G02*
X12335000Y-12710000I-15000J0D01*
G01*
X12335000Y-12710000D02*
G75*
G02*
X12365000Y-12710000I15000J0D01*
G01*
X12415000Y-8030000D02*
G75*
G02*
X12385000Y-8030000I-15000J0D01*
G01*
X12385000Y-8030000D02*
G75*
G02*
X12415000Y-8030000I15000J0D01*
G01*
X12415000Y-8290000D02*
G75*
G02*
X12385000Y-8290000I-15000J0D01*
G01*
X12385000Y-8290000D02*
G75*
G02*
X12415000Y-8290000I15000J0D01*
G01*
X12435000Y-9210000D02*
G75*
G02*
X12405000Y-9210000I-15000J0D01*
G01*
X12405000Y-9210000D02*
G75*
G02*
X12435000Y-9210000I15000J0D01*
G01*
X12455000Y-8360000D02*
G75*
G02*
X12425000Y-8360000I-15000J0D01*
G01*
X12425000Y-8360000D02*
G75*
G02*
X12455000Y-8360000I15000J0D01*
G01*
X12525000Y-9210000D02*
G75*
G02*
X12495000Y-9210000I-15000J0D01*
G01*
X12495000Y-9210000D02*
G75*
G02*
X12525000Y-9210000I15000J0D01*
G01*
X12545000Y-8360000D02*
G75*
G02*
X12515000Y-8360000I-15000J0D01*
G01*
X12515000Y-8360000D02*
G75*
G02*
X12545000Y-8360000I15000J0D01*
G01*
X12615000Y-9210000D02*
G75*
G02*
X12585000Y-9210000I-15000J0D01*
G01*
X12585000Y-9210000D02*
G75*
G02*
X12615000Y-9210000I15000J0D01*
G01*
X12625000Y-12705000D02*
G75*
G02*
X12595000Y-12705000I-15000J0D01*
G01*
X12595000Y-12705000D02*
G75*
G02*
X12625000Y-12705000I15000J0D01*
G01*
X12635000Y-8360000D02*
G75*
G02*
X12605000Y-8360000I-15000J0D01*
G01*
X12605000Y-8360000D02*
G75*
G02*
X12635000Y-8360000I15000J0D01*
G01*
X12665000Y-8020000D02*
G75*
G02*
X12635000Y-8020000I-15000J0D01*
G01*
X12635000Y-8020000D02*
G75*
G02*
X12665000Y-8020000I15000J0D01*
G01*
X12665000Y-8280000D02*
G75*
G02*
X12635000Y-8280000I-15000J0D01*
G01*
X12635000Y-8280000D02*
G75*
G02*
X12665000Y-8280000I15000J0D01*
G01*
X12705000Y-9210000D02*
G75*
G02*
X12675000Y-9210000I-15000J0D01*
G01*
X12675000Y-9210000D02*
G75*
G02*
X12705000Y-9210000I15000J0D01*
G01*
X12715000Y-12933680D02*
G75*
G02*
X12685000Y-12933680I-15000J0D01*
G01*
X12685000Y-12933680D02*
G75*
G02*
X12715000Y-12933680I15000J0D01*
G01*
X12745000Y-7560000D02*
G75*
G02*
X12715000Y-7560000I-15000J0D01*
G01*
X12715000Y-7560000D02*
G75*
G02*
X12745000Y-7560000I15000J0D01*
G01*
X12786120Y-11008360D02*
G75*
G02*
X12756120Y-11008360I-15000J0D01*
G01*
X12756120Y-11008360D02*
G75*
G02*
X12786120Y-11008360I15000J0D01*
G01*
X12805000Y-9210000D02*
G75*
G02*
X12775000Y-9210000I-15000J0D01*
G01*
X12775000Y-9210000D02*
G75*
G02*
X12805000Y-9210000I15000J0D01*
G01*
X12845000Y-10220000D02*
G75*
G02*
X12815000Y-10220000I-15000J0D01*
G01*
X12815000Y-10220000D02*
G75*
G02*
X12845000Y-10220000I15000J0D01*
G01*
X12885000Y-9250000D02*
G75*
G02*
X12855000Y-9250000I-15000J0D01*
G01*
X12855000Y-9250000D02*
G75*
G02*
X12885000Y-9250000I15000J0D01*
G01*
X12887483Y-11018757D02*
G75*
G02*
X12857483Y-11018757I-15000J0D01*
G01*
X12857483Y-11018757D02*
G75*
G02*
X12887483Y-11018757I15000J0D01*
G01*
X12925000Y-8030000D02*
G75*
G02*
X12895000Y-8030000I-15000J0D01*
G01*
X12895000Y-8030000D02*
G75*
G02*
X12925000Y-8030000I15000J0D01*
G01*
X12925000Y-8270000D02*
G75*
G02*
X12895000Y-8270000I-15000J0D01*
G01*
X12895000Y-8270000D02*
G75*
G02*
X12925000Y-8270000I15000J0D01*
G01*
X12935000Y-9300000D02*
G75*
G02*
X12905000Y-9300000I-15000J0D01*
G01*
X12905000Y-9300000D02*
G75*
G02*
X12935000Y-9300000I15000J0D01*
G01*
X12935000Y-12620000D02*
G75*
G02*
X12905000Y-12620000I-15000J0D01*
G01*
X12905000Y-12620000D02*
G75*
G02*
X12935000Y-12620000I15000J0D01*
G01*
X12963920Y-12049760D02*
G75*
G02*
X12933920Y-12049760I-15000J0D01*
G01*
X12933920Y-12049760D02*
G75*
G02*
X12963920Y-12049760I15000J0D01*
G01*
X12985000Y-7590000D02*
G75*
G02*
X12955000Y-7590000I-15000J0D01*
G01*
X12955000Y-7590000D02*
G75*
G02*
X12985000Y-7590000I15000J0D01*
G01*
X12985700Y-11929300D02*
G75*
G02*
X12955700Y-11929300I-15000J0D01*
G01*
X12955700Y-11929300D02*
G75*
G02*
X12985700Y-11929300I15000J0D01*
G01*
X12985789Y-11032211D02*
G75*
G02*
X12955789Y-11032211I-15000J0D01*
G01*
X12955789Y-11032211D02*
G75*
G02*
X12985789Y-11032211I15000J0D01*
G01*
X13095000Y-7650000D02*
G75*
G02*
X13065000Y-7650000I-15000J0D01*
G01*
X13065000Y-7650000D02*
G75*
G02*
X13095000Y-7650000I15000J0D01*
G01*
X13175000Y-8020000D02*
G75*
G02*
X13145000Y-8020000I-15000J0D01*
G01*
X13145000Y-8020000D02*
G75*
G02*
X13175000Y-8020000I15000J0D01*
G01*
X13175000Y-8270000D02*
G75*
G02*
X13145000Y-8270000I-15000J0D01*
G01*
X13145000Y-8270000D02*
G75*
G02*
X13175000Y-8270000I15000J0D01*
G01*
X13175000Y-9530000D02*
G75*
G02*
X13145000Y-9530000I-15000J0D01*
G01*
X13145000Y-9530000D02*
G75*
G02*
X13175000Y-9530000I15000J0D01*
G01*
X13203092Y-10151538D02*
G75*
G02*
X13173092Y-10151538I-15000J0D01*
G01*
X13173092Y-10151538D02*
G75*
G02*
X13203092Y-10151538I15000J0D01*
G01*
X13205000Y-10920000D02*
G75*
G02*
X13175000Y-10920000I-15000J0D01*
G01*
X13175000Y-10920000D02*
G75*
G02*
X13205000Y-10920000I15000J0D01*
G01*
X13235000Y-12380000D02*
G75*
G02*
X13205000Y-12380000I-15000J0D01*
G01*
X13205000Y-12380000D02*
G75*
G02*
X13235000Y-12380000I15000J0D01*
G01*
X13241733Y-10221587D02*
G75*
G02*
X13211733Y-10221587I-15000J0D01*
G01*
X13211733Y-10221587D02*
G75*
G02*
X13241733Y-10221587I15000J0D01*
G01*
X13275000Y-11060000D02*
G75*
G02*
X13245000Y-11060000I-15000J0D01*
G01*
X13245000Y-11060000D02*
G75*
G02*
X13275000Y-11060000I15000J0D01*
G01*
X13295000Y-11435000D02*
G75*
G02*
X13265000Y-11435000I-15000J0D01*
G01*
X13265000Y-11435000D02*
G75*
G02*
X13295000Y-11435000I15000J0D01*
G01*
X13295000Y-11530000D02*
G75*
G02*
X13265000Y-11530000I-15000J0D01*
G01*
X13265000Y-11530000D02*
G75*
G02*
X13295000Y-11530000I15000J0D01*
G01*
X13325000Y-10130000D02*
G75*
G02*
X13295000Y-10130000I-15000J0D01*
G01*
X13295000Y-10130000D02*
G75*
G02*
X13325000Y-10130000I15000J0D01*
G01*
X13425000Y-10110000D02*
G75*
G02*
X13395000Y-10110000I-15000J0D01*
G01*
X13395000Y-10110000D02*
G75*
G02*
X13425000Y-10110000I15000J0D01*
G01*
X13443713Y-10791287D02*
G75*
G02*
X13413713Y-10791287I-15000J0D01*
G01*
X13413713Y-10791287D02*
G75*
G02*
X13443713Y-10791287I15000J0D01*
G01*
X13525000Y-10170000D02*
G75*
G02*
X13495000Y-10170000I-15000J0D01*
G01*
X13495000Y-10170000D02*
G75*
G02*
X13525000Y-10170000I15000J0D01*
G01*
X13555000Y-7870000D02*
G75*
G02*
X13525000Y-7870000I-15000J0D01*
G01*
X13525000Y-7870000D02*
G75*
G02*
X13555000Y-7870000I15000J0D01*
G01*
X13575000Y-10395830D02*
G75*
G02*
X13545000Y-10395830I-15000J0D01*
G01*
X13545000Y-10395830D02*
G75*
G02*
X13575000Y-10395830I15000J0D01*
G01*
X13605000Y-9800000D02*
G75*
G02*
X13575000Y-9800000I-15000J0D01*
G01*
X13575000Y-9800000D02*
G75*
G02*
X13605000Y-9800000I15000J0D01*
G01*
X13624320Y-12994640D02*
G75*
G02*
X13594320Y-12994640I-15000J0D01*
G01*
X13594320Y-12994640D02*
G75*
G02*
X13624320Y-12994640I15000J0D01*
G01*
X13625000Y-7820000D02*
G75*
G02*
X13595000Y-7820000I-15000J0D01*
G01*
X13595000Y-7820000D02*
G75*
G02*
X13625000Y-7820000I15000J0D01*
G01*
X13641051Y-10343741D02*
G75*
G02*
X13611051Y-10343741I-15000J0D01*
G01*
X13611051Y-10343741D02*
G75*
G02*
X13641051Y-10343741I15000J0D01*
G01*
X13654800Y-12857480D02*
G75*
G02*
X13624800Y-12857480I-15000J0D01*
G01*
X13624800Y-12857480D02*
G75*
G02*
X13654800Y-12857480I15000J0D01*
G01*
X13655000Y-11720000D02*
G75*
G02*
X13625000Y-11720000I-15000J0D01*
G01*
X13625000Y-11720000D02*
G75*
G02*
X13655000Y-11720000I15000J0D01*
G01*
X13655000Y-11840000D02*
G75*
G02*
X13625000Y-11840000I-15000J0D01*
G01*
X13625000Y-11840000D02*
G75*
G02*
X13655000Y-11840000I15000J0D01*
G01*
X13655000Y-12240000D02*
G75*
G02*
X13625000Y-12240000I-15000J0D01*
G01*
X13625000Y-12240000D02*
G75*
G02*
X13655000Y-12240000I15000J0D01*
G01*
X13655000Y-12340000D02*
G75*
G02*
X13625000Y-12340000I-15000J0D01*
G01*
X13625000Y-12340000D02*
G75*
G02*
X13655000Y-12340000I15000J0D01*
G01*
X13665000Y-9890000D02*
G75*
G02*
X13635000Y-9890000I-15000J0D01*
G01*
X13635000Y-9890000D02*
G75*
G02*
X13665000Y-9890000I15000J0D01*
G01*
X13695000Y-10440000D02*
G75*
G02*
X13665000Y-10440000I-15000J0D01*
G01*
X13665000Y-10440000D02*
G75*
G02*
X13695000Y-10440000I15000J0D01*
G01*
X13715000Y-11390000D02*
G75*
G02*
X13685000Y-11390000I-15000J0D01*
G01*
X13685000Y-11390000D02*
G75*
G02*
X13715000Y-11390000I15000J0D01*
G01*
X13755000Y-7610000D02*
G75*
G02*
X13725000Y-7610000I-15000J0D01*
G01*
X13725000Y-7610000D02*
G75*
G02*
X13755000Y-7610000I15000J0D01*
G01*
X13755000Y-10010000D02*
G75*
G02*
X13725000Y-10010000I-15000J0D01*
G01*
X13725000Y-10010000D02*
G75*
G02*
X13755000Y-10010000I15000J0D01*
G01*
X13790000Y-12700000D02*
G75*
G02*
X13760000Y-12700000I-15000J0D01*
G01*
X13760000Y-12700000D02*
G75*
G02*
X13790000Y-12700000I15000J0D01*
G01*
X13790000Y-12780000D02*
G75*
G02*
X13760000Y-12780000I-15000J0D01*
G01*
X13760000Y-12780000D02*
G75*
G02*
X13790000Y-12780000I15000J0D01*
G01*
X13790000Y-12865000D02*
G75*
G02*
X13760000Y-12865000I-15000J0D01*
G01*
X13760000Y-12865000D02*
G75*
G02*
X13790000Y-12865000I15000J0D01*
G01*
X13805000Y-10070000D02*
G75*
G02*
X13775000Y-10070000I-15000J0D01*
G01*
X13775000Y-10070000D02*
G75*
G02*
X13805000Y-10070000I15000J0D01*
G01*
X13810000Y-10800000D02*
G75*
G02*
X13780000Y-10800000I-15000J0D01*
G01*
X13780000Y-10800000D02*
G75*
G02*
X13810000Y-10800000I15000J0D01*
G01*
X13884623Y-10180377D02*
G75*
G02*
X13854623Y-10180377I-15000J0D01*
G01*
X13854623Y-10180377D02*
G75*
G02*
X13884623Y-10180377I15000J0D01*
G01*
X13885000Y-10070000D02*
G75*
G02*
X13855000Y-10070000I-15000J0D01*
G01*
X13855000Y-10070000D02*
G75*
G02*
X13885000Y-10070000I15000J0D01*
G01*
X13895000Y-7487426D02*
G75*
G02*
X13865000Y-7487426I-15000J0D01*
G01*
X13865000Y-7487426D02*
G75*
G02*
X13895000Y-7487426I15000J0D01*
G01*
X13915000Y-7900000D02*
G75*
G02*
X13885000Y-7900000I-15000J0D01*
G01*
X13885000Y-7900000D02*
G75*
G02*
X13915000Y-7900000I15000J0D01*
G01*
X13950000Y-12700000D02*
G75*
G02*
X13920000Y-12700000I-15000J0D01*
G01*
X13920000Y-12700000D02*
G75*
G02*
X13950000Y-12700000I15000J0D01*
G01*
X13950000Y-12780000D02*
G75*
G02*
X13920000Y-12780000I-15000J0D01*
G01*
X13920000Y-12780000D02*
G75*
G02*
X13950000Y-12780000I15000J0D01*
G01*
X13950000Y-12865000D02*
G75*
G02*
X13920000Y-12865000I-15000J0D01*
G01*
X13920000Y-12865000D02*
G75*
G02*
X13950000Y-12865000I15000J0D01*
G01*
X13955000Y-10080000D02*
G75*
G02*
X13925000Y-10080000I-15000J0D01*
G01*
X13925000Y-10080000D02*
G75*
G02*
X13955000Y-10080000I15000J0D01*
G01*
X13975000Y-7640000D02*
G75*
G02*
X13945000Y-7640000I-15000J0D01*
G01*
X13945000Y-7640000D02*
G75*
G02*
X13975000Y-7640000I15000J0D01*
G01*
X14059000Y-7786000D02*
G75*
G02*
X14029000Y-7786000I-15000J0D01*
G01*
X14029000Y-7786000D02*
G75*
G02*
X14059000Y-7786000I15000J0D01*
G01*
X14075000Y-11060000D02*
G75*
G02*
X14045000Y-11060000I-15000J0D01*
G01*
X14045000Y-11060000D02*
G75*
G02*
X14075000Y-11060000I15000J0D01*
G01*
X14085000Y-12110000D02*
G75*
G02*
X14055000Y-12110000I-15000J0D01*
G01*
X14055000Y-12110000D02*
G75*
G02*
X14085000Y-12110000I15000J0D01*
G01*
X14085000Y-12230000D02*
G75*
G02*
X14055000Y-12230000I-15000J0D01*
G01*
X14055000Y-12230000D02*
G75*
G02*
X14085000Y-12230000I15000J0D01*
G01*
X14100000Y-12700000D02*
G75*
G02*
X14070000Y-12700000I-15000J0D01*
G01*
X14070000Y-12700000D02*
G75*
G02*
X14100000Y-12700000I15000J0D01*
G01*
X14100000Y-12780000D02*
G75*
G02*
X14070000Y-12780000I-15000J0D01*
G01*
X14070000Y-12780000D02*
G75*
G02*
X14100000Y-12780000I15000J0D01*
G01*
X14100000Y-12865000D02*
G75*
G02*
X14070000Y-12865000I-15000J0D01*
G01*
X14070000Y-12865000D02*
G75*
G02*
X14100000Y-12865000I15000J0D01*
G01*
X14107573Y-10980000D02*
G75*
G02*
X14077573Y-10980000I-15000J0D01*
G01*
X14077573Y-10980000D02*
G75*
G02*
X14107573Y-10980000I15000J0D01*
G01*
X14175000Y-12120000D02*
G75*
G02*
X14145000Y-12120000I-15000J0D01*
G01*
X14145000Y-12120000D02*
G75*
G02*
X14175000Y-12120000I15000J0D01*
G01*
X14185000Y-12040000D02*
G75*
G02*
X14155000Y-12040000I-15000J0D01*
G01*
X14155000Y-12040000D02*
G75*
G02*
X14185000Y-12040000I15000J0D01*
G01*
X14185000Y-12240000D02*
G75*
G02*
X14155000Y-12240000I-15000J0D01*
G01*
X14155000Y-12240000D02*
G75*
G02*
X14185000Y-12240000I15000J0D01*
G01*
X14195000Y-10820000D02*
G75*
G02*
X14165000Y-10820000I-15000J0D01*
G01*
X14165000Y-10820000D02*
G75*
G02*
X14195000Y-10820000I15000J0D01*
G01*
X14195000Y-10980000D02*
G75*
G02*
X14165000Y-10980000I-15000J0D01*
G01*
X14165000Y-10980000D02*
G75*
G02*
X14195000Y-10980000I15000J0D01*
G01*
X14195000Y-12340000D02*
G75*
G02*
X14165000Y-12340000I-15000J0D01*
G01*
X14165000Y-12340000D02*
G75*
G02*
X14195000Y-12340000I15000J0D01*
G01*
X14250000Y-12700000D02*
G75*
G02*
X14220000Y-12700000I-15000J0D01*
G01*
X14220000Y-12700000D02*
G75*
G02*
X14250000Y-12700000I15000J0D01*
G01*
X14250000Y-12780000D02*
G75*
G02*
X14220000Y-12780000I-15000J0D01*
G01*
X14220000Y-12780000D02*
G75*
G02*
X14250000Y-12780000I15000J0D01*
G01*
X14250000Y-12865000D02*
G75*
G02*
X14220000Y-12865000I-15000J0D01*
G01*
X14220000Y-12865000D02*
G75*
G02*
X14250000Y-12865000I15000J0D01*
G01*
X14295000Y-11620000D02*
G75*
G02*
X14265000Y-11620000I-15000J0D01*
G01*
X14265000Y-11620000D02*
G75*
G02*
X14295000Y-11620000I15000J0D01*
G01*
X14391823Y-11058324D02*
G75*
G02*
X14361823Y-11058324I-15000J0D01*
G01*
X14361823Y-11058324D02*
G75*
G02*
X14391823Y-11058324I15000J0D01*
G01*
X14405000Y-10920000D02*
G75*
G02*
X14375000Y-10920000I-15000J0D01*
G01*
X14375000Y-10920000D02*
G75*
G02*
X14405000Y-10920000I15000J0D01*
G01*
X14415000Y-12700000D02*
G75*
G02*
X14385000Y-12700000I-15000J0D01*
G01*
X14385000Y-12700000D02*
G75*
G02*
X14415000Y-12700000I15000J0D01*
G01*
X14415000Y-12780000D02*
G75*
G02*
X14385000Y-12780000I-15000J0D01*
G01*
X14385000Y-12780000D02*
G75*
G02*
X14415000Y-12780000I15000J0D01*
G01*
X14415000Y-12865000D02*
G75*
G02*
X14385000Y-12865000I-15000J0D01*
G01*
X14385000Y-12865000D02*
G75*
G02*
X14415000Y-12865000I15000J0D01*
G01*
X14435000Y-7870000D02*
G75*
G02*
X14405000Y-7870000I-15000J0D01*
G01*
X14405000Y-7870000D02*
G75*
G02*
X14435000Y-7870000I15000J0D01*
G01*
X14575000Y-12700000D02*
G75*
G02*
X14545000Y-12700000I-15000J0D01*
G01*
X14545000Y-12700000D02*
G75*
G02*
X14575000Y-12700000I15000J0D01*
G01*
X14575000Y-12780000D02*
G75*
G02*
X14545000Y-12780000I-15000J0D01*
G01*
X14545000Y-12780000D02*
G75*
G02*
X14575000Y-12780000I15000J0D01*
G01*
X14575000Y-12865000D02*
G75*
G02*
X14545000Y-12865000I-15000J0D01*
G01*
X14545000Y-12865000D02*
G75*
G02*
X14575000Y-12865000I15000J0D01*
G01*
X14580000Y-11700000D02*
G75*
G02*
X14550000Y-11700000I-15000J0D01*
G01*
X14550000Y-11700000D02*
G75*
G02*
X14580000Y-11700000I15000J0D01*
G01*
X14605000Y-7890000D02*
G75*
G02*
X14575000Y-7890000I-15000J0D01*
G01*
X14575000Y-7890000D02*
G75*
G02*
X14605000Y-7890000I15000J0D01*
G01*
X14700000Y-10835000D02*
G75*
G02*
X14670000Y-10835000I-15000J0D01*
G01*
X14670000Y-10835000D02*
G75*
G02*
X14700000Y-10835000I15000J0D01*
G01*
X14725000Y-11690000D02*
G75*
G02*
X14695000Y-11690000I-15000J0D01*
G01*
X14695000Y-11690000D02*
G75*
G02*
X14725000Y-11690000I15000J0D01*
G01*
X14725000Y-12700000D02*
G75*
G02*
X14695000Y-12700000I-15000J0D01*
G01*
X14695000Y-12700000D02*
G75*
G02*
X14725000Y-12700000I15000J0D01*
G01*
X14725000Y-12780000D02*
G75*
G02*
X14695000Y-12780000I-15000J0D01*
G01*
X14695000Y-12780000D02*
G75*
G02*
X14725000Y-12780000I15000J0D01*
G01*
X14725000Y-12865000D02*
G75*
G02*
X14695000Y-12865000I-15000J0D01*
G01*
X14695000Y-12865000D02*
G75*
G02*
X14725000Y-12865000I15000J0D01*
G01*
X14745000Y-12300000D02*
G75*
G02*
X14715000Y-12300000I-15000J0D01*
G01*
X14715000Y-12300000D02*
G75*
G02*
X14745000Y-12300000I15000J0D01*
G01*
X14765000Y-7890000D02*
G75*
G02*
X14735000Y-7890000I-15000J0D01*
G01*
X14735000Y-7890000D02*
G75*
G02*
X14765000Y-7890000I15000J0D01*
G01*
X14775000Y-12390000D02*
G75*
G02*
X14745000Y-12390000I-15000J0D01*
G01*
X14745000Y-12390000D02*
G75*
G02*
X14775000Y-12390000I15000J0D01*
G01*
X14820000Y-11960000D02*
G75*
G02*
X14790000Y-11960000I-15000J0D01*
G01*
X14790000Y-11960000D02*
G75*
G02*
X14820000Y-11960000I15000J0D01*
G01*
X14842006Y-10117847D02*
G75*
G02*
X14812006Y-10117847I-15000J0D01*
G01*
X14812006Y-10117847D02*
G75*
G02*
X14842006Y-10117847I15000J0D01*
G01*
X14865000Y-12390000D02*
G75*
G02*
X14835000Y-12390000I-15000J0D01*
G01*
X14835000Y-12390000D02*
G75*
G02*
X14865000Y-12390000I15000J0D01*
G01*
X14875000Y-12700000D02*
G75*
G02*
X14845000Y-12700000I-15000J0D01*
G01*
X14845000Y-12700000D02*
G75*
G02*
X14875000Y-12700000I15000J0D01*
G01*
X14875000Y-12780000D02*
G75*
G02*
X14845000Y-12780000I-15000J0D01*
G01*
X14845000Y-12780000D02*
G75*
G02*
X14875000Y-12780000I15000J0D01*
G01*
X14875000Y-12865000D02*
G75*
G02*
X14845000Y-12865000I-15000J0D01*
G01*
X14845000Y-12865000D02*
G75*
G02*
X14875000Y-12865000I15000J0D01*
G01*
X14905000Y-7900000D02*
G75*
G02*
X14875000Y-7900000I-15000J0D01*
G01*
X14875000Y-7900000D02*
G75*
G02*
X14905000Y-7900000I15000J0D01*
G01*
X14935000Y-12292426D02*
G75*
G02*
X14905000Y-12292426I-15000J0D01*
G01*
X14905000Y-12292426D02*
G75*
G02*
X14935000Y-12292426I15000J0D01*
G01*
X14939363Y-7600000D02*
G75*
G02*
X14909363Y-7600000I-15000J0D01*
G01*
X14909363Y-7600000D02*
G75*
G02*
X14939363Y-7600000I15000J0D01*
G01*
X14940000Y-12060000D02*
G75*
G02*
X14910000Y-12060000I-15000J0D01*
G01*
X14910000Y-12060000D02*
G75*
G02*
X14940000Y-12060000I15000J0D01*
G01*
X14950000Y-10410000D02*
G75*
G02*
X14920000Y-10410000I-15000J0D01*
G01*
X14920000Y-10410000D02*
G75*
G02*
X14950000Y-10410000I15000J0D01*
G01*
X14955000Y-7790000D02*
G75*
G02*
X14925000Y-7790000I-15000J0D01*
G01*
X14925000Y-7790000D02*
G75*
G02*
X14955000Y-7790000I15000J0D01*
G01*
X14960360Y-11871960D02*
G75*
G02*
X14930360Y-11871960I-15000J0D01*
G01*
X14930360Y-11871960D02*
G75*
G02*
X14960360Y-11871960I15000J0D01*
G01*
X14990000Y-11490000D02*
G75*
G02*
X14960000Y-11490000I-15000J0D01*
G01*
X14960000Y-11490000D02*
G75*
G02*
X14990000Y-11490000I15000J0D01*
G01*
X14990000Y-12609000D02*
G75*
G02*
X14960000Y-12609000I-15000J0D01*
G01*
X14960000Y-12609000D02*
G75*
G02*
X14990000Y-12609000I15000J0D01*
G01*
X14995000Y-12390000D02*
G75*
G02*
X14965000Y-12390000I-15000J0D01*
G01*
X14965000Y-12390000D02*
G75*
G02*
X14995000Y-12390000I15000J0D01*
G01*
X15005000Y-9870000D02*
G75*
G02*
X14975000Y-9870000I-15000J0D01*
G01*
X14975000Y-9870000D02*
G75*
G02*
X15005000Y-9870000I15000J0D01*
G01*
X15026400Y-10373360D02*
G75*
G02*
X14996400Y-10373360I-15000J0D01*
G01*
X14996400Y-10373360D02*
G75*
G02*
X15026400Y-10373360I15000J0D01*
G01*
X15031480Y-11871960D02*
G75*
G02*
X15001480Y-11871960I-15000J0D01*
G01*
X15001480Y-11871960D02*
G75*
G02*
X15031480Y-11871960I15000J0D01*
G01*
X15031480Y-12994640D02*
G75*
G02*
X15001480Y-12994640I-15000J0D01*
G01*
X15001480Y-12994640D02*
G75*
G02*
X15031480Y-12994640I15000J0D01*
G01*
X15040000Y-9946640D02*
G75*
G02*
X15010000Y-9946640I-15000J0D01*
G01*
X15010000Y-9946640D02*
G75*
G02*
X15040000Y-9946640I15000J0D01*
G01*
X15072120Y-7620000D02*
G75*
G02*
X15042120Y-7620000I-15000J0D01*
G01*
X15042120Y-7620000D02*
G75*
G02*
X15072120Y-7620000I15000J0D01*
G01*
X15075000Y-12220000D02*
G75*
G02*
X15045000Y-12220000I-15000J0D01*
G01*
X15045000Y-12220000D02*
G75*
G02*
X15075000Y-12220000I15000J0D01*
G01*
X15093661Y-10810491D02*
G75*
G02*
X15063661Y-10810491I-15000J0D01*
G01*
X15063661Y-10810491D02*
G75*
G02*
X15093661Y-10810491I15000J0D01*
G01*
X15097794Y-10317794D02*
G75*
G02*
X15067794Y-10317794I-15000J0D01*
G01*
X15067794Y-10317794D02*
G75*
G02*
X15097794Y-10317794I15000J0D01*
G01*
X15135000Y-7540000D02*
G75*
G02*
X15105000Y-7540000I-15000J0D01*
G01*
X15105000Y-7540000D02*
G75*
G02*
X15135000Y-7540000I15000J0D01*
G01*
X15170147Y-10894853D02*
G75*
G02*
X15140147Y-10894853I-15000J0D01*
G01*
X15140147Y-10894853D02*
G75*
G02*
X15170147Y-10894853I15000J0D01*
G01*
X15175000Y-10580000D02*
G75*
G02*
X15145000Y-10580000I-15000J0D01*
G01*
X15145000Y-10580000D02*
G75*
G02*
X15175000Y-10580000I15000J0D01*
G01*
X15257426Y-10582427D02*
G75*
G02*
X15227426Y-10582427I-15000J0D01*
G01*
X15227426Y-10582427D02*
G75*
G02*
X15257426Y-10582427I15000J0D01*
G01*
X15275000Y-10140000D02*
G75*
G02*
X15245000Y-10140000I-15000J0D01*
G01*
X15245000Y-10140000D02*
G75*
G02*
X15275000Y-10140000I15000J0D01*
G01*
X15287573Y-10927427D02*
G75*
G02*
X15257573Y-10927427I-15000J0D01*
G01*
X15257573Y-10927427D02*
G75*
G02*
X15287573Y-10927427I15000J0D01*
G01*
X15315000Y-8480000D02*
G75*
G02*
X15285000Y-8480000I-15000J0D01*
G01*
X15285000Y-8480000D02*
G75*
G02*
X15315000Y-8480000I15000J0D01*
G01*
X15335000Y-10200000D02*
G75*
G02*
X15305000Y-10200000I-15000J0D01*
G01*
X15305000Y-10200000D02*
G75*
G02*
X15335000Y-10200000I15000J0D01*
G01*
X15340000Y-8325000D02*
G75*
G02*
X15310000Y-8325000I-15000J0D01*
G01*
X15310000Y-8325000D02*
G75*
G02*
X15340000Y-8325000I15000J0D01*
G01*
X15358000Y-11553000D02*
G75*
G02*
X15328000Y-11553000I-15000J0D01*
G01*
X15328000Y-11553000D02*
G75*
G02*
X15358000Y-11553000I15000J0D01*
G01*
X15377000Y-11711000D02*
G75*
G02*
X15347000Y-11711000I-15000J0D01*
G01*
X15347000Y-11711000D02*
G75*
G02*
X15377000Y-11711000I15000J0D01*
G01*
X15382000Y-12125960D02*
G75*
G02*
X15352000Y-12125960I-15000J0D01*
G01*
X15352000Y-12125960D02*
G75*
G02*
X15382000Y-12125960I15000J0D01*
G01*
X15387080Y-12014200D02*
G75*
G02*
X15357080Y-12014200I-15000J0D01*
G01*
X15357080Y-12014200D02*
G75*
G02*
X15387080Y-12014200I15000J0D01*
G01*
X15395000Y-11920000D02*
G75*
G02*
X15365000Y-11920000I-15000J0D01*
G01*
X15365000Y-11920000D02*
G75*
G02*
X15395000Y-11920000I15000J0D01*
G01*
X15397240Y-12542520D02*
G75*
G02*
X15367240Y-12542520I-15000J0D01*
G01*
X15367240Y-12542520D02*
G75*
G02*
X15397240Y-12542520I15000J0D01*
G01*
X15415000Y-9600000D02*
G75*
G02*
X15385000Y-9600000I-15000J0D01*
G01*
X15385000Y-9600000D02*
G75*
G02*
X15415000Y-9600000I15000J0D01*
G01*
X15445000Y-7970000D02*
G75*
G02*
X15415000Y-7970000I-15000J0D01*
G01*
X15415000Y-7970000D02*
G75*
G02*
X15445000Y-7970000I15000J0D01*
G01*
X15515000Y-8030000D02*
G75*
G02*
X15485000Y-8030000I-15000J0D01*
G01*
X15485000Y-8030000D02*
G75*
G02*
X15515000Y-8030000I15000J0D01*
G01*
X15525000Y-11920000D02*
G75*
G02*
X15495000Y-11920000I-15000J0D01*
G01*
X15495000Y-11920000D02*
G75*
G02*
X15525000Y-11920000I15000J0D01*
G01*
X15545000Y-11800000D02*
G75*
G02*
X15515000Y-11800000I-15000J0D01*
G01*
X15515000Y-11800000D02*
G75*
G02*
X15545000Y-11800000I15000J0D01*
G01*
X15545000Y-12680000D02*
G75*
G02*
X15515000Y-12680000I-15000J0D01*
G01*
X15515000Y-12680000D02*
G75*
G02*
X15545000Y-12680000I15000J0D01*
G01*
X15565000Y-8480000D02*
G75*
G02*
X15535000Y-8480000I-15000J0D01*
G01*
X15535000Y-8480000D02*
G75*
G02*
X15565000Y-8480000I15000J0D01*
G01*
X15625000Y-12710000D02*
G75*
G02*
X15595000Y-12710000I-15000J0D01*
G01*
X15595000Y-12710000D02*
G75*
G02*
X15625000Y-12710000I15000J0D01*
G01*
X15635000Y-8480000D02*
G75*
G02*
X15605000Y-8480000I-15000J0D01*
G01*
X15605000Y-8480000D02*
G75*
G02*
X15635000Y-8480000I15000J0D01*
G01*
X15635000Y-11920000D02*
G75*
G02*
X15605000Y-11920000I-15000J0D01*
G01*
X15605000Y-11920000D02*
G75*
G02*
X15635000Y-11920000I15000J0D01*
G01*
X15685000Y-12580000D02*
G75*
G02*
X15655000Y-12580000I-15000J0D01*
G01*
X15655000Y-12580000D02*
G75*
G02*
X15685000Y-12580000I15000J0D01*
G01*
X15705000Y-12770000D02*
G75*
G02*
X15675000Y-12770000I-15000J0D01*
G01*
X15675000Y-12770000D02*
G75*
G02*
X15705000Y-12770000I15000J0D01*
G01*
X15755000Y-11920000D02*
G75*
G02*
X15725000Y-11920000I-15000J0D01*
G01*
X15725000Y-11920000D02*
G75*
G02*
X15755000Y-11920000I15000J0D01*
G01*
X15757920Y-12278360D02*
G75*
G02*
X15727920Y-12278360I-15000J0D01*
G01*
X15727920Y-12278360D02*
G75*
G02*
X15757920Y-12278360I15000J0D01*
G01*
X15765000Y-12080000D02*
G75*
G02*
X15735000Y-12080000I-15000J0D01*
G01*
X15735000Y-12080000D02*
G75*
G02*
X15765000Y-12080000I15000J0D01*
G01*
X15805000Y-8480000D02*
G75*
G02*
X15775000Y-8480000I-15000J0D01*
G01*
X15775000Y-8480000D02*
G75*
G02*
X15805000Y-8480000I15000J0D01*
G01*
X15855000Y-11860000D02*
G75*
G02*
X15825000Y-11860000I-15000J0D01*
G01*
X15825000Y-11860000D02*
G75*
G02*
X15855000Y-11860000I15000J0D01*
G01*
X15875000Y-8480000D02*
G75*
G02*
X15845000Y-8480000I-15000J0D01*
G01*
X15845000Y-8480000D02*
G75*
G02*
X15875000Y-8480000I15000J0D01*
G01*
X15910320Y-7570000D02*
G75*
G02*
X15880320Y-7570000I-15000J0D01*
G01*
X15880320Y-7570000D02*
G75*
G02*
X15910320Y-7570000I15000J0D01*
G01*
X16025000Y-12140000D02*
G75*
G02*
X15995000Y-12140000I-15000J0D01*
G01*
X15995000Y-12140000D02*
G75*
G02*
X16025000Y-12140000I15000J0D01*
G01*
X16080766Y-10030726D02*
G75*
G02*
X16050766Y-10030726I-15000J0D01*
G01*
X16050766Y-10030726D02*
G75*
G02*
X16080766Y-10030726I15000J0D01*
G01*
X16098280Y-12928600D02*
G75*
G02*
X16068280Y-12928600I-15000J0D01*
G01*
X16068280Y-12928600D02*
G75*
G02*
X16098280Y-12928600I15000J0D01*
G01*
X16125000Y-8340000D02*
G75*
G02*
X16095000Y-8340000I-15000J0D01*
G01*
X16095000Y-8340000D02*
G75*
G02*
X16125000Y-8340000I15000J0D01*
G01*
X16141250Y-10090726D02*
G75*
G02*
X16111250Y-10090726I-15000J0D01*
G01*
X16111250Y-10090726D02*
G75*
G02*
X16141250Y-10090726I15000J0D01*
G01*
X16215000Y-7610000D02*
G75*
G02*
X16185000Y-7610000I-15000J0D01*
G01*
X16185000Y-7610000D02*
G75*
G02*
X16215000Y-7610000I15000J0D01*
G01*
X16215000Y-8340000D02*
G75*
G02*
X16185000Y-8340000I-15000J0D01*
G01*
X16185000Y-8340000D02*
G75*
G02*
X16215000Y-8340000I15000J0D01*
G01*
X16215000Y-11820000D02*
G75*
G02*
X16185000Y-11820000I-15000J0D01*
G01*
X16185000Y-11820000D02*
G75*
G02*
X16215000Y-11820000I15000J0D01*
G01*
X16225000Y-12140000D02*
G75*
G02*
X16195000Y-12140000I-15000J0D01*
G01*
X16195000Y-12140000D02*
G75*
G02*
X16225000Y-12140000I15000J0D01*
G01*
X16265000Y-12570000D02*
G75*
G02*
X16235000Y-12570000I-15000J0D01*
G01*
X16235000Y-12570000D02*
G75*
G02*
X16265000Y-12570000I15000J0D01*
G01*
X16285000Y-9580000D02*
G75*
G02*
X16255000Y-9580000I-15000J0D01*
G01*
X16255000Y-9580000D02*
G75*
G02*
X16285000Y-9580000I15000J0D01*
G01*
X16295000Y-9220000D02*
G75*
G02*
X16265000Y-9220000I-15000J0D01*
G01*
X16265000Y-9220000D02*
G75*
G02*
X16295000Y-9220000I15000J0D01*
G01*
X16295000Y-10260000D02*
G75*
G02*
X16265000Y-10260000I-15000J0D01*
G01*
X16265000Y-10260000D02*
G75*
G02*
X16295000Y-10260000I15000J0D01*
G01*
X16301480Y-12640000D02*
G75*
G02*
X16271480Y-12640000I-15000J0D01*
G01*
X16271480Y-12640000D02*
G75*
G02*
X16301480Y-12640000I15000J0D01*
G01*
X16305000Y-8340000D02*
G75*
G02*
X16275000Y-8340000I-15000J0D01*
G01*
X16275000Y-8340000D02*
G75*
G02*
X16305000Y-8340000I15000J0D01*
G01*
X16335000Y-12930000D02*
G75*
G02*
X16305000Y-12930000I-15000J0D01*
G01*
X16305000Y-12930000D02*
G75*
G02*
X16335000Y-12930000I15000J0D01*
G01*
X16385000Y-9220000D02*
G75*
G02*
X16355000Y-9220000I-15000J0D01*
G01*
X16355000Y-9220000D02*
G75*
G02*
X16385000Y-9220000I15000J0D01*
G01*
X16395000Y-8340000D02*
G75*
G02*
X16365000Y-8340000I-15000J0D01*
G01*
X16365000Y-8340000D02*
G75*
G02*
X16395000Y-8340000I15000J0D01*
G01*
X16475000Y-9220000D02*
G75*
G02*
X16445000Y-9220000I-15000J0D01*
G01*
X16445000Y-9220000D02*
G75*
G02*
X16475000Y-9220000I15000J0D01*
G01*
X16485000Y-8340000D02*
G75*
G02*
X16455000Y-8340000I-15000J0D01*
G01*
X16455000Y-8340000D02*
G75*
G02*
X16485000Y-8340000I15000J0D01*
G01*
X16495000Y-9920000D02*
G75*
G02*
X16465000Y-9920000I-15000J0D01*
G01*
X16465000Y-9920000D02*
G75*
G02*
X16495000Y-9920000I15000J0D01*
G01*
X16555000Y-7540000D02*
G75*
G02*
X16525000Y-7540000I-15000J0D01*
G01*
X16525000Y-7540000D02*
G75*
G02*
X16555000Y-7540000I15000J0D01*
G01*
X16565000Y-9220000D02*
G75*
G02*
X16535000Y-9220000I-15000J0D01*
G01*
X16535000Y-9220000D02*
G75*
G02*
X16565000Y-9220000I15000J0D01*
G01*
X16575000Y-8340000D02*
G75*
G02*
X16545000Y-8340000I-15000J0D01*
G01*
X16545000Y-8340000D02*
G75*
G02*
X16575000Y-8340000I15000J0D01*
G01*
X16605000Y-7260000D02*
G75*
G02*
X16575000Y-7260000I-15000J0D01*
G01*
X16575000Y-7260000D02*
G75*
G02*
X16605000Y-7260000I15000J0D01*
G01*
X16615000Y-7790000D02*
G75*
G02*
X16585000Y-7790000I-15000J0D01*
G01*
X16585000Y-7790000D02*
G75*
G02*
X16615000Y-7790000I15000J0D01*
G01*
X16655000Y-9220000D02*
G75*
G02*
X16625000Y-9220000I-15000J0D01*
G01*
X16625000Y-9220000D02*
G75*
G02*
X16655000Y-9220000I15000J0D01*
G01*
X16665000Y-8340000D02*
G75*
G02*
X16635000Y-8340000I-15000J0D01*
G01*
X16635000Y-8340000D02*
G75*
G02*
X16665000Y-8340000I15000J0D01*
G01*
X16745000Y-9220000D02*
G75*
G02*
X16715000Y-9220000I-15000J0D01*
G01*
X16715000Y-9220000D02*
G75*
G02*
X16745000Y-9220000I15000J0D01*
G01*
X16755000Y-8340000D02*
G75*
G02*
X16725000Y-8340000I-15000J0D01*
G01*
X16725000Y-8340000D02*
G75*
G02*
X16755000Y-8340000I15000J0D01*
G01*
X16775000Y-7920000D02*
G75*
G02*
X16745000Y-7920000I-15000J0D01*
G01*
X16745000Y-7920000D02*
G75*
G02*
X16775000Y-7920000I15000J0D01*
G01*
X16785000Y-10340000D02*
G75*
G02*
X16755000Y-10340000I-15000J0D01*
G01*
X16755000Y-10340000D02*
G75*
G02*
X16785000Y-10340000I15000J0D01*
G01*
X16785000Y-10760000D02*
G75*
G02*
X16755000Y-10760000I-15000J0D01*
G01*
X16755000Y-10760000D02*
G75*
G02*
X16785000Y-10760000I15000J0D01*
G01*
X16785000Y-10860000D02*
G75*
G02*
X16755000Y-10860000I-15000J0D01*
G01*
X16755000Y-10860000D02*
G75*
G02*
X16785000Y-10860000I15000J0D01*
G01*
X16795000Y-10440000D02*
G75*
G02*
X16765000Y-10440000I-15000J0D01*
G01*
X16765000Y-10440000D02*
G75*
G02*
X16795000Y-10440000I15000J0D01*
G01*
X16845040Y-9972040D02*
G75*
G02*
X16815040Y-9972040I-15000J0D01*
G01*
X16815040Y-9972040D02*
G75*
G02*
X16845040Y-9972040I15000J0D01*
G01*
X16855200Y-11038840D02*
G75*
G02*
X16825200Y-11038840I-15000J0D01*
G01*
X16825200Y-11038840D02*
G75*
G02*
X16855200Y-11038840I15000J0D01*
G01*
X16885000Y-9880000D02*
G75*
G02*
X16855000Y-9880000I-15000J0D01*
G01*
X16855000Y-9880000D02*
G75*
G02*
X16885000Y-9880000I15000J0D01*
G01*
X16895000Y-10340000D02*
G75*
G02*
X16865000Y-10340000I-15000J0D01*
G01*
X16865000Y-10340000D02*
G75*
G02*
X16895000Y-10340000I15000J0D01*
G01*
X16895000Y-10440000D02*
G75*
G02*
X16865000Y-10440000I-15000J0D01*
G01*
X16865000Y-10440000D02*
G75*
G02*
X16895000Y-10440000I15000J0D01*
G01*
X16895000Y-10760000D02*
G75*
G02*
X16865000Y-10760000I-15000J0D01*
G01*
X16865000Y-10760000D02*
G75*
G02*
X16895000Y-10760000I15000J0D01*
G01*
X16895000Y-10860000D02*
G75*
G02*
X16865000Y-10860000I-15000J0D01*
G01*
X16865000Y-10860000D02*
G75*
G02*
X16895000Y-10860000I15000J0D01*
G01*
X16975000Y-7930000D02*
G75*
G02*
X16945000Y-7930000I-15000J0D01*
G01*
X16945000Y-7930000D02*
G75*
G02*
X16975000Y-7930000I15000J0D01*
G01*
X16995000Y-9620000D02*
G75*
G02*
X16965000Y-9620000I-15000J0D01*
G01*
X16965000Y-9620000D02*
G75*
G02*
X16995000Y-9620000I15000J0D01*
G01*
X17004500Y-10340000D02*
G75*
G02*
X16974500Y-10340000I-15000J0D01*
G01*
X16974500Y-10340000D02*
G75*
G02*
X17004500Y-10340000I15000J0D01*
G01*
X17004500Y-10760000D02*
G75*
G02*
X16974500Y-10760000I-15000J0D01*
G01*
X16974500Y-10760000D02*
G75*
G02*
X17004500Y-10760000I15000J0D01*
G01*
X17005000Y-10440000D02*
G75*
G02*
X16975000Y-10440000I-15000J0D01*
G01*
X16975000Y-10440000D02*
G75*
G02*
X17005000Y-10440000I15000J0D01*
G01*
X17005000Y-10860000D02*
G75*
G02*
X16975000Y-10860000I-15000J0D01*
G01*
X16975000Y-10860000D02*
G75*
G02*
X17005000Y-10860000I15000J0D01*
G01*
X17175000Y-7980000D02*
G75*
G02*
X17145000Y-7980000I-15000J0D01*
G01*
X17145000Y-7980000D02*
G75*
G02*
X17175000Y-7980000I15000J0D01*
G01*
X17195000Y-9150000D02*
G75*
G02*
X17165000Y-9150000I-15000J0D01*
G01*
X17165000Y-9150000D02*
G75*
G02*
X17195000Y-9150000I15000J0D01*
G01*
X17205000Y-7890000D02*
G75*
G02*
X17175000Y-7890000I-15000J0D01*
G01*
X17175000Y-7890000D02*
G75*
G02*
X17205000Y-7890000I15000J0D01*
G01*
X17215000Y-9960000D02*
G75*
G02*
X17185000Y-9960000I-15000J0D01*
G01*
X17185000Y-9960000D02*
G75*
G02*
X17215000Y-9960000I15000J0D01*
G01*
X17215000Y-10050000D02*
G75*
G02*
X17185000Y-10050000I-15000J0D01*
G01*
X17185000Y-10050000D02*
G75*
G02*
X17215000Y-10050000I15000J0D01*
G01*
X17215000Y-10140000D02*
G75*
G02*
X17185000Y-10140000I-15000J0D01*
G01*
X17185000Y-10140000D02*
G75*
G02*
X17215000Y-10140000I15000J0D01*
G01*
X17215880Y-9606280D02*
G75*
G02*
X17185880Y-9606280I-15000J0D01*
G01*
X17185880Y-9606280D02*
G75*
G02*
X17215880Y-9606280I15000J0D01*
G01*
X17246360Y-8336280D02*
G75*
G02*
X17216360Y-8336280I-15000J0D01*
G01*
X17216360Y-8336280D02*
G75*
G02*
X17246360Y-8336280I15000J0D01*
G01*
X17246360Y-8412480D02*
G75*
G02*
X17216360Y-8412480I-15000J0D01*
G01*
X17216360Y-8412480D02*
G75*
G02*
X17246360Y-8412480I15000J0D01*
G01*
X17246360Y-8488680D02*
G75*
G02*
X17216360Y-8488680I-15000J0D01*
G01*
X17216360Y-8488680D02*
G75*
G02*
X17246360Y-8488680I15000J0D01*
G01*
X17246360Y-8564880D02*
G75*
G02*
X17216360Y-8564880I-15000J0D01*
G01*
X17216360Y-8564880D02*
G75*
G02*
X17246360Y-8564880I15000J0D01*
G01*
X17246360Y-8641080D02*
G75*
G02*
X17216360Y-8641080I-15000J0D01*
G01*
X17216360Y-8641080D02*
G75*
G02*
X17246360Y-8641080I15000J0D01*
G01*
X17246360Y-8717280D02*
G75*
G02*
X17216360Y-8717280I-15000J0D01*
G01*
X17216360Y-8717280D02*
G75*
G02*
X17246360Y-8717280I15000J0D01*
G01*
X16571500Y-11413000D02*
X16571500Y-11473000D01*
X16541500Y-11443000D02*
X16601500Y-11443000D01*
X16516500Y-11473000D02*
X16626500Y-11473000D01*
X16626500Y-11413000D02*
G75*
G02*
X16626500Y-11473000I0J-30000D01*
G01*
X16626500Y-11413000D02*
X16516500Y-11413000D01*
X16516500Y-11413000D02*
G75*
G03*
X16516500Y-11473000I0J-30000D01*
G01*
X16571500Y-12277000D02*
X16571500Y-12337000D01*
X16541500Y-12307000D02*
X16601500Y-12307000D01*
X16516500Y-12337000D02*
X16626500Y-12337000D01*
X16626500Y-12277000D02*
G75*
G02*
X16626500Y-12337000I0J-30000D01*
G01*
X16626500Y-12277000D02*
X16516500Y-12277000D01*
X16516500Y-12277000D02*
G75*
G03*
X16516500Y-12337000I0J-30000D01*
G01*
X16989500Y-11413000D02*
X16989500Y-11473000D01*
X16959500Y-11443000D02*
X17019500Y-11443000D01*
X16959500Y-11473000D02*
X17019500Y-11473000D01*
X17019500Y-11413000D02*
G75*
G02*
X17019500Y-11473000I0J-30000D01*
G01*
X17019500Y-11413000D02*
X16959500Y-11413000D01*
X16959500Y-11413000D02*
G75*
G03*
X16959500Y-11473000I0J-30000D01*
G01*
X16989500Y-12277000D02*
X16989500Y-12337000D01*
X16959500Y-12307000D02*
X17019500Y-12307000D01*
X16959500Y-12337000D02*
X17019500Y-12337000D01*
X17019500Y-12277000D02*
G75*
G02*
X17019500Y-12337000I0J-30000D01*
G01*
X17019500Y-12277000D02*
X16959500Y-12277000D01*
X16959500Y-12277000D02*
G75*
G03*
X16959500Y-12337000I0J-30000D01*
G01*
X11546356Y-8185356D02*
X11546356Y-8114644D01*
X11475644Y-8114644D01*
X11475644Y-8185356D01*
X11546356Y-8185356D01*
X11546356Y-9455356D02*
X11546356Y-9384644D01*
X11475644Y-9384644D01*
X11475644Y-9455356D01*
X11546356Y-9455356D01*
X11587356Y-10997356D02*
X11587356Y-10926644D01*
X11516644Y-10926644D01*
X11516644Y-10997356D01*
X11587356Y-10997356D01*
X11587356Y-11251356D02*
X11587356Y-11180644D01*
X11516644Y-11180644D01*
X11516644Y-11251356D01*
X11587356Y-11251356D01*
X11587356Y-11505356D02*
X11587356Y-11434644D01*
X11516644Y-11434644D01*
X11516644Y-11505356D01*
X11587356Y-11505356D01*
X11587356Y-11759356D02*
X11587356Y-11688644D01*
X11516644Y-11688644D01*
X11516644Y-11759356D01*
X11587356Y-11759356D01*
X11587356Y-12013356D02*
X11587356Y-11942644D01*
X11516644Y-11942644D01*
X11516644Y-12013356D01*
X11587356Y-12013356D01*
X11800356Y-8185356D02*
X11800356Y-8114644D01*
X11729644Y-8114644D01*
X11729644Y-8185356D01*
X11800356Y-8185356D01*
X11800356Y-9455356D02*
X11800356Y-9384644D01*
X11729644Y-9384644D01*
X11729644Y-9455356D01*
X11800356Y-9455356D01*
X11841356Y-10997356D02*
X11841356Y-10926644D01*
X11770644Y-10926644D01*
X11770644Y-10997356D01*
X11841356Y-10997356D01*
X11841356Y-11251356D02*
X11841356Y-11180644D01*
X11770644Y-11180644D01*
X11770644Y-11251356D01*
X11841356Y-11251356D01*
X11841356Y-11505356D02*
X11841356Y-11434644D01*
X11770644Y-11434644D01*
X11770644Y-11505356D01*
X11841356Y-11505356D01*
X11841356Y-11759356D02*
X11841356Y-11688644D01*
X11770644Y-11688644D01*
X11770644Y-11759356D01*
X11841356Y-11759356D01*
X11841356Y-12013356D02*
X11841356Y-11942644D01*
X11770644Y-11942644D01*
X11770644Y-12013356D01*
X11841356Y-12013356D01*
X12054356Y-8185356D02*
X12054356Y-8114644D01*
X11983644Y-8114644D01*
X11983644Y-8185356D01*
X12054356Y-8185356D01*
X12054356Y-9455356D02*
X12054356Y-9384644D01*
X11983644Y-9384644D01*
X11983644Y-9455356D01*
X12054356Y-9455356D01*
X12095356Y-10997356D02*
X12095356Y-10926644D01*
X12024644Y-10926644D01*
X12024644Y-10997356D01*
X12095356Y-10997356D01*
X12095356Y-11251356D02*
X12095356Y-11180644D01*
X12024644Y-11180644D01*
X12024644Y-11251356D01*
X12095356Y-11251356D01*
X12095356Y-11505356D02*
X12095356Y-11434644D01*
X12024644Y-11434644D01*
X12024644Y-11505356D01*
X12095356Y-11505356D01*
X12095356Y-11759356D02*
X12095356Y-11688644D01*
X12024644Y-11688644D01*
X12024644Y-11759356D01*
X12095356Y-11759356D01*
X12095356Y-12013356D02*
X12095356Y-11942644D01*
X12024644Y-11942644D01*
X12024644Y-12013356D01*
X12095356Y-12013356D01*
X12308356Y-8185356D02*
X12308356Y-8114644D01*
X12237644Y-8114644D01*
X12237644Y-8185356D01*
X12308356Y-8185356D01*
X12308356Y-9455356D02*
X12308356Y-9384644D01*
X12237644Y-9384644D01*
X12237644Y-9455356D01*
X12308356Y-9455356D01*
X12373356Y-7375356D02*
X12373356Y-7304644D01*
X12302644Y-7304644D01*
X12302644Y-7375356D01*
X12373356Y-7375356D01*
X12511356Y-9815356D02*
X12511356Y-9744644D01*
X12440644Y-9744644D01*
X12440644Y-9815356D01*
X12511356Y-9815356D01*
X12533356Y-7835356D02*
X12533356Y-7764644D01*
X12462644Y-7764644D01*
X12462644Y-7835356D01*
X12533356Y-7835356D01*
X12562356Y-8185356D02*
X12562356Y-8114644D01*
X12491644Y-8114644D01*
X12491644Y-8185356D01*
X12562356Y-8185356D01*
X12562356Y-9455356D02*
X12562356Y-9384644D01*
X12491644Y-9384644D01*
X12491644Y-9455356D01*
X12562356Y-9455356D01*
X12627356Y-7375356D02*
X12627356Y-7304644D01*
X12556644Y-7304644D01*
X12556644Y-7375356D01*
X12627356Y-7375356D01*
X12765356Y-9815356D02*
X12765356Y-9744644D01*
X12694644Y-9744644D01*
X12694644Y-9815356D01*
X12765356Y-9815356D01*
X12787356Y-7835356D02*
X12787356Y-7764644D01*
X12716644Y-7764644D01*
X12716644Y-7835356D01*
X12787356Y-7835356D01*
X12816356Y-8185356D02*
X12816356Y-8114644D01*
X12745644Y-8114644D01*
X12745644Y-8185356D01*
X12816356Y-8185356D01*
X12816356Y-9455356D02*
X12816356Y-9384644D01*
X12745644Y-9384644D01*
X12745644Y-9455356D01*
X12816356Y-9455356D01*
X12881356Y-7375356D02*
X12881356Y-7304644D01*
X12810644Y-7304644D01*
X12810644Y-7375356D01*
X12881356Y-7375356D01*
X12989356Y-8502356D02*
X12989356Y-8431644D01*
X12918644Y-8431644D01*
X12918644Y-8502356D01*
X12989356Y-8502356D01*
X12989356Y-8756356D02*
X12989356Y-8685644D01*
X12918644Y-8685644D01*
X12918644Y-8756356D01*
X12989356Y-8756356D01*
X13019356Y-9815356D02*
X13019356Y-9744644D01*
X12948644Y-9744644D01*
X12948644Y-9815356D01*
X13019356Y-9815356D01*
X13041356Y-7835356D02*
X13041356Y-7764644D01*
X12970644Y-7764644D01*
X12970644Y-7835356D01*
X13041356Y-7835356D01*
X13070356Y-8185356D02*
X13070356Y-8114644D01*
X12999644Y-8114644D01*
X12999644Y-8185356D01*
X13070356Y-8185356D01*
X13070356Y-9455356D02*
X13070356Y-9384644D01*
X12999644Y-9384644D01*
X12999644Y-9455356D01*
X13070356Y-9455356D01*
X13135356Y-7375356D02*
X13135356Y-7304644D01*
X13064644Y-7304644D01*
X13064644Y-7375356D01*
X13135356Y-7375356D01*
X13243356Y-8502356D02*
X13243356Y-8431644D01*
X13172644Y-8431644D01*
X13172644Y-8502356D01*
X13243356Y-8502356D01*
X13243356Y-8756356D02*
X13243356Y-8685644D01*
X13172644Y-8685644D01*
X13172644Y-8756356D01*
X13243356Y-8756356D01*
X13273356Y-9815356D02*
X13273356Y-9744644D01*
X13202644Y-9744644D01*
X13202644Y-9815356D01*
X13273356Y-9815356D01*
X13295356Y-7835356D02*
X13295356Y-7764644D01*
X13224644Y-7764644D01*
X13224644Y-7835356D01*
X13295356Y-7835356D01*
X13324356Y-8185356D02*
X13324356Y-8114644D01*
X13253644Y-8114644D01*
X13253644Y-8185356D01*
X13324356Y-8185356D01*
X13324356Y-9455356D02*
X13324356Y-9384644D01*
X13253644Y-9384644D01*
X13253644Y-9455356D01*
X13324356Y-9455356D01*
X13389356Y-7375356D02*
X13389356Y-7304644D01*
X13318644Y-7304644D01*
X13318644Y-7375356D01*
X13389356Y-7375356D01*
X13643356Y-7375356D02*
X13643356Y-7304644D01*
X13572644Y-7304644D01*
X13572644Y-7375356D01*
X13643356Y-7375356D01*
X13931356Y-9725356D02*
X13931356Y-9654644D01*
X13860644Y-9654644D01*
X13860644Y-9725356D01*
X13931356Y-9725356D01*
X13968356Y-10545356D02*
X13968356Y-10474644D01*
X13897644Y-10474644D01*
X13897644Y-10545356D01*
X13968356Y-10545356D01*
X14185356Y-9725356D02*
X14185356Y-9654644D01*
X14114644Y-9654644D01*
X14114644Y-9725356D01*
X14185356Y-9725356D01*
X14215356Y-7568856D02*
X14215356Y-7498144D01*
X14144644Y-7498144D01*
X14144644Y-7568856D01*
X14215356Y-7568856D01*
X14215356Y-7822856D02*
X14215356Y-7752144D01*
X14144644Y-7752144D01*
X14144644Y-7822856D01*
X14215356Y-7822856D01*
X14222356Y-10545356D02*
X14222356Y-10474644D01*
X14151644Y-10474644D01*
X14151644Y-10545356D01*
X14222356Y-10545356D01*
X14476356Y-10545356D02*
X14476356Y-10474644D01*
X14405644Y-10474644D01*
X14405644Y-10545356D01*
X14476356Y-10545356D01*
X14598856Y-9725356D02*
X14598856Y-9654644D01*
X14528144Y-9654644D01*
X14528144Y-9725356D01*
X14598856Y-9725356D01*
X14730356Y-10545356D02*
X14730356Y-10474644D01*
X14659644Y-10474644D01*
X14659644Y-10545356D01*
X14730356Y-10545356D01*
X14852856Y-9725356D02*
X14852856Y-9654644D01*
X14782144Y-9654644D01*
X14782144Y-9725356D01*
X14852856Y-9725356D01*
X15069356Y-7375356D02*
X15069356Y-7304644D01*
X14998644Y-7304644D01*
X14998644Y-7375356D01*
X15069356Y-7375356D01*
X15323356Y-7375356D02*
X15323356Y-7304644D01*
X15252644Y-7304644D01*
X15252644Y-7375356D01*
X15323356Y-7375356D01*
X15415356Y-8185356D02*
X15415356Y-8114644D01*
X15344644Y-8114644D01*
X15344644Y-8185356D01*
X15415356Y-8185356D01*
X15415356Y-9455356D02*
X15415356Y-9384644D01*
X15344644Y-9384644D01*
X15344644Y-9455356D01*
X15415356Y-9455356D01*
X15441356Y-9815356D02*
X15441356Y-9744644D01*
X15370644Y-9744644D01*
X15370644Y-9815356D01*
X15441356Y-9815356D01*
X15483356Y-7825356D02*
X15483356Y-7754644D01*
X15412644Y-7754644D01*
X15412644Y-7825356D01*
X15483356Y-7825356D01*
X15500356Y-8881356D02*
X15500356Y-8810644D01*
X15429644Y-8810644D01*
X15429644Y-8881356D01*
X15500356Y-8881356D01*
X15500356Y-9135356D02*
X15500356Y-9064644D01*
X15429644Y-9064644D01*
X15429644Y-9135356D01*
X15500356Y-9135356D01*
X15577356Y-7375356D02*
X15577356Y-7304644D01*
X15506644Y-7304644D01*
X15506644Y-7375356D01*
X15577356Y-7375356D01*
X15669356Y-8185356D02*
X15669356Y-8114644D01*
X15598644Y-8114644D01*
X15598644Y-8185356D01*
X15669356Y-8185356D01*
X15669356Y-9455356D02*
X15669356Y-9384644D01*
X15598644Y-9384644D01*
X15598644Y-9455356D01*
X15669356Y-9455356D01*
X15695356Y-9815356D02*
X15695356Y-9744644D01*
X15624644Y-9744644D01*
X15624644Y-9815356D01*
X15695356Y-9815356D01*
X15737356Y-7825356D02*
X15737356Y-7754644D01*
X15666644Y-7754644D01*
X15666644Y-7825356D01*
X15737356Y-7825356D01*
X15754356Y-8881356D02*
X15754356Y-8810644D01*
X15683644Y-8810644D01*
X15683644Y-8881356D01*
X15754356Y-8881356D01*
X15754356Y-9135356D02*
X15754356Y-9064644D01*
X15683644Y-9064644D01*
X15683644Y-9135356D01*
X15754356Y-9135356D01*
X15831356Y-7375356D02*
X15831356Y-7304644D01*
X15760644Y-7304644D01*
X15760644Y-7375356D01*
X15831356Y-7375356D01*
X15923356Y-8185356D02*
X15923356Y-8114644D01*
X15852644Y-8114644D01*
X15852644Y-8185356D01*
X15923356Y-8185356D01*
X15923356Y-9455356D02*
X15923356Y-9384644D01*
X15852644Y-9384644D01*
X15852644Y-9455356D01*
X15923356Y-9455356D01*
X15949356Y-9815356D02*
X15949356Y-9744644D01*
X15878644Y-9744644D01*
X15878644Y-9815356D01*
X15949356Y-9815356D01*
X15975356Y-10447856D02*
X15975356Y-10377144D01*
X15904644Y-10377144D01*
X15904644Y-10447856D01*
X15975356Y-10447856D01*
X15975356Y-10701856D02*
X15975356Y-10631144D01*
X15904644Y-10631144D01*
X15904644Y-10701856D01*
X15975356Y-10701856D01*
X15991356Y-7825356D02*
X15991356Y-7754644D01*
X15920644Y-7754644D01*
X15920644Y-7825356D01*
X15991356Y-7825356D01*
X16085356Y-7375356D02*
X16085356Y-7304644D01*
X16014644Y-7304644D01*
X16014644Y-7375356D01*
X16085356Y-7375356D01*
X16177356Y-8185356D02*
X16177356Y-8114644D01*
X16106644Y-8114644D01*
X16106644Y-8185356D01*
X16177356Y-8185356D01*
X16177356Y-9455356D02*
X16177356Y-9384644D01*
X16106644Y-9384644D01*
X16106644Y-9455356D01*
X16177356Y-9455356D01*
X16203356Y-9815356D02*
X16203356Y-9744644D01*
X16132644Y-9744644D01*
X16132644Y-9815356D01*
X16203356Y-9815356D01*
X16245356Y-7825356D02*
X16245356Y-7754644D01*
X16174644Y-7754644D01*
X16174644Y-7825356D01*
X16245356Y-7825356D01*
X16339356Y-7375356D02*
X16339356Y-7304644D01*
X16268644Y-7304644D01*
X16268644Y-7375356D01*
X16339356Y-7375356D01*
X16431356Y-8185356D02*
X16431356Y-8114644D01*
X16360644Y-8114644D01*
X16360644Y-8185356D01*
X16431356Y-8185356D01*
X16431356Y-9455356D02*
X16431356Y-9384644D01*
X16360644Y-9384644D01*
X16360644Y-9455356D01*
X16431356Y-9455356D01*
X16685356Y-8185356D02*
X16685356Y-8114644D01*
X16614644Y-8114644D01*
X16614644Y-8185356D01*
X16685356Y-8185356D01*
X16685356Y-9455356D02*
X16685356Y-9384644D01*
X16614644Y-9384644D01*
X16614644Y-9455356D01*
X16685356Y-9455356D01*
X16939356Y-8185356D02*
X16939356Y-8114644D01*
X16868644Y-8114644D01*
X16868644Y-8185356D01*
X16939356Y-8185356D01*
X16939356Y-9455356D02*
X16939356Y-9384644D01*
X16868644Y-9384644D01*
X16868644Y-9455356D01*
X16939356Y-9455356D01*
X17193356Y-8185356D02*
X17193356Y-8114644D01*
X17122644Y-8114644D01*
X17122644Y-8185356D01*
X17193356Y-8185356D01*
X17193356Y-9455356D02*
X17193356Y-9384644D01*
X17122644Y-9384644D01*
X17122644Y-9455356D01*
X17193356Y-9455356D01*
D13*
X11679000Y-7662000D02*
X11839000Y-7502000D01*
X11679000Y-7342000D01*
X11519000Y-7502000D01*
X11679000Y-7662000D01*
X11679000Y-12962000D02*
X11839000Y-12802000D01*
X11679000Y-12642000D01*
X11519000Y-12802000D01*
X11679000Y-12962000D01*
X16979000Y-7662000D02*
X17139000Y-7502000D01*
X16979000Y-7342000D01*
X16819000Y-7502000D01*
X16979000Y-7662000D01*
X16979000Y-12962000D02*
X17139000Y-12802000D01*
X16979000Y-12642000D01*
X16819000Y-12802000D01*
X16979000Y-12962000D01*
D11*
X11583277Y-13463984D02*
X11583277Y-13263984D01*
X11583277Y-13263984D02*
X11630896Y-13263984D01*
X11630896Y-13263984D02*
X11659467Y-13273508D01*
X11659467Y-13273508D02*
X11678515Y-13292555D01*
X11678515Y-13292555D02*
X11688039Y-13311603D01*
X11688039Y-13311603D02*
X11697562Y-13349698D01*
X11697562Y-13349698D02*
X11697562Y-13378269D01*
X11697562Y-13378269D02*
X11688039Y-13416365D01*
X11688039Y-13416365D02*
X11678515Y-13435412D01*
X11678515Y-13435412D02*
X11659467Y-13454460D01*
X11659467Y-13454460D02*
X11630896Y-13463984D01*
X11630896Y-13463984D02*
X11583277Y-13463984D01*
X11783277Y-13463984D02*
X11783277Y-13330650D01*
X11783277Y-13368746D02*
X11792801Y-13349698D01*
X11792801Y-13349698D02*
X11802324Y-13340174D01*
X11802324Y-13340174D02*
X11821372Y-13330650D01*
X11821372Y-13330650D02*
X11840420Y-13330650D01*
X11907086Y-13463984D02*
X11907086Y-13330650D01*
X11907086Y-13263984D02*
X11897562Y-13273508D01*
X11897562Y-13273508D02*
X11907086Y-13283031D01*
X11907086Y-13283031D02*
X11916610Y-13273508D01*
X11916610Y-13273508D02*
X11907086Y-13263984D01*
X11907086Y-13263984D02*
X11907086Y-13283031D01*
X12030896Y-13463984D02*
X12011848Y-13454460D01*
X12011848Y-13454460D02*
X12002324Y-13435412D01*
X12002324Y-13435412D02*
X12002324Y-13263984D01*
X12135658Y-13463984D02*
X12116610Y-13454460D01*
X12116610Y-13454460D02*
X12107086Y-13435412D01*
X12107086Y-13435412D02*
X12107086Y-13263984D01*
X12364229Y-13463984D02*
X12364229Y-13263984D01*
X12364229Y-13263984D02*
X12430896Y-13406841D01*
X12430896Y-13406841D02*
X12497562Y-13263984D01*
X12497562Y-13263984D02*
X12497562Y-13463984D01*
X12678515Y-13463984D02*
X12678515Y-13359222D01*
X12678515Y-13359222D02*
X12668991Y-13340174D01*
X12668991Y-13340174D02*
X12649943Y-13330650D01*
X12649943Y-13330650D02*
X12611848Y-13330650D01*
X12611848Y-13330650D02*
X12592801Y-13340174D01*
X12678515Y-13454460D02*
X12659467Y-13463984D01*
X12659467Y-13463984D02*
X12611848Y-13463984D01*
X12611848Y-13463984D02*
X12592801Y-13454460D01*
X12592801Y-13454460D02*
X12583277Y-13435412D01*
X12583277Y-13435412D02*
X12583277Y-13416365D01*
X12583277Y-13416365D02*
X12592801Y-13397317D01*
X12592801Y-13397317D02*
X12611848Y-13387793D01*
X12611848Y-13387793D02*
X12659467Y-13387793D01*
X12659467Y-13387793D02*
X12678515Y-13378269D01*
X12773753Y-13330650D02*
X12773753Y-13530650D01*
X12773753Y-13340174D02*
X12792801Y-13330650D01*
X12792801Y-13330650D02*
X12830896Y-13330650D01*
X12830896Y-13330650D02*
X12849943Y-13340174D01*
X12849943Y-13340174D02*
X12859467Y-13349698D01*
X12859467Y-13349698D02*
X12868991Y-13368746D01*
X12868991Y-13368746D02*
X12868991Y-13425888D01*
X12868991Y-13425888D02*
X12859467Y-13444936D01*
X12859467Y-13444936D02*
X12849943Y-13454460D01*
X12849943Y-13454460D02*
X12830896Y-13463984D01*
X12830896Y-13463984D02*
X12792801Y-13463984D01*
X12792801Y-13463984D02*
X12773753Y-13454460D01*
X12954705Y-13444936D02*
X12964229Y-13454460D01*
X12964229Y-13454460D02*
X12954705Y-13463984D01*
X12954705Y-13463984D02*
X12945182Y-13454460D01*
X12945182Y-13454460D02*
X12954705Y-13444936D01*
X12954705Y-13444936D02*
X12954705Y-13463984D01*
X12954705Y-13340174D02*
X12964229Y-13349698D01*
X12964229Y-13349698D02*
X12954705Y-13359222D01*
X12954705Y-13359222D02*
X12945182Y-13349698D01*
X12945182Y-13349698D02*
X12954705Y-13340174D01*
X12954705Y-13340174D02*
X12954705Y-13359222D01*
D12*
X11302500Y-13782500D02*
X11322500Y-13802500D01*
X11322500Y-13782500D02*
X11302500Y-13802500D01*
D11*
X11621372Y-13683984D02*
X11640420Y-13683984D01*
X11640420Y-13683984D02*
X11659467Y-13693508D01*
X11659467Y-13693508D02*
X11668991Y-13703031D01*
X11668991Y-13703031D02*
X11678515Y-13722079D01*
X11678515Y-13722079D02*
X11688039Y-13760174D01*
X11688039Y-13760174D02*
X11688039Y-13807793D01*
X11688039Y-13807793D02*
X11678515Y-13845888D01*
X11678515Y-13845888D02*
X11668991Y-13864936D01*
X11668991Y-13864936D02*
X11659467Y-13874460D01*
X11659467Y-13874460D02*
X11640420Y-13883984D01*
X11640420Y-13883984D02*
X11621372Y-13883984D01*
X11621372Y-13883984D02*
X11602324Y-13874460D01*
X11602324Y-13874460D02*
X11592801Y-13864936D01*
X11592801Y-13864936D02*
X11583277Y-13845888D01*
X11583277Y-13845888D02*
X11573753Y-13807793D01*
X11573753Y-13807793D02*
X11573753Y-13760174D01*
X11573753Y-13760174D02*
X11583277Y-13722079D01*
X11583277Y-13722079D02*
X11592801Y-13703031D01*
X11592801Y-13703031D02*
X11602324Y-13693508D01*
X11602324Y-13693508D02*
X11621372Y-13683984D01*
X11773753Y-13864936D02*
X11783277Y-13874460D01*
X11783277Y-13874460D02*
X11773753Y-13883984D01*
X11773753Y-13883984D02*
X11764229Y-13874460D01*
X11764229Y-13874460D02*
X11773753Y-13864936D01*
X11773753Y-13864936D02*
X11773753Y-13883984D01*
X11859467Y-13703031D02*
X11868991Y-13693508D01*
X11868991Y-13693508D02*
X11888039Y-13683984D01*
X11888039Y-13683984D02*
X11935658Y-13683984D01*
X11935658Y-13683984D02*
X11954705Y-13693508D01*
X11954705Y-13693508D02*
X11964229Y-13703031D01*
X11964229Y-13703031D02*
X11973753Y-13722079D01*
X11973753Y-13722079D02*
X11973753Y-13741127D01*
X11973753Y-13741127D02*
X11964229Y-13769698D01*
X11964229Y-13769698D02*
X11849943Y-13883984D01*
X11849943Y-13883984D02*
X11973753Y-13883984D01*
X12097562Y-13683984D02*
X12116610Y-13683984D01*
X12116610Y-13683984D02*
X12135658Y-13693508D01*
X12135658Y-13693508D02*
X12145182Y-13703031D01*
X12145182Y-13703031D02*
X12154705Y-13722079D01*
X12154705Y-13722079D02*
X12164229Y-13760174D01*
X12164229Y-13760174D02*
X12164229Y-13807793D01*
X12164229Y-13807793D02*
X12154705Y-13845888D01*
X12154705Y-13845888D02*
X12145182Y-13864936D01*
X12145182Y-13864936D02*
X12135658Y-13874460D01*
X12135658Y-13874460D02*
X12116610Y-13883984D01*
X12116610Y-13883984D02*
X12097562Y-13883984D01*
X12097562Y-13883984D02*
X12078515Y-13874460D01*
X12078515Y-13874460D02*
X12068991Y-13864936D01*
X12068991Y-13864936D02*
X12059467Y-13845888D01*
X12059467Y-13845888D02*
X12049943Y-13807793D01*
X12049943Y-13807793D02*
X12049943Y-13760174D01*
X12049943Y-13760174D02*
X12059467Y-13722079D01*
X12059467Y-13722079D02*
X12068991Y-13703031D01*
X12068991Y-13703031D02*
X12078515Y-13693508D01*
X12078515Y-13693508D02*
X12097562Y-13683984D01*
X12288039Y-13683984D02*
X12307086Y-13683984D01*
X12307086Y-13683984D02*
X12326134Y-13693508D01*
X12326134Y-13693508D02*
X12335658Y-13703031D01*
X12335658Y-13703031D02*
X12345182Y-13722079D01*
X12345182Y-13722079D02*
X12354705Y-13760174D01*
X12354705Y-13760174D02*
X12354705Y-13807793D01*
X12354705Y-13807793D02*
X12345182Y-13845888D01*
X12345182Y-13845888D02*
X12335658Y-13864936D01*
X12335658Y-13864936D02*
X12326134Y-13874460D01*
X12326134Y-13874460D02*
X12307086Y-13883984D01*
X12307086Y-13883984D02*
X12288039Y-13883984D01*
X12288039Y-13883984D02*
X12268991Y-13874460D01*
X12268991Y-13874460D02*
X12259467Y-13864936D01*
X12259467Y-13864936D02*
X12249943Y-13845888D01*
X12249943Y-13845888D02*
X12240420Y-13807793D01*
X12240420Y-13807793D02*
X12240420Y-13760174D01*
X12240420Y-13760174D02*
X12249943Y-13722079D01*
X12249943Y-13722079D02*
X12259467Y-13703031D01*
X12259467Y-13703031D02*
X12268991Y-13693508D01*
X12268991Y-13693508D02*
X12288039Y-13683984D01*
X12440420Y-13883984D02*
X12440420Y-13750650D01*
X12440420Y-13769698D02*
X12449943Y-13760174D01*
X12449943Y-13760174D02*
X12468991Y-13750650D01*
X12468991Y-13750650D02*
X12497563Y-13750650D01*
X12497563Y-13750650D02*
X12516610Y-13760174D01*
X12516610Y-13760174D02*
X12526134Y-13779222D01*
X12526134Y-13779222D02*
X12526134Y-13883984D01*
X12526134Y-13779222D02*
X12535658Y-13760174D01*
X12535658Y-13760174D02*
X12554705Y-13750650D01*
X12554705Y-13750650D02*
X12583277Y-13750650D01*
X12583277Y-13750650D02*
X12602324Y-13760174D01*
X12602324Y-13760174D02*
X12611848Y-13779222D01*
X12611848Y-13779222D02*
X12611848Y-13883984D01*
X12707086Y-13883984D02*
X12707086Y-13750650D01*
X12707086Y-13769698D02*
X12716610Y-13760174D01*
X12716610Y-13760174D02*
X12735658Y-13750650D01*
X12735658Y-13750650D02*
X12764229Y-13750650D01*
X12764229Y-13750650D02*
X12783277Y-13760174D01*
X12783277Y-13760174D02*
X12792801Y-13779222D01*
X12792801Y-13779222D02*
X12792801Y-13883984D01*
X12792801Y-13779222D02*
X12802324Y-13760174D01*
X12802324Y-13760174D02*
X12821372Y-13750650D01*
X12821372Y-13750650D02*
X12849943Y-13750650D01*
X12849943Y-13750650D02*
X12868991Y-13760174D01*
X12868991Y-13760174D02*
X12878515Y-13779222D01*
X12878515Y-13779222D02*
X12878515Y-13883984D01*
X13268991Y-13674460D02*
X13097563Y-13931603D01*
X13526134Y-13683984D02*
X13545182Y-13683984D01*
X13545182Y-13683984D02*
X13564229Y-13693508D01*
X13564229Y-13693508D02*
X13573753Y-13703031D01*
X13573753Y-13703031D02*
X13583277Y-13722079D01*
X13583277Y-13722079D02*
X13592801Y-13760174D01*
X13592801Y-13760174D02*
X13592801Y-13807793D01*
X13592801Y-13807793D02*
X13583277Y-13845888D01*
X13583277Y-13845888D02*
X13573753Y-13864936D01*
X13573753Y-13864936D02*
X13564229Y-13874460D01*
X13564229Y-13874460D02*
X13545182Y-13883984D01*
X13545182Y-13883984D02*
X13526134Y-13883984D01*
X13526134Y-13883984D02*
X13507086Y-13874460D01*
X13507086Y-13874460D02*
X13497563Y-13864936D01*
X13497563Y-13864936D02*
X13488039Y-13845888D01*
X13488039Y-13845888D02*
X13478515Y-13807793D01*
X13478515Y-13807793D02*
X13478515Y-13760174D01*
X13478515Y-13760174D02*
X13488039Y-13722079D01*
X13488039Y-13722079D02*
X13497563Y-13703031D01*
X13497563Y-13703031D02*
X13507086Y-13693508D01*
X13507086Y-13693508D02*
X13526134Y-13683984D01*
X13678515Y-13864936D02*
X13688039Y-13874460D01*
X13688039Y-13874460D02*
X13678515Y-13883984D01*
X13678515Y-13883984D02*
X13668991Y-13874460D01*
X13668991Y-13874460D02*
X13678515Y-13864936D01*
X13678515Y-13864936D02*
X13678515Y-13883984D01*
X13811848Y-13683984D02*
X13830896Y-13683984D01*
X13830896Y-13683984D02*
X13849944Y-13693508D01*
X13849944Y-13693508D02*
X13859467Y-13703031D01*
X13859467Y-13703031D02*
X13868991Y-13722079D01*
X13868991Y-13722079D02*
X13878515Y-13760174D01*
X13878515Y-13760174D02*
X13878515Y-13807793D01*
X13878515Y-13807793D02*
X13868991Y-13845888D01*
X13868991Y-13845888D02*
X13859467Y-13864936D01*
X13859467Y-13864936D02*
X13849944Y-13874460D01*
X13849944Y-13874460D02*
X13830896Y-13883984D01*
X13830896Y-13883984D02*
X13811848Y-13883984D01*
X13811848Y-13883984D02*
X13792801Y-13874460D01*
X13792801Y-13874460D02*
X13783277Y-13864936D01*
X13783277Y-13864936D02*
X13773753Y-13845888D01*
X13773753Y-13845888D02*
X13764229Y-13807793D01*
X13764229Y-13807793D02*
X13764229Y-13760174D01*
X13764229Y-13760174D02*
X13773753Y-13722079D01*
X13773753Y-13722079D02*
X13783277Y-13703031D01*
X13783277Y-13703031D02*
X13792801Y-13693508D01*
X13792801Y-13693508D02*
X13811848Y-13683984D01*
X14002325Y-13683984D02*
X14021372Y-13683984D01*
X14021372Y-13683984D02*
X14040420Y-13693508D01*
X14040420Y-13693508D02*
X14049944Y-13703031D01*
X14049944Y-13703031D02*
X14059467Y-13722079D01*
X14059467Y-13722079D02*
X14068991Y-13760174D01*
X14068991Y-13760174D02*
X14068991Y-13807793D01*
X14068991Y-13807793D02*
X14059467Y-13845888D01*
X14059467Y-13845888D02*
X14049944Y-13864936D01*
X14049944Y-13864936D02*
X14040420Y-13874460D01*
X14040420Y-13874460D02*
X14021372Y-13883984D01*
X14021372Y-13883984D02*
X14002325Y-13883984D01*
X14002325Y-13883984D02*
X13983277Y-13874460D01*
X13983277Y-13874460D02*
X13973753Y-13864936D01*
X13973753Y-13864936D02*
X13964229Y-13845888D01*
X13964229Y-13845888D02*
X13954706Y-13807793D01*
X13954706Y-13807793D02*
X13954706Y-13760174D01*
X13954706Y-13760174D02*
X13964229Y-13722079D01*
X13964229Y-13722079D02*
X13973753Y-13703031D01*
X13973753Y-13703031D02*
X13983277Y-13693508D01*
X13983277Y-13693508D02*
X14002325Y-13683984D01*
X14135658Y-13683984D02*
X14268991Y-13683984D01*
X14268991Y-13683984D02*
X14183277Y-13883984D01*
X14354706Y-13883984D02*
X14392801Y-13883984D01*
X14392801Y-13883984D02*
X14411848Y-13874460D01*
X14411848Y-13874460D02*
X14421372Y-13864936D01*
X14421372Y-13864936D02*
X14440420Y-13836365D01*
X14440420Y-13836365D02*
X14449944Y-13798269D01*
X14449944Y-13798269D02*
X14449944Y-13722079D01*
X14449944Y-13722079D02*
X14440420Y-13703031D01*
X14440420Y-13703031D02*
X14430896Y-13693508D01*
X14430896Y-13693508D02*
X14411848Y-13683984D01*
X14411848Y-13683984D02*
X14373753Y-13683984D01*
X14373753Y-13683984D02*
X14354706Y-13693508D01*
X14354706Y-13693508D02*
X14345182Y-13703031D01*
X14345182Y-13703031D02*
X14335658Y-13722079D01*
X14335658Y-13722079D02*
X14335658Y-13769698D01*
X14335658Y-13769698D02*
X14345182Y-13788746D01*
X14345182Y-13788746D02*
X14354706Y-13798269D01*
X14354706Y-13798269D02*
X14373753Y-13807793D01*
X14373753Y-13807793D02*
X14411848Y-13807793D01*
X14411848Y-13807793D02*
X14430896Y-13798269D01*
X14430896Y-13798269D02*
X14440420Y-13788746D01*
X14440420Y-13788746D02*
X14449944Y-13769698D01*
X14526134Y-13683984D02*
X14526134Y-13722079D01*
X14602325Y-13683984D02*
X14602325Y-13722079D01*
X14897563Y-13960174D02*
X14888039Y-13950650D01*
X14888039Y-13950650D02*
X14868991Y-13922079D01*
X14868991Y-13922079D02*
X14859468Y-13903031D01*
X14859468Y-13903031D02*
X14849944Y-13874460D01*
X14849944Y-13874460D02*
X14840420Y-13826841D01*
X14840420Y-13826841D02*
X14840420Y-13788746D01*
X14840420Y-13788746D02*
X14849944Y-13741127D01*
X14849944Y-13741127D02*
X14859468Y-13712555D01*
X14859468Y-13712555D02*
X14868991Y-13693508D01*
X14868991Y-13693508D02*
X14888039Y-13664936D01*
X14888039Y-13664936D02*
X14897563Y-13655412D01*
X15078515Y-13883984D02*
X14964229Y-13883984D01*
X15021372Y-13883984D02*
X15021372Y-13683984D01*
X15021372Y-13683984D02*
X15002325Y-13712555D01*
X15002325Y-13712555D02*
X14983277Y-13731603D01*
X14983277Y-13731603D02*
X14964229Y-13741127D01*
X15154706Y-13703031D02*
X15164229Y-13693508D01*
X15164229Y-13693508D02*
X15183277Y-13683984D01*
X15183277Y-13683984D02*
X15230896Y-13683984D01*
X15230896Y-13683984D02*
X15249944Y-13693508D01*
X15249944Y-13693508D02*
X15259468Y-13703031D01*
X15259468Y-13703031D02*
X15268991Y-13722079D01*
X15268991Y-13722079D02*
X15268991Y-13741127D01*
X15268991Y-13741127D02*
X15259468Y-13769698D01*
X15259468Y-13769698D02*
X15145182Y-13883984D01*
X15145182Y-13883984D02*
X15268991Y-13883984D01*
X15507087Y-13883984D02*
X15507087Y-13683984D01*
X15592801Y-13883984D02*
X15592801Y-13779222D01*
X15592801Y-13779222D02*
X15583277Y-13760174D01*
X15583277Y-13760174D02*
X15564230Y-13750650D01*
X15564230Y-13750650D02*
X15535658Y-13750650D01*
X15535658Y-13750650D02*
X15516610Y-13760174D01*
X15516610Y-13760174D02*
X15507087Y-13769698D01*
X15716610Y-13883984D02*
X15697563Y-13874460D01*
X15697563Y-13874460D02*
X15688039Y-13864936D01*
X15688039Y-13864936D02*
X15678515Y-13845888D01*
X15678515Y-13845888D02*
X15678515Y-13788746D01*
X15678515Y-13788746D02*
X15688039Y-13769698D01*
X15688039Y-13769698D02*
X15697563Y-13760174D01*
X15697563Y-13760174D02*
X15716610Y-13750650D01*
X15716610Y-13750650D02*
X15745182Y-13750650D01*
X15745182Y-13750650D02*
X15764230Y-13760174D01*
X15764230Y-13760174D02*
X15773753Y-13769698D01*
X15773753Y-13769698D02*
X15783277Y-13788746D01*
X15783277Y-13788746D02*
X15783277Y-13845888D01*
X15783277Y-13845888D02*
X15773753Y-13864936D01*
X15773753Y-13864936D02*
X15764230Y-13874460D01*
X15764230Y-13874460D02*
X15745182Y-13883984D01*
X15745182Y-13883984D02*
X15716610Y-13883984D01*
X15897563Y-13883984D02*
X15878515Y-13874460D01*
X15878515Y-13874460D02*
X15868991Y-13855412D01*
X15868991Y-13855412D02*
X15868991Y-13683984D01*
X16049944Y-13874460D02*
X16030896Y-13883984D01*
X16030896Y-13883984D02*
X15992801Y-13883984D01*
X15992801Y-13883984D02*
X15973753Y-13874460D01*
X15973753Y-13874460D02*
X15964230Y-13855412D01*
X15964230Y-13855412D02*
X15964230Y-13779222D01*
X15964230Y-13779222D02*
X15973753Y-13760174D01*
X15973753Y-13760174D02*
X15992801Y-13750650D01*
X15992801Y-13750650D02*
X16030896Y-13750650D01*
X16030896Y-13750650D02*
X16049944Y-13760174D01*
X16049944Y-13760174D02*
X16059468Y-13779222D01*
X16059468Y-13779222D02*
X16059468Y-13798269D01*
X16059468Y-13798269D02*
X15964230Y-13817317D01*
X16135658Y-13874460D02*
X16154706Y-13883984D01*
X16154706Y-13883984D02*
X16192801Y-13883984D01*
X16192801Y-13883984D02*
X16211849Y-13874460D01*
X16211849Y-13874460D02*
X16221372Y-13855412D01*
X16221372Y-13855412D02*
X16221372Y-13845888D01*
X16221372Y-13845888D02*
X16211849Y-13826841D01*
X16211849Y-13826841D02*
X16192801Y-13817317D01*
X16192801Y-13817317D02*
X16164230Y-13817317D01*
X16164230Y-13817317D02*
X16145182Y-13807793D01*
X16145182Y-13807793D02*
X16135658Y-13788746D01*
X16135658Y-13788746D02*
X16135658Y-13779222D01*
X16135658Y-13779222D02*
X16145182Y-13760174D01*
X16145182Y-13760174D02*
X16164230Y-13750650D01*
X16164230Y-13750650D02*
X16192801Y-13750650D01*
X16192801Y-13750650D02*
X16211849Y-13760174D01*
X16288039Y-13960174D02*
X16297563Y-13950650D01*
X16297563Y-13950650D02*
X16316611Y-13922079D01*
X16316611Y-13922079D02*
X16326134Y-13903031D01*
X16326134Y-13903031D02*
X16335658Y-13874460D01*
X16335658Y-13874460D02*
X16345182Y-13826841D01*
X16345182Y-13826841D02*
X16345182Y-13788746D01*
X16345182Y-13788746D02*
X16335658Y-13741127D01*
X16335658Y-13741127D02*
X16326134Y-13712555D01*
X16326134Y-13712555D02*
X16316611Y-13693508D01*
X16316611Y-13693508D02*
X16297563Y-13664936D01*
X16297563Y-13664936D02*
X16288039Y-13655412D01*
D12*
X11322500Y-14056500D02*
G75*
G02*
X11292500Y-14056500I-15000J0D01*
G01*
X11292500Y-14056500D02*
G75*
G02*
X11322500Y-14056500I15000J0D01*
G01*
D11*
X11621372Y-13947984D02*
X11640420Y-13947984D01*
X11640420Y-13947984D02*
X11659467Y-13957508D01*
X11659467Y-13957508D02*
X11668991Y-13967031D01*
X11668991Y-13967031D02*
X11678515Y-13986079D01*
X11678515Y-13986079D02*
X11688039Y-14024174D01*
X11688039Y-14024174D02*
X11688039Y-14071793D01*
X11688039Y-14071793D02*
X11678515Y-14109888D01*
X11678515Y-14109888D02*
X11668991Y-14128936D01*
X11668991Y-14128936D02*
X11659467Y-14138460D01*
X11659467Y-14138460D02*
X11640420Y-14147984D01*
X11640420Y-14147984D02*
X11621372Y-14147984D01*
X11621372Y-14147984D02*
X11602324Y-14138460D01*
X11602324Y-14138460D02*
X11592801Y-14128936D01*
X11592801Y-14128936D02*
X11583277Y-14109888D01*
X11583277Y-14109888D02*
X11573753Y-14071793D01*
X11573753Y-14071793D02*
X11573753Y-14024174D01*
X11573753Y-14024174D02*
X11583277Y-13986079D01*
X11583277Y-13986079D02*
X11592801Y-13967031D01*
X11592801Y-13967031D02*
X11602324Y-13957508D01*
X11602324Y-13957508D02*
X11621372Y-13947984D01*
X11773753Y-14128936D02*
X11783277Y-14138460D01*
X11783277Y-14138460D02*
X11773753Y-14147984D01*
X11773753Y-14147984D02*
X11764229Y-14138460D01*
X11764229Y-14138460D02*
X11773753Y-14128936D01*
X11773753Y-14128936D02*
X11773753Y-14147984D01*
X11849943Y-13947984D02*
X11973753Y-13947984D01*
X11973753Y-13947984D02*
X11907086Y-14024174D01*
X11907086Y-14024174D02*
X11935658Y-14024174D01*
X11935658Y-14024174D02*
X11954705Y-14033698D01*
X11954705Y-14033698D02*
X11964229Y-14043222D01*
X11964229Y-14043222D02*
X11973753Y-14062269D01*
X11973753Y-14062269D02*
X11973753Y-14109888D01*
X11973753Y-14109888D02*
X11964229Y-14128936D01*
X11964229Y-14128936D02*
X11954705Y-14138460D01*
X11954705Y-14138460D02*
X11935658Y-14147984D01*
X11935658Y-14147984D02*
X11878515Y-14147984D01*
X11878515Y-14147984D02*
X11859467Y-14138460D01*
X11859467Y-14138460D02*
X11849943Y-14128936D01*
X12097562Y-13947984D02*
X12116610Y-13947984D01*
X12116610Y-13947984D02*
X12135658Y-13957508D01*
X12135658Y-13957508D02*
X12145182Y-13967031D01*
X12145182Y-13967031D02*
X12154705Y-13986079D01*
X12154705Y-13986079D02*
X12164229Y-14024174D01*
X12164229Y-14024174D02*
X12164229Y-14071793D01*
X12164229Y-14071793D02*
X12154705Y-14109888D01*
X12154705Y-14109888D02*
X12145182Y-14128936D01*
X12145182Y-14128936D02*
X12135658Y-14138460D01*
X12135658Y-14138460D02*
X12116610Y-14147984D01*
X12116610Y-14147984D02*
X12097562Y-14147984D01*
X12097562Y-14147984D02*
X12078515Y-14138460D01*
X12078515Y-14138460D02*
X12068991Y-14128936D01*
X12068991Y-14128936D02*
X12059467Y-14109888D01*
X12059467Y-14109888D02*
X12049943Y-14071793D01*
X12049943Y-14071793D02*
X12049943Y-14024174D01*
X12049943Y-14024174D02*
X12059467Y-13986079D01*
X12059467Y-13986079D02*
X12068991Y-13967031D01*
X12068991Y-13967031D02*
X12078515Y-13957508D01*
X12078515Y-13957508D02*
X12097562Y-13947984D01*
X12288039Y-13947984D02*
X12307086Y-13947984D01*
X12307086Y-13947984D02*
X12326134Y-13957508D01*
X12326134Y-13957508D02*
X12335658Y-13967031D01*
X12335658Y-13967031D02*
X12345182Y-13986079D01*
X12345182Y-13986079D02*
X12354705Y-14024174D01*
X12354705Y-14024174D02*
X12354705Y-14071793D01*
X12354705Y-14071793D02*
X12345182Y-14109888D01*
X12345182Y-14109888D02*
X12335658Y-14128936D01*
X12335658Y-14128936D02*
X12326134Y-14138460D01*
X12326134Y-14138460D02*
X12307086Y-14147984D01*
X12307086Y-14147984D02*
X12288039Y-14147984D01*
X12288039Y-14147984D02*
X12268991Y-14138460D01*
X12268991Y-14138460D02*
X12259467Y-14128936D01*
X12259467Y-14128936D02*
X12249943Y-14109888D01*
X12249943Y-14109888D02*
X12240420Y-14071793D01*
X12240420Y-14071793D02*
X12240420Y-14024174D01*
X12240420Y-14024174D02*
X12249943Y-13986079D01*
X12249943Y-13986079D02*
X12259467Y-13967031D01*
X12259467Y-13967031D02*
X12268991Y-13957508D01*
X12268991Y-13957508D02*
X12288039Y-13947984D01*
X12440420Y-14147984D02*
X12440420Y-14014650D01*
X12440420Y-14033698D02*
X12449943Y-14024174D01*
X12449943Y-14024174D02*
X12468991Y-14014650D01*
X12468991Y-14014650D02*
X12497563Y-14014650D01*
X12497563Y-14014650D02*
X12516610Y-14024174D01*
X12516610Y-14024174D02*
X12526134Y-14043222D01*
X12526134Y-14043222D02*
X12526134Y-14147984D01*
X12526134Y-14043222D02*
X12535658Y-14024174D01*
X12535658Y-14024174D02*
X12554705Y-14014650D01*
X12554705Y-14014650D02*
X12583277Y-14014650D01*
X12583277Y-14014650D02*
X12602324Y-14024174D01*
X12602324Y-14024174D02*
X12611848Y-14043222D01*
X12611848Y-14043222D02*
X12611848Y-14147984D01*
X12707086Y-14147984D02*
X12707086Y-14014650D01*
X12707086Y-14033698D02*
X12716610Y-14024174D01*
X12716610Y-14024174D02*
X12735658Y-14014650D01*
X12735658Y-14014650D02*
X12764229Y-14014650D01*
X12764229Y-14014650D02*
X12783277Y-14024174D01*
X12783277Y-14024174D02*
X12792801Y-14043222D01*
X12792801Y-14043222D02*
X12792801Y-14147984D01*
X12792801Y-14043222D02*
X12802324Y-14024174D01*
X12802324Y-14024174D02*
X12821372Y-14014650D01*
X12821372Y-14014650D02*
X12849943Y-14014650D01*
X12849943Y-14014650D02*
X12868991Y-14024174D01*
X12868991Y-14024174D02*
X12878515Y-14043222D01*
X12878515Y-14043222D02*
X12878515Y-14147984D01*
X13268991Y-13938460D02*
X13097563Y-14195603D01*
X13526134Y-13947984D02*
X13545182Y-13947984D01*
X13545182Y-13947984D02*
X13564229Y-13957508D01*
X13564229Y-13957508D02*
X13573753Y-13967031D01*
X13573753Y-13967031D02*
X13583277Y-13986079D01*
X13583277Y-13986079D02*
X13592801Y-14024174D01*
X13592801Y-14024174D02*
X13592801Y-14071793D01*
X13592801Y-14071793D02*
X13583277Y-14109888D01*
X13583277Y-14109888D02*
X13573753Y-14128936D01*
X13573753Y-14128936D02*
X13564229Y-14138460D01*
X13564229Y-14138460D02*
X13545182Y-14147984D01*
X13545182Y-14147984D02*
X13526134Y-14147984D01*
X13526134Y-14147984D02*
X13507086Y-14138460D01*
X13507086Y-14138460D02*
X13497563Y-14128936D01*
X13497563Y-14128936D02*
X13488039Y-14109888D01*
X13488039Y-14109888D02*
X13478515Y-14071793D01*
X13478515Y-14071793D02*
X13478515Y-14024174D01*
X13478515Y-14024174D02*
X13488039Y-13986079D01*
X13488039Y-13986079D02*
X13497563Y-13967031D01*
X13497563Y-13967031D02*
X13507086Y-13957508D01*
X13507086Y-13957508D02*
X13526134Y-13947984D01*
X13678515Y-14128936D02*
X13688039Y-14138460D01*
X13688039Y-14138460D02*
X13678515Y-14147984D01*
X13678515Y-14147984D02*
X13668991Y-14138460D01*
X13668991Y-14138460D02*
X13678515Y-14128936D01*
X13678515Y-14128936D02*
X13678515Y-14147984D01*
X13811848Y-13947984D02*
X13830896Y-13947984D01*
X13830896Y-13947984D02*
X13849944Y-13957508D01*
X13849944Y-13957508D02*
X13859467Y-13967031D01*
X13859467Y-13967031D02*
X13868991Y-13986079D01*
X13868991Y-13986079D02*
X13878515Y-14024174D01*
X13878515Y-14024174D02*
X13878515Y-14071793D01*
X13878515Y-14071793D02*
X13868991Y-14109888D01*
X13868991Y-14109888D02*
X13859467Y-14128936D01*
X13859467Y-14128936D02*
X13849944Y-14138460D01*
X13849944Y-14138460D02*
X13830896Y-14147984D01*
X13830896Y-14147984D02*
X13811848Y-14147984D01*
X13811848Y-14147984D02*
X13792801Y-14138460D01*
X13792801Y-14138460D02*
X13783277Y-14128936D01*
X13783277Y-14128936D02*
X13773753Y-14109888D01*
X13773753Y-14109888D02*
X13764229Y-14071793D01*
X13764229Y-14071793D02*
X13764229Y-14024174D01*
X13764229Y-14024174D02*
X13773753Y-13986079D01*
X13773753Y-13986079D02*
X13783277Y-13967031D01*
X13783277Y-13967031D02*
X13792801Y-13957508D01*
X13792801Y-13957508D02*
X13811848Y-13947984D01*
X14068991Y-14147984D02*
X13954706Y-14147984D01*
X14011848Y-14147984D02*
X14011848Y-13947984D01*
X14011848Y-13947984D02*
X13992801Y-13976555D01*
X13992801Y-13976555D02*
X13973753Y-13995603D01*
X13973753Y-13995603D02*
X13954706Y-14005127D01*
X14259467Y-14147984D02*
X14145182Y-14147984D01*
X14202325Y-14147984D02*
X14202325Y-13947984D01*
X14202325Y-13947984D02*
X14183277Y-13976555D01*
X14183277Y-13976555D02*
X14164229Y-13995603D01*
X14164229Y-13995603D02*
X14145182Y-14005127D01*
X14373753Y-14033698D02*
X14354706Y-14024174D01*
X14354706Y-14024174D02*
X14345182Y-14014650D01*
X14345182Y-14014650D02*
X14335658Y-13995603D01*
X14335658Y-13995603D02*
X14335658Y-13986079D01*
X14335658Y-13986079D02*
X14345182Y-13967031D01*
X14345182Y-13967031D02*
X14354706Y-13957508D01*
X14354706Y-13957508D02*
X14373753Y-13947984D01*
X14373753Y-13947984D02*
X14411848Y-13947984D01*
X14411848Y-13947984D02*
X14430896Y-13957508D01*
X14430896Y-13957508D02*
X14440420Y-13967031D01*
X14440420Y-13967031D02*
X14449944Y-13986079D01*
X14449944Y-13986079D02*
X14449944Y-13995603D01*
X14449944Y-13995603D02*
X14440420Y-14014650D01*
X14440420Y-14014650D02*
X14430896Y-14024174D01*
X14430896Y-14024174D02*
X14411848Y-14033698D01*
X14411848Y-14033698D02*
X14373753Y-14033698D01*
X14373753Y-14033698D02*
X14354706Y-14043222D01*
X14354706Y-14043222D02*
X14345182Y-14052746D01*
X14345182Y-14052746D02*
X14335658Y-14071793D01*
X14335658Y-14071793D02*
X14335658Y-14109888D01*
X14335658Y-14109888D02*
X14345182Y-14128936D01*
X14345182Y-14128936D02*
X14354706Y-14138460D01*
X14354706Y-14138460D02*
X14373753Y-14147984D01*
X14373753Y-14147984D02*
X14411848Y-14147984D01*
X14411848Y-14147984D02*
X14430896Y-14138460D01*
X14430896Y-14138460D02*
X14440420Y-14128936D01*
X14440420Y-14128936D02*
X14449944Y-14109888D01*
X14449944Y-14109888D02*
X14449944Y-14071793D01*
X14449944Y-14071793D02*
X14440420Y-14052746D01*
X14440420Y-14052746D02*
X14430896Y-14043222D01*
X14430896Y-14043222D02*
X14411848Y-14033698D01*
X14526134Y-13947984D02*
X14526134Y-13986079D01*
X14602325Y-13947984D02*
X14602325Y-13986079D01*
X14897563Y-14224174D02*
X14888039Y-14214650D01*
X14888039Y-14214650D02*
X14868991Y-14186079D01*
X14868991Y-14186079D02*
X14859468Y-14167031D01*
X14859468Y-14167031D02*
X14849944Y-14138460D01*
X14849944Y-14138460D02*
X14840420Y-14090841D01*
X14840420Y-14090841D02*
X14840420Y-14052746D01*
X14840420Y-14052746D02*
X14849944Y-14005127D01*
X14849944Y-14005127D02*
X14859468Y-13976555D01*
X14859468Y-13976555D02*
X14868991Y-13957508D01*
X14868991Y-13957508D02*
X14888039Y-13928936D01*
X14888039Y-13928936D02*
X14897563Y-13919412D01*
X14964229Y-13967031D02*
X14973753Y-13957508D01*
X14973753Y-13957508D02*
X14992801Y-13947984D01*
X14992801Y-13947984D02*
X15040420Y-13947984D01*
X15040420Y-13947984D02*
X15059468Y-13957508D01*
X15059468Y-13957508D02*
X15068991Y-13967031D01*
X15068991Y-13967031D02*
X15078515Y-13986079D01*
X15078515Y-13986079D02*
X15078515Y-14005127D01*
X15078515Y-14005127D02*
X15068991Y-14033698D01*
X15068991Y-14033698D02*
X14954706Y-14147984D01*
X14954706Y-14147984D02*
X15078515Y-14147984D01*
X15145182Y-13947984D02*
X15278515Y-13947984D01*
X15278515Y-13947984D02*
X15192801Y-14147984D01*
X15449944Y-13947984D02*
X15354706Y-13947984D01*
X15354706Y-13947984D02*
X15345182Y-14043222D01*
X15345182Y-14043222D02*
X15354706Y-14033698D01*
X15354706Y-14033698D02*
X15373753Y-14024174D01*
X15373753Y-14024174D02*
X15421372Y-14024174D01*
X15421372Y-14024174D02*
X15440420Y-14033698D01*
X15440420Y-14033698D02*
X15449944Y-14043222D01*
X15449944Y-14043222D02*
X15459468Y-14062269D01*
X15459468Y-14062269D02*
X15459468Y-14109888D01*
X15459468Y-14109888D02*
X15449944Y-14128936D01*
X15449944Y-14128936D02*
X15440420Y-14138460D01*
X15440420Y-14138460D02*
X15421372Y-14147984D01*
X15421372Y-14147984D02*
X15373753Y-14147984D01*
X15373753Y-14147984D02*
X15354706Y-14138460D01*
X15354706Y-14138460D02*
X15345182Y-14128936D01*
X15697563Y-14147984D02*
X15697563Y-13947984D01*
X15783277Y-14147984D02*
X15783277Y-14043222D01*
X15783277Y-14043222D02*
X15773753Y-14024174D01*
X15773753Y-14024174D02*
X15754706Y-14014650D01*
X15754706Y-14014650D02*
X15726134Y-14014650D01*
X15726134Y-14014650D02*
X15707087Y-14024174D01*
X15707087Y-14024174D02*
X15697563Y-14033698D01*
X15907087Y-14147984D02*
X15888039Y-14138460D01*
X15888039Y-14138460D02*
X15878515Y-14128936D01*
X15878515Y-14128936D02*
X15868991Y-14109888D01*
X15868991Y-14109888D02*
X15868991Y-14052746D01*
X15868991Y-14052746D02*
X15878515Y-14033698D01*
X15878515Y-14033698D02*
X15888039Y-14024174D01*
X15888039Y-14024174D02*
X15907087Y-14014650D01*
X15907087Y-14014650D02*
X15935658Y-14014650D01*
X15935658Y-14014650D02*
X15954706Y-14024174D01*
X15954706Y-14024174D02*
X15964230Y-14033698D01*
X15964230Y-14033698D02*
X15973753Y-14052746D01*
X15973753Y-14052746D02*
X15973753Y-14109888D01*
X15973753Y-14109888D02*
X15964230Y-14128936D01*
X15964230Y-14128936D02*
X15954706Y-14138460D01*
X15954706Y-14138460D02*
X15935658Y-14147984D01*
X15935658Y-14147984D02*
X15907087Y-14147984D01*
X16088039Y-14147984D02*
X16068991Y-14138460D01*
X16068991Y-14138460D02*
X16059468Y-14119412D01*
X16059468Y-14119412D02*
X16059468Y-13947984D01*
X16240420Y-14138460D02*
X16221372Y-14147984D01*
X16221372Y-14147984D02*
X16183277Y-14147984D01*
X16183277Y-14147984D02*
X16164230Y-14138460D01*
X16164230Y-14138460D02*
X16154706Y-14119412D01*
X16154706Y-14119412D02*
X16154706Y-14043222D01*
X16154706Y-14043222D02*
X16164230Y-14024174D01*
X16164230Y-14024174D02*
X16183277Y-14014650D01*
X16183277Y-14014650D02*
X16221372Y-14014650D01*
X16221372Y-14014650D02*
X16240420Y-14024174D01*
X16240420Y-14024174D02*
X16249944Y-14043222D01*
X16249944Y-14043222D02*
X16249944Y-14062269D01*
X16249944Y-14062269D02*
X16154706Y-14081317D01*
X16326134Y-14138460D02*
X16345182Y-14147984D01*
X16345182Y-14147984D02*
X16383277Y-14147984D01*
X16383277Y-14147984D02*
X16402325Y-14138460D01*
X16402325Y-14138460D02*
X16411849Y-14119412D01*
X16411849Y-14119412D02*
X16411849Y-14109888D01*
X16411849Y-14109888D02*
X16402325Y-14090841D01*
X16402325Y-14090841D02*
X16383277Y-14081317D01*
X16383277Y-14081317D02*
X16354706Y-14081317D01*
X16354706Y-14081317D02*
X16335658Y-14071793D01*
X16335658Y-14071793D02*
X16326134Y-14052746D01*
X16326134Y-14052746D02*
X16326134Y-14043222D01*
X16326134Y-14043222D02*
X16335658Y-14024174D01*
X16335658Y-14024174D02*
X16354706Y-14014650D01*
X16354706Y-14014650D02*
X16383277Y-14014650D01*
X16383277Y-14014650D02*
X16402325Y-14024174D01*
X16478515Y-14224174D02*
X16488039Y-14214650D01*
X16488039Y-14214650D02*
X16507087Y-14186079D01*
X16507087Y-14186079D02*
X16516611Y-14167031D01*
X16516611Y-14167031D02*
X16526134Y-14138460D01*
X16526134Y-14138460D02*
X16535658Y-14090841D01*
X16535658Y-14090841D02*
X16535658Y-14052746D01*
X16535658Y-14052746D02*
X16526134Y-14005127D01*
X16526134Y-14005127D02*
X16516611Y-13976555D01*
X16516611Y-13976555D02*
X16507087Y-13957508D01*
X16507087Y-13957508D02*
X16488039Y-13928936D01*
X16488039Y-13928936D02*
X16478515Y-13919412D01*
D12*
X11292500Y-14290500D02*
X11292500Y-14350500D01*
X11262500Y-14320500D02*
X11322500Y-14320500D01*
D11*
X11621372Y-14211984D02*
X11640420Y-14211984D01*
X11640420Y-14211984D02*
X11659467Y-14221508D01*
X11659467Y-14221508D02*
X11668991Y-14231031D01*
X11668991Y-14231031D02*
X11678515Y-14250079D01*
X11678515Y-14250079D02*
X11688039Y-14288174D01*
X11688039Y-14288174D02*
X11688039Y-14335793D01*
X11688039Y-14335793D02*
X11678515Y-14373888D01*
X11678515Y-14373888D02*
X11668991Y-14392936D01*
X11668991Y-14392936D02*
X11659467Y-14402460D01*
X11659467Y-14402460D02*
X11640420Y-14411984D01*
X11640420Y-14411984D02*
X11621372Y-14411984D01*
X11621372Y-14411984D02*
X11602324Y-14402460D01*
X11602324Y-14402460D02*
X11592801Y-14392936D01*
X11592801Y-14392936D02*
X11583277Y-14373888D01*
X11583277Y-14373888D02*
X11573753Y-14335793D01*
X11573753Y-14335793D02*
X11573753Y-14288174D01*
X11573753Y-14288174D02*
X11583277Y-14250079D01*
X11583277Y-14250079D02*
X11592801Y-14231031D01*
X11592801Y-14231031D02*
X11602324Y-14221508D01*
X11602324Y-14221508D02*
X11621372Y-14211984D01*
X11773753Y-14392936D02*
X11783277Y-14402460D01*
X11783277Y-14402460D02*
X11773753Y-14411984D01*
X11773753Y-14411984D02*
X11764229Y-14402460D01*
X11764229Y-14402460D02*
X11773753Y-14392936D01*
X11773753Y-14392936D02*
X11773753Y-14411984D01*
X11954705Y-14211984D02*
X11916610Y-14211984D01*
X11916610Y-14211984D02*
X11897562Y-14221508D01*
X11897562Y-14221508D02*
X11888039Y-14231031D01*
X11888039Y-14231031D02*
X11868991Y-14259603D01*
X11868991Y-14259603D02*
X11859467Y-14297698D01*
X11859467Y-14297698D02*
X11859467Y-14373888D01*
X11859467Y-14373888D02*
X11868991Y-14392936D01*
X11868991Y-14392936D02*
X11878515Y-14402460D01*
X11878515Y-14402460D02*
X11897562Y-14411984D01*
X11897562Y-14411984D02*
X11935658Y-14411984D01*
X11935658Y-14411984D02*
X11954705Y-14402460D01*
X11954705Y-14402460D02*
X11964229Y-14392936D01*
X11964229Y-14392936D02*
X11973753Y-14373888D01*
X11973753Y-14373888D02*
X11973753Y-14326269D01*
X11973753Y-14326269D02*
X11964229Y-14307222D01*
X11964229Y-14307222D02*
X11954705Y-14297698D01*
X11954705Y-14297698D02*
X11935658Y-14288174D01*
X11935658Y-14288174D02*
X11897562Y-14288174D01*
X11897562Y-14288174D02*
X11878515Y-14297698D01*
X11878515Y-14297698D02*
X11868991Y-14307222D01*
X11868991Y-14307222D02*
X11859467Y-14326269D01*
X12097562Y-14211984D02*
X12116610Y-14211984D01*
X12116610Y-14211984D02*
X12135658Y-14221508D01*
X12135658Y-14221508D02*
X12145182Y-14231031D01*
X12145182Y-14231031D02*
X12154705Y-14250079D01*
X12154705Y-14250079D02*
X12164229Y-14288174D01*
X12164229Y-14288174D02*
X12164229Y-14335793D01*
X12164229Y-14335793D02*
X12154705Y-14373888D01*
X12154705Y-14373888D02*
X12145182Y-14392936D01*
X12145182Y-14392936D02*
X12135658Y-14402460D01*
X12135658Y-14402460D02*
X12116610Y-14411984D01*
X12116610Y-14411984D02*
X12097562Y-14411984D01*
X12097562Y-14411984D02*
X12078515Y-14402460D01*
X12078515Y-14402460D02*
X12068991Y-14392936D01*
X12068991Y-14392936D02*
X12059467Y-14373888D01*
X12059467Y-14373888D02*
X12049943Y-14335793D01*
X12049943Y-14335793D02*
X12049943Y-14288174D01*
X12049943Y-14288174D02*
X12059467Y-14250079D01*
X12059467Y-14250079D02*
X12068991Y-14231031D01*
X12068991Y-14231031D02*
X12078515Y-14221508D01*
X12078515Y-14221508D02*
X12097562Y-14211984D01*
X12288039Y-14211984D02*
X12307086Y-14211984D01*
X12307086Y-14211984D02*
X12326134Y-14221508D01*
X12326134Y-14221508D02*
X12335658Y-14231031D01*
X12335658Y-14231031D02*
X12345182Y-14250079D01*
X12345182Y-14250079D02*
X12354705Y-14288174D01*
X12354705Y-14288174D02*
X12354705Y-14335793D01*
X12354705Y-14335793D02*
X12345182Y-14373888D01*
X12345182Y-14373888D02*
X12335658Y-14392936D01*
X12335658Y-14392936D02*
X12326134Y-14402460D01*
X12326134Y-14402460D02*
X12307086Y-14411984D01*
X12307086Y-14411984D02*
X12288039Y-14411984D01*
X12288039Y-14411984D02*
X12268991Y-14402460D01*
X12268991Y-14402460D02*
X12259467Y-14392936D01*
X12259467Y-14392936D02*
X12249943Y-14373888D01*
X12249943Y-14373888D02*
X12240420Y-14335793D01*
X12240420Y-14335793D02*
X12240420Y-14288174D01*
X12240420Y-14288174D02*
X12249943Y-14250079D01*
X12249943Y-14250079D02*
X12259467Y-14231031D01*
X12259467Y-14231031D02*
X12268991Y-14221508D01*
X12268991Y-14221508D02*
X12288039Y-14211984D01*
X12440420Y-14411984D02*
X12440420Y-14278650D01*
X12440420Y-14297698D02*
X12449943Y-14288174D01*
X12449943Y-14288174D02*
X12468991Y-14278650D01*
X12468991Y-14278650D02*
X12497563Y-14278650D01*
X12497563Y-14278650D02*
X12516610Y-14288174D01*
X12516610Y-14288174D02*
X12526134Y-14307222D01*
X12526134Y-14307222D02*
X12526134Y-14411984D01*
X12526134Y-14307222D02*
X12535658Y-14288174D01*
X12535658Y-14288174D02*
X12554705Y-14278650D01*
X12554705Y-14278650D02*
X12583277Y-14278650D01*
X12583277Y-14278650D02*
X12602324Y-14288174D01*
X12602324Y-14288174D02*
X12611848Y-14307222D01*
X12611848Y-14307222D02*
X12611848Y-14411984D01*
X12707086Y-14411984D02*
X12707086Y-14278650D01*
X12707086Y-14297698D02*
X12716610Y-14288174D01*
X12716610Y-14288174D02*
X12735658Y-14278650D01*
X12735658Y-14278650D02*
X12764229Y-14278650D01*
X12764229Y-14278650D02*
X12783277Y-14288174D01*
X12783277Y-14288174D02*
X12792801Y-14307222D01*
X12792801Y-14307222D02*
X12792801Y-14411984D01*
X12792801Y-14307222D02*
X12802324Y-14288174D01*
X12802324Y-14288174D02*
X12821372Y-14278650D01*
X12821372Y-14278650D02*
X12849943Y-14278650D01*
X12849943Y-14278650D02*
X12868991Y-14288174D01*
X12868991Y-14288174D02*
X12878515Y-14307222D01*
X12878515Y-14307222D02*
X12878515Y-14411984D01*
X13268991Y-14202460D02*
X13097563Y-14459603D01*
X13526134Y-14211984D02*
X13545182Y-14211984D01*
X13545182Y-14211984D02*
X13564229Y-14221508D01*
X13564229Y-14221508D02*
X13573753Y-14231031D01*
X13573753Y-14231031D02*
X13583277Y-14250079D01*
X13583277Y-14250079D02*
X13592801Y-14288174D01*
X13592801Y-14288174D02*
X13592801Y-14335793D01*
X13592801Y-14335793D02*
X13583277Y-14373888D01*
X13583277Y-14373888D02*
X13573753Y-14392936D01*
X13573753Y-14392936D02*
X13564229Y-14402460D01*
X13564229Y-14402460D02*
X13545182Y-14411984D01*
X13545182Y-14411984D02*
X13526134Y-14411984D01*
X13526134Y-14411984D02*
X13507086Y-14402460D01*
X13507086Y-14402460D02*
X13497563Y-14392936D01*
X13497563Y-14392936D02*
X13488039Y-14373888D01*
X13488039Y-14373888D02*
X13478515Y-14335793D01*
X13478515Y-14335793D02*
X13478515Y-14288174D01*
X13478515Y-14288174D02*
X13488039Y-14250079D01*
X13488039Y-14250079D02*
X13497563Y-14231031D01*
X13497563Y-14231031D02*
X13507086Y-14221508D01*
X13507086Y-14221508D02*
X13526134Y-14211984D01*
X13678515Y-14392936D02*
X13688039Y-14402460D01*
X13688039Y-14402460D02*
X13678515Y-14411984D01*
X13678515Y-14411984D02*
X13668991Y-14402460D01*
X13668991Y-14402460D02*
X13678515Y-14392936D01*
X13678515Y-14392936D02*
X13678515Y-14411984D01*
X13811848Y-14211984D02*
X13830896Y-14211984D01*
X13830896Y-14211984D02*
X13849944Y-14221508D01*
X13849944Y-14221508D02*
X13859467Y-14231031D01*
X13859467Y-14231031D02*
X13868991Y-14250079D01*
X13868991Y-14250079D02*
X13878515Y-14288174D01*
X13878515Y-14288174D02*
X13878515Y-14335793D01*
X13878515Y-14335793D02*
X13868991Y-14373888D01*
X13868991Y-14373888D02*
X13859467Y-14392936D01*
X13859467Y-14392936D02*
X13849944Y-14402460D01*
X13849944Y-14402460D02*
X13830896Y-14411984D01*
X13830896Y-14411984D02*
X13811848Y-14411984D01*
X13811848Y-14411984D02*
X13792801Y-14402460D01*
X13792801Y-14402460D02*
X13783277Y-14392936D01*
X13783277Y-14392936D02*
X13773753Y-14373888D01*
X13773753Y-14373888D02*
X13764229Y-14335793D01*
X13764229Y-14335793D02*
X13764229Y-14288174D01*
X13764229Y-14288174D02*
X13773753Y-14250079D01*
X13773753Y-14250079D02*
X13783277Y-14231031D01*
X13783277Y-14231031D02*
X13792801Y-14221508D01*
X13792801Y-14221508D02*
X13811848Y-14211984D01*
X13954706Y-14231031D02*
X13964229Y-14221508D01*
X13964229Y-14221508D02*
X13983277Y-14211984D01*
X13983277Y-14211984D02*
X14030896Y-14211984D01*
X14030896Y-14211984D02*
X14049944Y-14221508D01*
X14049944Y-14221508D02*
X14059467Y-14231031D01*
X14059467Y-14231031D02*
X14068991Y-14250079D01*
X14068991Y-14250079D02*
X14068991Y-14269127D01*
X14068991Y-14269127D02*
X14059467Y-14297698D01*
X14059467Y-14297698D02*
X13945182Y-14411984D01*
X13945182Y-14411984D02*
X14068991Y-14411984D01*
X14135658Y-14211984D02*
X14259467Y-14211984D01*
X14259467Y-14211984D02*
X14192801Y-14288174D01*
X14192801Y-14288174D02*
X14221372Y-14288174D01*
X14221372Y-14288174D02*
X14240420Y-14297698D01*
X14240420Y-14297698D02*
X14249944Y-14307222D01*
X14249944Y-14307222D02*
X14259467Y-14326269D01*
X14259467Y-14326269D02*
X14259467Y-14373888D01*
X14259467Y-14373888D02*
X14249944Y-14392936D01*
X14249944Y-14392936D02*
X14240420Y-14402460D01*
X14240420Y-14402460D02*
X14221372Y-14411984D01*
X14221372Y-14411984D02*
X14164229Y-14411984D01*
X14164229Y-14411984D02*
X14145182Y-14402460D01*
X14145182Y-14402460D02*
X14135658Y-14392936D01*
X14430896Y-14211984D02*
X14392801Y-14211984D01*
X14392801Y-14211984D02*
X14373753Y-14221508D01*
X14373753Y-14221508D02*
X14364229Y-14231031D01*
X14364229Y-14231031D02*
X14345182Y-14259603D01*
X14345182Y-14259603D02*
X14335658Y-14297698D01*
X14335658Y-14297698D02*
X14335658Y-14373888D01*
X14335658Y-14373888D02*
X14345182Y-14392936D01*
X14345182Y-14392936D02*
X14354706Y-14402460D01*
X14354706Y-14402460D02*
X14373753Y-14411984D01*
X14373753Y-14411984D02*
X14411848Y-14411984D01*
X14411848Y-14411984D02*
X14430896Y-14402460D01*
X14430896Y-14402460D02*
X14440420Y-14392936D01*
X14440420Y-14392936D02*
X14449944Y-14373888D01*
X14449944Y-14373888D02*
X14449944Y-14326269D01*
X14449944Y-14326269D02*
X14440420Y-14307222D01*
X14440420Y-14307222D02*
X14430896Y-14297698D01*
X14430896Y-14297698D02*
X14411848Y-14288174D01*
X14411848Y-14288174D02*
X14373753Y-14288174D01*
X14373753Y-14288174D02*
X14354706Y-14297698D01*
X14354706Y-14297698D02*
X14345182Y-14307222D01*
X14345182Y-14307222D02*
X14335658Y-14326269D01*
X14526134Y-14211984D02*
X14526134Y-14250079D01*
X14602325Y-14211984D02*
X14602325Y-14250079D01*
X14897563Y-14488174D02*
X14888039Y-14478650D01*
X14888039Y-14478650D02*
X14868991Y-14450079D01*
X14868991Y-14450079D02*
X14859468Y-14431031D01*
X14859468Y-14431031D02*
X14849944Y-14402460D01*
X14849944Y-14402460D02*
X14840420Y-14354841D01*
X14840420Y-14354841D02*
X14840420Y-14316746D01*
X14840420Y-14316746D02*
X14849944Y-14269127D01*
X14849944Y-14269127D02*
X14859468Y-14240555D01*
X14859468Y-14240555D02*
X14868991Y-14221508D01*
X14868991Y-14221508D02*
X14888039Y-14192936D01*
X14888039Y-14192936D02*
X14897563Y-14183412D01*
X15011848Y-14211984D02*
X15030896Y-14211984D01*
X15030896Y-14211984D02*
X15049944Y-14221508D01*
X15049944Y-14221508D02*
X15059468Y-14231031D01*
X15059468Y-14231031D02*
X15068991Y-14250079D01*
X15068991Y-14250079D02*
X15078515Y-14288174D01*
X15078515Y-14288174D02*
X15078515Y-14335793D01*
X15078515Y-14335793D02*
X15068991Y-14373888D01*
X15068991Y-14373888D02*
X15059468Y-14392936D01*
X15059468Y-14392936D02*
X15049944Y-14402460D01*
X15049944Y-14402460D02*
X15030896Y-14411984D01*
X15030896Y-14411984D02*
X15011848Y-14411984D01*
X15011848Y-14411984D02*
X14992801Y-14402460D01*
X14992801Y-14402460D02*
X14983277Y-14392936D01*
X14983277Y-14392936D02*
X14973753Y-14373888D01*
X14973753Y-14373888D02*
X14964229Y-14335793D01*
X14964229Y-14335793D02*
X14964229Y-14288174D01*
X14964229Y-14288174D02*
X14973753Y-14250079D01*
X14973753Y-14250079D02*
X14983277Y-14231031D01*
X14983277Y-14231031D02*
X14992801Y-14221508D01*
X14992801Y-14221508D02*
X15011848Y-14211984D01*
X15316610Y-14411984D02*
X15316610Y-14211984D01*
X15402325Y-14411984D02*
X15402325Y-14307222D01*
X15402325Y-14307222D02*
X15392801Y-14288174D01*
X15392801Y-14288174D02*
X15373753Y-14278650D01*
X15373753Y-14278650D02*
X15345182Y-14278650D01*
X15345182Y-14278650D02*
X15326134Y-14288174D01*
X15326134Y-14288174D02*
X15316610Y-14297698D01*
X15526134Y-14411984D02*
X15507087Y-14402460D01*
X15507087Y-14402460D02*
X15497563Y-14392936D01*
X15497563Y-14392936D02*
X15488039Y-14373888D01*
X15488039Y-14373888D02*
X15488039Y-14316746D01*
X15488039Y-14316746D02*
X15497563Y-14297698D01*
X15497563Y-14297698D02*
X15507087Y-14288174D01*
X15507087Y-14288174D02*
X15526134Y-14278650D01*
X15526134Y-14278650D02*
X15554706Y-14278650D01*
X15554706Y-14278650D02*
X15573753Y-14288174D01*
X15573753Y-14288174D02*
X15583277Y-14297698D01*
X15583277Y-14297698D02*
X15592801Y-14316746D01*
X15592801Y-14316746D02*
X15592801Y-14373888D01*
X15592801Y-14373888D02*
X15583277Y-14392936D01*
X15583277Y-14392936D02*
X15573753Y-14402460D01*
X15573753Y-14402460D02*
X15554706Y-14411984D01*
X15554706Y-14411984D02*
X15526134Y-14411984D01*
X15707087Y-14411984D02*
X15688039Y-14402460D01*
X15688039Y-14402460D02*
X15678515Y-14383412D01*
X15678515Y-14383412D02*
X15678515Y-14211984D01*
X15859468Y-14402460D02*
X15840420Y-14411984D01*
X15840420Y-14411984D02*
X15802325Y-14411984D01*
X15802325Y-14411984D02*
X15783277Y-14402460D01*
X15783277Y-14402460D02*
X15773753Y-14383412D01*
X15773753Y-14383412D02*
X15773753Y-14307222D01*
X15773753Y-14307222D02*
X15783277Y-14288174D01*
X15783277Y-14288174D02*
X15802325Y-14278650D01*
X15802325Y-14278650D02*
X15840420Y-14278650D01*
X15840420Y-14278650D02*
X15859468Y-14288174D01*
X15859468Y-14288174D02*
X15868991Y-14307222D01*
X15868991Y-14307222D02*
X15868991Y-14326269D01*
X15868991Y-14326269D02*
X15773753Y-14345317D01*
X15945182Y-14402460D02*
X15964230Y-14411984D01*
X15964230Y-14411984D02*
X16002325Y-14411984D01*
X16002325Y-14411984D02*
X16021372Y-14402460D01*
X16021372Y-14402460D02*
X16030896Y-14383412D01*
X16030896Y-14383412D02*
X16030896Y-14373888D01*
X16030896Y-14373888D02*
X16021372Y-14354841D01*
X16021372Y-14354841D02*
X16002325Y-14345317D01*
X16002325Y-14345317D02*
X15973753Y-14345317D01*
X15973753Y-14345317D02*
X15954706Y-14335793D01*
X15954706Y-14335793D02*
X15945182Y-14316746D01*
X15945182Y-14316746D02*
X15945182Y-14307222D01*
X15945182Y-14307222D02*
X15954706Y-14288174D01*
X15954706Y-14288174D02*
X15973753Y-14278650D01*
X15973753Y-14278650D02*
X16002325Y-14278650D01*
X16002325Y-14278650D02*
X16021372Y-14288174D01*
X16268992Y-14335793D02*
X16421373Y-14335793D01*
X16345182Y-14411984D02*
X16345182Y-14259603D01*
X16754706Y-14278650D02*
X16754706Y-14411984D01*
X16707087Y-14202460D02*
X16659468Y-14345317D01*
X16659468Y-14345317D02*
X16783277Y-14345317D01*
X17002325Y-14402460D02*
X17021373Y-14411984D01*
X17021373Y-14411984D02*
X17059468Y-14411984D01*
X17059468Y-14411984D02*
X17078516Y-14402460D01*
X17078516Y-14402460D02*
X17088039Y-14383412D01*
X17088039Y-14383412D02*
X17088039Y-14373888D01*
X17088039Y-14373888D02*
X17078516Y-14354841D01*
X17078516Y-14354841D02*
X17059468Y-14345317D01*
X17059468Y-14345317D02*
X17030896Y-14345317D01*
X17030896Y-14345317D02*
X17011849Y-14335793D01*
X17011849Y-14335793D02*
X17002325Y-14316746D01*
X17002325Y-14316746D02*
X17002325Y-14307222D01*
X17002325Y-14307222D02*
X17011849Y-14288174D01*
X17011849Y-14288174D02*
X17030896Y-14278650D01*
X17030896Y-14278650D02*
X17059468Y-14278650D01*
X17059468Y-14278650D02*
X17078516Y-14288174D01*
X17202325Y-14411984D02*
X17183277Y-14402460D01*
X17183277Y-14402460D02*
X17173754Y-14383412D01*
X17173754Y-14383412D02*
X17173754Y-14211984D01*
X17307087Y-14411984D02*
X17288039Y-14402460D01*
X17288039Y-14402460D02*
X17278516Y-14392936D01*
X17278516Y-14392936D02*
X17268992Y-14373888D01*
X17268992Y-14373888D02*
X17268992Y-14316746D01*
X17268992Y-14316746D02*
X17278516Y-14297698D01*
X17278516Y-14297698D02*
X17288039Y-14288174D01*
X17288039Y-14288174D02*
X17307087Y-14278650D01*
X17307087Y-14278650D02*
X17335658Y-14278650D01*
X17335658Y-14278650D02*
X17354706Y-14288174D01*
X17354706Y-14288174D02*
X17364230Y-14297698D01*
X17364230Y-14297698D02*
X17373754Y-14316746D01*
X17373754Y-14316746D02*
X17373754Y-14373888D01*
X17373754Y-14373888D02*
X17364230Y-14392936D01*
X17364230Y-14392936D02*
X17354706Y-14402460D01*
X17354706Y-14402460D02*
X17335658Y-14411984D01*
X17335658Y-14411984D02*
X17307087Y-14411984D01*
X17430897Y-14278650D02*
X17507087Y-14278650D01*
X17459468Y-14211984D02*
X17459468Y-14383412D01*
X17459468Y-14383412D02*
X17468992Y-14402460D01*
X17468992Y-14402460D02*
X17488039Y-14411984D01*
X17488039Y-14411984D02*
X17507087Y-14411984D01*
X17564230Y-14402460D02*
X17583277Y-14411984D01*
X17583277Y-14411984D02*
X17621373Y-14411984D01*
X17621373Y-14411984D02*
X17640420Y-14402460D01*
X17640420Y-14402460D02*
X17649944Y-14383412D01*
X17649944Y-14383412D02*
X17649944Y-14373888D01*
X17649944Y-14373888D02*
X17640420Y-14354841D01*
X17640420Y-14354841D02*
X17621373Y-14345317D01*
X17621373Y-14345317D02*
X17592801Y-14345317D01*
X17592801Y-14345317D02*
X17573754Y-14335793D01*
X17573754Y-14335793D02*
X17564230Y-14316746D01*
X17564230Y-14316746D02*
X17564230Y-14307222D01*
X17564230Y-14307222D02*
X17573754Y-14288174D01*
X17573754Y-14288174D02*
X17592801Y-14278650D01*
X17592801Y-14278650D02*
X17621373Y-14278650D01*
X17621373Y-14278650D02*
X17640420Y-14288174D01*
X17716611Y-14488174D02*
X17726135Y-14478650D01*
X17726135Y-14478650D02*
X17745182Y-14450079D01*
X17745182Y-14450079D02*
X17754706Y-14431031D01*
X17754706Y-14431031D02*
X17764230Y-14402460D01*
X17764230Y-14402460D02*
X17773754Y-14354841D01*
X17773754Y-14354841D02*
X17773754Y-14316746D01*
X17773754Y-14316746D02*
X17764230Y-14269127D01*
X17764230Y-14269127D02*
X17754706Y-14240555D01*
X17754706Y-14240555D02*
X17745182Y-14221508D01*
X17745182Y-14221508D02*
X17726135Y-14192936D01*
X17726135Y-14192936D02*
X17716611Y-14183412D01*
D12*
X11307856Y-14619856D02*
X11307856Y-14549144D01*
X11237144Y-14549144D01*
X11237144Y-14619856D01*
X11307856Y-14619856D01*
D11*
X11688039Y-14675984D02*
X11573753Y-14675984D01*
X11630896Y-14675984D02*
X11630896Y-14475984D01*
X11630896Y-14475984D02*
X11611848Y-14504555D01*
X11611848Y-14504555D02*
X11592801Y-14523603D01*
X11592801Y-14523603D02*
X11573753Y-14533127D01*
X11773753Y-14656936D02*
X11783277Y-14666460D01*
X11783277Y-14666460D02*
X11773753Y-14675984D01*
X11773753Y-14675984D02*
X11764229Y-14666460D01*
X11764229Y-14666460D02*
X11773753Y-14656936D01*
X11773753Y-14656936D02*
X11773753Y-14675984D01*
X11907086Y-14475984D02*
X11926134Y-14475984D01*
X11926134Y-14475984D02*
X11945182Y-14485508D01*
X11945182Y-14485508D02*
X11954705Y-14495031D01*
X11954705Y-14495031D02*
X11964229Y-14514079D01*
X11964229Y-14514079D02*
X11973753Y-14552174D01*
X11973753Y-14552174D02*
X11973753Y-14599793D01*
X11973753Y-14599793D02*
X11964229Y-14637888D01*
X11964229Y-14637888D02*
X11954705Y-14656936D01*
X11954705Y-14656936D02*
X11945182Y-14666460D01*
X11945182Y-14666460D02*
X11926134Y-14675984D01*
X11926134Y-14675984D02*
X11907086Y-14675984D01*
X11907086Y-14675984D02*
X11888039Y-14666460D01*
X11888039Y-14666460D02*
X11878515Y-14656936D01*
X11878515Y-14656936D02*
X11868991Y-14637888D01*
X11868991Y-14637888D02*
X11859467Y-14599793D01*
X11859467Y-14599793D02*
X11859467Y-14552174D01*
X11859467Y-14552174D02*
X11868991Y-14514079D01*
X11868991Y-14514079D02*
X11878515Y-14495031D01*
X11878515Y-14495031D02*
X11888039Y-14485508D01*
X11888039Y-14485508D02*
X11907086Y-14475984D01*
X12097562Y-14475984D02*
X12116610Y-14475984D01*
X12116610Y-14475984D02*
X12135658Y-14485508D01*
X12135658Y-14485508D02*
X12145182Y-14495031D01*
X12145182Y-14495031D02*
X12154705Y-14514079D01*
X12154705Y-14514079D02*
X12164229Y-14552174D01*
X12164229Y-14552174D02*
X12164229Y-14599793D01*
X12164229Y-14599793D02*
X12154705Y-14637888D01*
X12154705Y-14637888D02*
X12145182Y-14656936D01*
X12145182Y-14656936D02*
X12135658Y-14666460D01*
X12135658Y-14666460D02*
X12116610Y-14675984D01*
X12116610Y-14675984D02*
X12097562Y-14675984D01*
X12097562Y-14675984D02*
X12078515Y-14666460D01*
X12078515Y-14666460D02*
X12068991Y-14656936D01*
X12068991Y-14656936D02*
X12059467Y-14637888D01*
X12059467Y-14637888D02*
X12049943Y-14599793D01*
X12049943Y-14599793D02*
X12049943Y-14552174D01*
X12049943Y-14552174D02*
X12059467Y-14514079D01*
X12059467Y-14514079D02*
X12068991Y-14495031D01*
X12068991Y-14495031D02*
X12078515Y-14485508D01*
X12078515Y-14485508D02*
X12097562Y-14475984D01*
X12288039Y-14475984D02*
X12307086Y-14475984D01*
X12307086Y-14475984D02*
X12326134Y-14485508D01*
X12326134Y-14485508D02*
X12335658Y-14495031D01*
X12335658Y-14495031D02*
X12345182Y-14514079D01*
X12345182Y-14514079D02*
X12354705Y-14552174D01*
X12354705Y-14552174D02*
X12354705Y-14599793D01*
X12354705Y-14599793D02*
X12345182Y-14637888D01*
X12345182Y-14637888D02*
X12335658Y-14656936D01*
X12335658Y-14656936D02*
X12326134Y-14666460D01*
X12326134Y-14666460D02*
X12307086Y-14675984D01*
X12307086Y-14675984D02*
X12288039Y-14675984D01*
X12288039Y-14675984D02*
X12268991Y-14666460D01*
X12268991Y-14666460D02*
X12259467Y-14656936D01*
X12259467Y-14656936D02*
X12249943Y-14637888D01*
X12249943Y-14637888D02*
X12240420Y-14599793D01*
X12240420Y-14599793D02*
X12240420Y-14552174D01*
X12240420Y-14552174D02*
X12249943Y-14514079D01*
X12249943Y-14514079D02*
X12259467Y-14495031D01*
X12259467Y-14495031D02*
X12268991Y-14485508D01*
X12268991Y-14485508D02*
X12288039Y-14475984D01*
X12440420Y-14675984D02*
X12440420Y-14542650D01*
X12440420Y-14561698D02*
X12449943Y-14552174D01*
X12449943Y-14552174D02*
X12468991Y-14542650D01*
X12468991Y-14542650D02*
X12497563Y-14542650D01*
X12497563Y-14542650D02*
X12516610Y-14552174D01*
X12516610Y-14552174D02*
X12526134Y-14571222D01*
X12526134Y-14571222D02*
X12526134Y-14675984D01*
X12526134Y-14571222D02*
X12535658Y-14552174D01*
X12535658Y-14552174D02*
X12554705Y-14542650D01*
X12554705Y-14542650D02*
X12583277Y-14542650D01*
X12583277Y-14542650D02*
X12602324Y-14552174D01*
X12602324Y-14552174D02*
X12611848Y-14571222D01*
X12611848Y-14571222D02*
X12611848Y-14675984D01*
X12707086Y-14675984D02*
X12707086Y-14542650D01*
X12707086Y-14561698D02*
X12716610Y-14552174D01*
X12716610Y-14552174D02*
X12735658Y-14542650D01*
X12735658Y-14542650D02*
X12764229Y-14542650D01*
X12764229Y-14542650D02*
X12783277Y-14552174D01*
X12783277Y-14552174D02*
X12792801Y-14571222D01*
X12792801Y-14571222D02*
X12792801Y-14675984D01*
X12792801Y-14571222D02*
X12802324Y-14552174D01*
X12802324Y-14552174D02*
X12821372Y-14542650D01*
X12821372Y-14542650D02*
X12849943Y-14542650D01*
X12849943Y-14542650D02*
X12868991Y-14552174D01*
X12868991Y-14552174D02*
X12878515Y-14571222D01*
X12878515Y-14571222D02*
X12878515Y-14675984D01*
X13268991Y-14466460D02*
X13097563Y-14723603D01*
X13526134Y-14475984D02*
X13545182Y-14475984D01*
X13545182Y-14475984D02*
X13564229Y-14485508D01*
X13564229Y-14485508D02*
X13573753Y-14495031D01*
X13573753Y-14495031D02*
X13583277Y-14514079D01*
X13583277Y-14514079D02*
X13592801Y-14552174D01*
X13592801Y-14552174D02*
X13592801Y-14599793D01*
X13592801Y-14599793D02*
X13583277Y-14637888D01*
X13583277Y-14637888D02*
X13573753Y-14656936D01*
X13573753Y-14656936D02*
X13564229Y-14666460D01*
X13564229Y-14666460D02*
X13545182Y-14675984D01*
X13545182Y-14675984D02*
X13526134Y-14675984D01*
X13526134Y-14675984D02*
X13507086Y-14666460D01*
X13507086Y-14666460D02*
X13497563Y-14656936D01*
X13497563Y-14656936D02*
X13488039Y-14637888D01*
X13488039Y-14637888D02*
X13478515Y-14599793D01*
X13478515Y-14599793D02*
X13478515Y-14552174D01*
X13478515Y-14552174D02*
X13488039Y-14514079D01*
X13488039Y-14514079D02*
X13497563Y-14495031D01*
X13497563Y-14495031D02*
X13507086Y-14485508D01*
X13507086Y-14485508D02*
X13526134Y-14475984D01*
X13678515Y-14656936D02*
X13688039Y-14666460D01*
X13688039Y-14666460D02*
X13678515Y-14675984D01*
X13678515Y-14675984D02*
X13668991Y-14666460D01*
X13668991Y-14666460D02*
X13678515Y-14656936D01*
X13678515Y-14656936D02*
X13678515Y-14675984D01*
X13811848Y-14475984D02*
X13830896Y-14475984D01*
X13830896Y-14475984D02*
X13849944Y-14485508D01*
X13849944Y-14485508D02*
X13859467Y-14495031D01*
X13859467Y-14495031D02*
X13868991Y-14514079D01*
X13868991Y-14514079D02*
X13878515Y-14552174D01*
X13878515Y-14552174D02*
X13878515Y-14599793D01*
X13878515Y-14599793D02*
X13868991Y-14637888D01*
X13868991Y-14637888D02*
X13859467Y-14656936D01*
X13859467Y-14656936D02*
X13849944Y-14666460D01*
X13849944Y-14666460D02*
X13830896Y-14675984D01*
X13830896Y-14675984D02*
X13811848Y-14675984D01*
X13811848Y-14675984D02*
X13792801Y-14666460D01*
X13792801Y-14666460D02*
X13783277Y-14656936D01*
X13783277Y-14656936D02*
X13773753Y-14637888D01*
X13773753Y-14637888D02*
X13764229Y-14599793D01*
X13764229Y-14599793D02*
X13764229Y-14552174D01*
X13764229Y-14552174D02*
X13773753Y-14514079D01*
X13773753Y-14514079D02*
X13783277Y-14495031D01*
X13783277Y-14495031D02*
X13792801Y-14485508D01*
X13792801Y-14485508D02*
X13811848Y-14475984D01*
X13945182Y-14475984D02*
X14068991Y-14475984D01*
X14068991Y-14475984D02*
X14002325Y-14552174D01*
X14002325Y-14552174D02*
X14030896Y-14552174D01*
X14030896Y-14552174D02*
X14049944Y-14561698D01*
X14049944Y-14561698D02*
X14059467Y-14571222D01*
X14059467Y-14571222D02*
X14068991Y-14590269D01*
X14068991Y-14590269D02*
X14068991Y-14637888D01*
X14068991Y-14637888D02*
X14059467Y-14656936D01*
X14059467Y-14656936D02*
X14049944Y-14666460D01*
X14049944Y-14666460D02*
X14030896Y-14675984D01*
X14030896Y-14675984D02*
X13973753Y-14675984D01*
X13973753Y-14675984D02*
X13954706Y-14666460D01*
X13954706Y-14666460D02*
X13945182Y-14656936D01*
X14164229Y-14675984D02*
X14202325Y-14675984D01*
X14202325Y-14675984D02*
X14221372Y-14666460D01*
X14221372Y-14666460D02*
X14230896Y-14656936D01*
X14230896Y-14656936D02*
X14249944Y-14628365D01*
X14249944Y-14628365D02*
X14259467Y-14590269D01*
X14259467Y-14590269D02*
X14259467Y-14514079D01*
X14259467Y-14514079D02*
X14249944Y-14495031D01*
X14249944Y-14495031D02*
X14240420Y-14485508D01*
X14240420Y-14485508D02*
X14221372Y-14475984D01*
X14221372Y-14475984D02*
X14183277Y-14475984D01*
X14183277Y-14475984D02*
X14164229Y-14485508D01*
X14164229Y-14485508D02*
X14154706Y-14495031D01*
X14154706Y-14495031D02*
X14145182Y-14514079D01*
X14145182Y-14514079D02*
X14145182Y-14561698D01*
X14145182Y-14561698D02*
X14154706Y-14580746D01*
X14154706Y-14580746D02*
X14164229Y-14590269D01*
X14164229Y-14590269D02*
X14183277Y-14599793D01*
X14183277Y-14599793D02*
X14221372Y-14599793D01*
X14221372Y-14599793D02*
X14240420Y-14590269D01*
X14240420Y-14590269D02*
X14249944Y-14580746D01*
X14249944Y-14580746D02*
X14259467Y-14561698D01*
X14430896Y-14542650D02*
X14430896Y-14675984D01*
X14383277Y-14466460D02*
X14335658Y-14609317D01*
X14335658Y-14609317D02*
X14459467Y-14609317D01*
X14526134Y-14475984D02*
X14526134Y-14514079D01*
X14602325Y-14475984D02*
X14602325Y-14514079D01*
X14897563Y-14752174D02*
X14888039Y-14742650D01*
X14888039Y-14742650D02*
X14868991Y-14714079D01*
X14868991Y-14714079D02*
X14859468Y-14695031D01*
X14859468Y-14695031D02*
X14849944Y-14666460D01*
X14849944Y-14666460D02*
X14840420Y-14618841D01*
X14840420Y-14618841D02*
X14840420Y-14580746D01*
X14840420Y-14580746D02*
X14849944Y-14533127D01*
X14849944Y-14533127D02*
X14859468Y-14504555D01*
X14859468Y-14504555D02*
X14868991Y-14485508D01*
X14868991Y-14485508D02*
X14888039Y-14456936D01*
X14888039Y-14456936D02*
X14897563Y-14447412D01*
X14983277Y-14675984D02*
X15021372Y-14675984D01*
X15021372Y-14675984D02*
X15040420Y-14666460D01*
X15040420Y-14666460D02*
X15049944Y-14656936D01*
X15049944Y-14656936D02*
X15068991Y-14628365D01*
X15068991Y-14628365D02*
X15078515Y-14590269D01*
X15078515Y-14590269D02*
X15078515Y-14514079D01*
X15078515Y-14514079D02*
X15068991Y-14495031D01*
X15068991Y-14495031D02*
X15059468Y-14485508D01*
X15059468Y-14485508D02*
X15040420Y-14475984D01*
X15040420Y-14475984D02*
X15002325Y-14475984D01*
X15002325Y-14475984D02*
X14983277Y-14485508D01*
X14983277Y-14485508D02*
X14973753Y-14495031D01*
X14973753Y-14495031D02*
X14964229Y-14514079D01*
X14964229Y-14514079D02*
X14964229Y-14561698D01*
X14964229Y-14561698D02*
X14973753Y-14580746D01*
X14973753Y-14580746D02*
X14983277Y-14590269D01*
X14983277Y-14590269D02*
X15002325Y-14599793D01*
X15002325Y-14599793D02*
X15040420Y-14599793D01*
X15040420Y-14599793D02*
X15059468Y-14590269D01*
X15059468Y-14590269D02*
X15068991Y-14580746D01*
X15068991Y-14580746D02*
X15078515Y-14561698D01*
X15259468Y-14475984D02*
X15164229Y-14475984D01*
X15164229Y-14475984D02*
X15154706Y-14571222D01*
X15154706Y-14571222D02*
X15164229Y-14561698D01*
X15164229Y-14561698D02*
X15183277Y-14552174D01*
X15183277Y-14552174D02*
X15230896Y-14552174D01*
X15230896Y-14552174D02*
X15249944Y-14561698D01*
X15249944Y-14561698D02*
X15259468Y-14571222D01*
X15259468Y-14571222D02*
X15268991Y-14590269D01*
X15268991Y-14590269D02*
X15268991Y-14637888D01*
X15268991Y-14637888D02*
X15259468Y-14656936D01*
X15259468Y-14656936D02*
X15249944Y-14666460D01*
X15249944Y-14666460D02*
X15230896Y-14675984D01*
X15230896Y-14675984D02*
X15183277Y-14675984D01*
X15183277Y-14675984D02*
X15164229Y-14666460D01*
X15164229Y-14666460D02*
X15154706Y-14656936D01*
X15507087Y-14675984D02*
X15507087Y-14475984D01*
X15592801Y-14675984D02*
X15592801Y-14571222D01*
X15592801Y-14571222D02*
X15583277Y-14552174D01*
X15583277Y-14552174D02*
X15564230Y-14542650D01*
X15564230Y-14542650D02*
X15535658Y-14542650D01*
X15535658Y-14542650D02*
X15516610Y-14552174D01*
X15516610Y-14552174D02*
X15507087Y-14561698D01*
X15716610Y-14675984D02*
X15697563Y-14666460D01*
X15697563Y-14666460D02*
X15688039Y-14656936D01*
X15688039Y-14656936D02*
X15678515Y-14637888D01*
X15678515Y-14637888D02*
X15678515Y-14580746D01*
X15678515Y-14580746D02*
X15688039Y-14561698D01*
X15688039Y-14561698D02*
X15697563Y-14552174D01*
X15697563Y-14552174D02*
X15716610Y-14542650D01*
X15716610Y-14542650D02*
X15745182Y-14542650D01*
X15745182Y-14542650D02*
X15764230Y-14552174D01*
X15764230Y-14552174D02*
X15773753Y-14561698D01*
X15773753Y-14561698D02*
X15783277Y-14580746D01*
X15783277Y-14580746D02*
X15783277Y-14637888D01*
X15783277Y-14637888D02*
X15773753Y-14656936D01*
X15773753Y-14656936D02*
X15764230Y-14666460D01*
X15764230Y-14666460D02*
X15745182Y-14675984D01*
X15745182Y-14675984D02*
X15716610Y-14675984D01*
X15897563Y-14675984D02*
X15878515Y-14666460D01*
X15878515Y-14666460D02*
X15868991Y-14647412D01*
X15868991Y-14647412D02*
X15868991Y-14475984D01*
X16049944Y-14666460D02*
X16030896Y-14675984D01*
X16030896Y-14675984D02*
X15992801Y-14675984D01*
X15992801Y-14675984D02*
X15973753Y-14666460D01*
X15973753Y-14666460D02*
X15964230Y-14647412D01*
X15964230Y-14647412D02*
X15964230Y-14571222D01*
X15964230Y-14571222D02*
X15973753Y-14552174D01*
X15973753Y-14552174D02*
X15992801Y-14542650D01*
X15992801Y-14542650D02*
X16030896Y-14542650D01*
X16030896Y-14542650D02*
X16049944Y-14552174D01*
X16049944Y-14552174D02*
X16059468Y-14571222D01*
X16059468Y-14571222D02*
X16059468Y-14590269D01*
X16059468Y-14590269D02*
X15964230Y-14609317D01*
X16135658Y-14666460D02*
X16154706Y-14675984D01*
X16154706Y-14675984D02*
X16192801Y-14675984D01*
X16192801Y-14675984D02*
X16211849Y-14666460D01*
X16211849Y-14666460D02*
X16221372Y-14647412D01*
X16221372Y-14647412D02*
X16221372Y-14637888D01*
X16221372Y-14637888D02*
X16211849Y-14618841D01*
X16211849Y-14618841D02*
X16192801Y-14609317D01*
X16192801Y-14609317D02*
X16164230Y-14609317D01*
X16164230Y-14609317D02*
X16145182Y-14599793D01*
X16145182Y-14599793D02*
X16135658Y-14580746D01*
X16135658Y-14580746D02*
X16135658Y-14571222D01*
X16135658Y-14571222D02*
X16145182Y-14552174D01*
X16145182Y-14552174D02*
X16164230Y-14542650D01*
X16164230Y-14542650D02*
X16192801Y-14542650D01*
X16192801Y-14542650D02*
X16211849Y-14552174D01*
X16288039Y-14752174D02*
X16297563Y-14742650D01*
X16297563Y-14742650D02*
X16316611Y-14714079D01*
X16316611Y-14714079D02*
X16326134Y-14695031D01*
X16326134Y-14695031D02*
X16335658Y-14666460D01*
X16335658Y-14666460D02*
X16345182Y-14618841D01*
X16345182Y-14618841D02*
X16345182Y-14580746D01*
X16345182Y-14580746D02*
X16335658Y-14533127D01*
X16335658Y-14533127D02*
X16326134Y-14504555D01*
X16326134Y-14504555D02*
X16316611Y-14485508D01*
X16316611Y-14485508D02*
X16297563Y-14456936D01*
X16297563Y-14456936D02*
X16288039Y-14447412D01*
X11222500Y-14948500D02*
X11322500Y-14848500D01*
X11222500Y-14748500D01*
X11122500Y-14848500D01*
X11222500Y-14948500D01*
X11564229Y-14739984D02*
X11688039Y-14739984D01*
X11688039Y-14739984D02*
X11621372Y-14816174D01*
X11621372Y-14816174D02*
X11649943Y-14816174D01*
X11649943Y-14816174D02*
X11668991Y-14825698D01*
X11668991Y-14825698D02*
X11678515Y-14835222D01*
X11678515Y-14835222D02*
X11688039Y-14854269D01*
X11688039Y-14854269D02*
X11688039Y-14901888D01*
X11688039Y-14901888D02*
X11678515Y-14920936D01*
X11678515Y-14920936D02*
X11668991Y-14930460D01*
X11668991Y-14930460D02*
X11649943Y-14939984D01*
X11649943Y-14939984D02*
X11592801Y-14939984D01*
X11592801Y-14939984D02*
X11573753Y-14930460D01*
X11573753Y-14930460D02*
X11564229Y-14920936D01*
X11773753Y-14920936D02*
X11783277Y-14930460D01*
X11783277Y-14930460D02*
X11773753Y-14939984D01*
X11773753Y-14939984D02*
X11764229Y-14930460D01*
X11764229Y-14930460D02*
X11773753Y-14920936D01*
X11773753Y-14920936D02*
X11773753Y-14939984D01*
X11859467Y-14759031D02*
X11868991Y-14749508D01*
X11868991Y-14749508D02*
X11888039Y-14739984D01*
X11888039Y-14739984D02*
X11935658Y-14739984D01*
X11935658Y-14739984D02*
X11954705Y-14749508D01*
X11954705Y-14749508D02*
X11964229Y-14759031D01*
X11964229Y-14759031D02*
X11973753Y-14778079D01*
X11973753Y-14778079D02*
X11973753Y-14797127D01*
X11973753Y-14797127D02*
X11964229Y-14825698D01*
X11964229Y-14825698D02*
X11849943Y-14939984D01*
X11849943Y-14939984D02*
X11973753Y-14939984D01*
X12097562Y-14739984D02*
X12116610Y-14739984D01*
X12116610Y-14739984D02*
X12135658Y-14749508D01*
X12135658Y-14749508D02*
X12145182Y-14759031D01*
X12145182Y-14759031D02*
X12154705Y-14778079D01*
X12154705Y-14778079D02*
X12164229Y-14816174D01*
X12164229Y-14816174D02*
X12164229Y-14863793D01*
X12164229Y-14863793D02*
X12154705Y-14901888D01*
X12154705Y-14901888D02*
X12145182Y-14920936D01*
X12145182Y-14920936D02*
X12135658Y-14930460D01*
X12135658Y-14930460D02*
X12116610Y-14939984D01*
X12116610Y-14939984D02*
X12097562Y-14939984D01*
X12097562Y-14939984D02*
X12078515Y-14930460D01*
X12078515Y-14930460D02*
X12068991Y-14920936D01*
X12068991Y-14920936D02*
X12059467Y-14901888D01*
X12059467Y-14901888D02*
X12049943Y-14863793D01*
X12049943Y-14863793D02*
X12049943Y-14816174D01*
X12049943Y-14816174D02*
X12059467Y-14778079D01*
X12059467Y-14778079D02*
X12068991Y-14759031D01*
X12068991Y-14759031D02*
X12078515Y-14749508D01*
X12078515Y-14749508D02*
X12097562Y-14739984D01*
X12288039Y-14739984D02*
X12307086Y-14739984D01*
X12307086Y-14739984D02*
X12326134Y-14749508D01*
X12326134Y-14749508D02*
X12335658Y-14759031D01*
X12335658Y-14759031D02*
X12345182Y-14778079D01*
X12345182Y-14778079D02*
X12354705Y-14816174D01*
X12354705Y-14816174D02*
X12354705Y-14863793D01*
X12354705Y-14863793D02*
X12345182Y-14901888D01*
X12345182Y-14901888D02*
X12335658Y-14920936D01*
X12335658Y-14920936D02*
X12326134Y-14930460D01*
X12326134Y-14930460D02*
X12307086Y-14939984D01*
X12307086Y-14939984D02*
X12288039Y-14939984D01*
X12288039Y-14939984D02*
X12268991Y-14930460D01*
X12268991Y-14930460D02*
X12259467Y-14920936D01*
X12259467Y-14920936D02*
X12249943Y-14901888D01*
X12249943Y-14901888D02*
X12240420Y-14863793D01*
X12240420Y-14863793D02*
X12240420Y-14816174D01*
X12240420Y-14816174D02*
X12249943Y-14778079D01*
X12249943Y-14778079D02*
X12259467Y-14759031D01*
X12259467Y-14759031D02*
X12268991Y-14749508D01*
X12268991Y-14749508D02*
X12288039Y-14739984D01*
X12440420Y-14939984D02*
X12440420Y-14806650D01*
X12440420Y-14825698D02*
X12449943Y-14816174D01*
X12449943Y-14816174D02*
X12468991Y-14806650D01*
X12468991Y-14806650D02*
X12497563Y-14806650D01*
X12497563Y-14806650D02*
X12516610Y-14816174D01*
X12516610Y-14816174D02*
X12526134Y-14835222D01*
X12526134Y-14835222D02*
X12526134Y-14939984D01*
X12526134Y-14835222D02*
X12535658Y-14816174D01*
X12535658Y-14816174D02*
X12554705Y-14806650D01*
X12554705Y-14806650D02*
X12583277Y-14806650D01*
X12583277Y-14806650D02*
X12602324Y-14816174D01*
X12602324Y-14816174D02*
X12611848Y-14835222D01*
X12611848Y-14835222D02*
X12611848Y-14939984D01*
X12707086Y-14939984D02*
X12707086Y-14806650D01*
X12707086Y-14825698D02*
X12716610Y-14816174D01*
X12716610Y-14816174D02*
X12735658Y-14806650D01*
X12735658Y-14806650D02*
X12764229Y-14806650D01*
X12764229Y-14806650D02*
X12783277Y-14816174D01*
X12783277Y-14816174D02*
X12792801Y-14835222D01*
X12792801Y-14835222D02*
X12792801Y-14939984D01*
X12792801Y-14835222D02*
X12802324Y-14816174D01*
X12802324Y-14816174D02*
X12821372Y-14806650D01*
X12821372Y-14806650D02*
X12849943Y-14806650D01*
X12849943Y-14806650D02*
X12868991Y-14816174D01*
X12868991Y-14816174D02*
X12878515Y-14835222D01*
X12878515Y-14835222D02*
X12878515Y-14939984D01*
X13268991Y-14730460D02*
X13097563Y-14987603D01*
X13526134Y-14739984D02*
X13545182Y-14739984D01*
X13545182Y-14739984D02*
X13564229Y-14749508D01*
X13564229Y-14749508D02*
X13573753Y-14759031D01*
X13573753Y-14759031D02*
X13583277Y-14778079D01*
X13583277Y-14778079D02*
X13592801Y-14816174D01*
X13592801Y-14816174D02*
X13592801Y-14863793D01*
X13592801Y-14863793D02*
X13583277Y-14901888D01*
X13583277Y-14901888D02*
X13573753Y-14920936D01*
X13573753Y-14920936D02*
X13564229Y-14930460D01*
X13564229Y-14930460D02*
X13545182Y-14939984D01*
X13545182Y-14939984D02*
X13526134Y-14939984D01*
X13526134Y-14939984D02*
X13507086Y-14930460D01*
X13507086Y-14930460D02*
X13497563Y-14920936D01*
X13497563Y-14920936D02*
X13488039Y-14901888D01*
X13488039Y-14901888D02*
X13478515Y-14863793D01*
X13478515Y-14863793D02*
X13478515Y-14816174D01*
X13478515Y-14816174D02*
X13488039Y-14778079D01*
X13488039Y-14778079D02*
X13497563Y-14759031D01*
X13497563Y-14759031D02*
X13507086Y-14749508D01*
X13507086Y-14749508D02*
X13526134Y-14739984D01*
X13678515Y-14920936D02*
X13688039Y-14930460D01*
X13688039Y-14930460D02*
X13678515Y-14939984D01*
X13678515Y-14939984D02*
X13668991Y-14930460D01*
X13668991Y-14930460D02*
X13678515Y-14920936D01*
X13678515Y-14920936D02*
X13678515Y-14939984D01*
X13878515Y-14939984D02*
X13764229Y-14939984D01*
X13821372Y-14939984D02*
X13821372Y-14739984D01*
X13821372Y-14739984D02*
X13802325Y-14768555D01*
X13802325Y-14768555D02*
X13783277Y-14787603D01*
X13783277Y-14787603D02*
X13764229Y-14797127D01*
X13954706Y-14759031D02*
X13964229Y-14749508D01*
X13964229Y-14749508D02*
X13983277Y-14739984D01*
X13983277Y-14739984D02*
X14030896Y-14739984D01*
X14030896Y-14739984D02*
X14049944Y-14749508D01*
X14049944Y-14749508D02*
X14059467Y-14759031D01*
X14059467Y-14759031D02*
X14068991Y-14778079D01*
X14068991Y-14778079D02*
X14068991Y-14797127D01*
X14068991Y-14797127D02*
X14059467Y-14825698D01*
X14059467Y-14825698D02*
X13945182Y-14939984D01*
X13945182Y-14939984D02*
X14068991Y-14939984D01*
X14240420Y-14739984D02*
X14202325Y-14739984D01*
X14202325Y-14739984D02*
X14183277Y-14749508D01*
X14183277Y-14749508D02*
X14173753Y-14759031D01*
X14173753Y-14759031D02*
X14154706Y-14787603D01*
X14154706Y-14787603D02*
X14145182Y-14825698D01*
X14145182Y-14825698D02*
X14145182Y-14901888D01*
X14145182Y-14901888D02*
X14154706Y-14920936D01*
X14154706Y-14920936D02*
X14164229Y-14930460D01*
X14164229Y-14930460D02*
X14183277Y-14939984D01*
X14183277Y-14939984D02*
X14221372Y-14939984D01*
X14221372Y-14939984D02*
X14240420Y-14930460D01*
X14240420Y-14930460D02*
X14249944Y-14920936D01*
X14249944Y-14920936D02*
X14259467Y-14901888D01*
X14259467Y-14901888D02*
X14259467Y-14854269D01*
X14259467Y-14854269D02*
X14249944Y-14835222D01*
X14249944Y-14835222D02*
X14240420Y-14825698D01*
X14240420Y-14825698D02*
X14221372Y-14816174D01*
X14221372Y-14816174D02*
X14183277Y-14816174D01*
X14183277Y-14816174D02*
X14164229Y-14825698D01*
X14164229Y-14825698D02*
X14154706Y-14835222D01*
X14154706Y-14835222D02*
X14145182Y-14854269D01*
X14383277Y-14739984D02*
X14402325Y-14739984D01*
X14402325Y-14739984D02*
X14421372Y-14749508D01*
X14421372Y-14749508D02*
X14430896Y-14759031D01*
X14430896Y-14759031D02*
X14440420Y-14778079D01*
X14440420Y-14778079D02*
X14449944Y-14816174D01*
X14449944Y-14816174D02*
X14449944Y-14863793D01*
X14449944Y-14863793D02*
X14440420Y-14901888D01*
X14440420Y-14901888D02*
X14430896Y-14920936D01*
X14430896Y-14920936D02*
X14421372Y-14930460D01*
X14421372Y-14930460D02*
X14402325Y-14939984D01*
X14402325Y-14939984D02*
X14383277Y-14939984D01*
X14383277Y-14939984D02*
X14364229Y-14930460D01*
X14364229Y-14930460D02*
X14354706Y-14920936D01*
X14354706Y-14920936D02*
X14345182Y-14901888D01*
X14345182Y-14901888D02*
X14335658Y-14863793D01*
X14335658Y-14863793D02*
X14335658Y-14816174D01*
X14335658Y-14816174D02*
X14345182Y-14778079D01*
X14345182Y-14778079D02*
X14354706Y-14759031D01*
X14354706Y-14759031D02*
X14364229Y-14749508D01*
X14364229Y-14749508D02*
X14383277Y-14739984D01*
X14526134Y-14739984D02*
X14526134Y-14778079D01*
X14602325Y-14739984D02*
X14602325Y-14778079D01*
X14897563Y-15016174D02*
X14888039Y-15006650D01*
X14888039Y-15006650D02*
X14868991Y-14978079D01*
X14868991Y-14978079D02*
X14859468Y-14959031D01*
X14859468Y-14959031D02*
X14849944Y-14930460D01*
X14849944Y-14930460D02*
X14840420Y-14882841D01*
X14840420Y-14882841D02*
X14840420Y-14844746D01*
X14840420Y-14844746D02*
X14849944Y-14797127D01*
X14849944Y-14797127D02*
X14859468Y-14768555D01*
X14859468Y-14768555D02*
X14868991Y-14749508D01*
X14868991Y-14749508D02*
X14888039Y-14720936D01*
X14888039Y-14720936D02*
X14897563Y-14711412D01*
X15059468Y-14806650D02*
X15059468Y-14939984D01*
X15011848Y-14730460D02*
X14964229Y-14873317D01*
X14964229Y-14873317D02*
X15088039Y-14873317D01*
X15316610Y-14939984D02*
X15316610Y-14739984D01*
X15402325Y-14939984D02*
X15402325Y-14835222D01*
X15402325Y-14835222D02*
X15392801Y-14816174D01*
X15392801Y-14816174D02*
X15373753Y-14806650D01*
X15373753Y-14806650D02*
X15345182Y-14806650D01*
X15345182Y-14806650D02*
X15326134Y-14816174D01*
X15326134Y-14816174D02*
X15316610Y-14825698D01*
X15526134Y-14939984D02*
X15507087Y-14930460D01*
X15507087Y-14930460D02*
X15497563Y-14920936D01*
X15497563Y-14920936D02*
X15488039Y-14901888D01*
X15488039Y-14901888D02*
X15488039Y-14844746D01*
X15488039Y-14844746D02*
X15497563Y-14825698D01*
X15497563Y-14825698D02*
X15507087Y-14816174D01*
X15507087Y-14816174D02*
X15526134Y-14806650D01*
X15526134Y-14806650D02*
X15554706Y-14806650D01*
X15554706Y-14806650D02*
X15573753Y-14816174D01*
X15573753Y-14816174D02*
X15583277Y-14825698D01*
X15583277Y-14825698D02*
X15592801Y-14844746D01*
X15592801Y-14844746D02*
X15592801Y-14901888D01*
X15592801Y-14901888D02*
X15583277Y-14920936D01*
X15583277Y-14920936D02*
X15573753Y-14930460D01*
X15573753Y-14930460D02*
X15554706Y-14939984D01*
X15554706Y-14939984D02*
X15526134Y-14939984D01*
X15707087Y-14939984D02*
X15688039Y-14930460D01*
X15688039Y-14930460D02*
X15678515Y-14911412D01*
X15678515Y-14911412D02*
X15678515Y-14739984D01*
X15859468Y-14930460D02*
X15840420Y-14939984D01*
X15840420Y-14939984D02*
X15802325Y-14939984D01*
X15802325Y-14939984D02*
X15783277Y-14930460D01*
X15783277Y-14930460D02*
X15773753Y-14911412D01*
X15773753Y-14911412D02*
X15773753Y-14835222D01*
X15773753Y-14835222D02*
X15783277Y-14816174D01*
X15783277Y-14816174D02*
X15802325Y-14806650D01*
X15802325Y-14806650D02*
X15840420Y-14806650D01*
X15840420Y-14806650D02*
X15859468Y-14816174D01*
X15859468Y-14816174D02*
X15868991Y-14835222D01*
X15868991Y-14835222D02*
X15868991Y-14854269D01*
X15868991Y-14854269D02*
X15773753Y-14873317D01*
X15945182Y-14930460D02*
X15964230Y-14939984D01*
X15964230Y-14939984D02*
X16002325Y-14939984D01*
X16002325Y-14939984D02*
X16021372Y-14930460D01*
X16021372Y-14930460D02*
X16030896Y-14911412D01*
X16030896Y-14911412D02*
X16030896Y-14901888D01*
X16030896Y-14901888D02*
X16021372Y-14882841D01*
X16021372Y-14882841D02*
X16002325Y-14873317D01*
X16002325Y-14873317D02*
X15973753Y-14873317D01*
X15973753Y-14873317D02*
X15954706Y-14863793D01*
X15954706Y-14863793D02*
X15945182Y-14844746D01*
X15945182Y-14844746D02*
X15945182Y-14835222D01*
X15945182Y-14835222D02*
X15954706Y-14816174D01*
X15954706Y-14816174D02*
X15973753Y-14806650D01*
X15973753Y-14806650D02*
X16002325Y-14806650D01*
X16002325Y-14806650D02*
X16021372Y-14816174D01*
X16097563Y-15016174D02*
X16107087Y-15006650D01*
X16107087Y-15006650D02*
X16126134Y-14978079D01*
X16126134Y-14978079D02*
X16135658Y-14959031D01*
X16135658Y-14959031D02*
X16145182Y-14930460D01*
X16145182Y-14930460D02*
X16154706Y-14882841D01*
X16154706Y-14882841D02*
X16154706Y-14844746D01*
X16154706Y-14844746D02*
X16145182Y-14797127D01*
X16145182Y-14797127D02*
X16135658Y-14768555D01*
X16135658Y-14768555D02*
X16126134Y-14749508D01*
X16126134Y-14749508D02*
X16107087Y-14720936D01*
X16107087Y-14720936D02*
X16097563Y-14711412D01*
M02*
