%TF.GenerationSoftware,KiCad,Pcbnew,8.0.1*%
%TF.CreationDate,2025-04-29T20:59:48+01:00*%
%TF.ProjectId,PCB,5043422e-6b69-4636-9164-5f7063625858,rev?*%
%TF.SameCoordinates,Original*%
%TF.FileFunction,Paste,Top*%
%TF.FilePolarity,Positive*%
%FSLAX46Y46*%
G04 Gerber Fmt 4.6, Leading zero omitted, Abs format (unit mm)*
G04 Created by KiCad (PCBNEW 8.0.1) date 2025-04-29 20:59:48*
%MOMM*%
%LPD*%
G01*
G04 APERTURE LIST*
G04 Aperture macros list*
%AMRoundRect*
0 Rectangle with rounded corners*
0 $1 Rounding radius*
0 $2 $3 $4 $5 $6 $7 $8 $9 X,Y pos of 4 corners*
0 Add a 4 corners polygon primitive as box body*
4,1,4,$2,$3,$4,$5,$6,$7,$8,$9,$2,$3,0*
0 Add four circle primitives for the rounded corners*
1,1,$1+$1,$2,$3*
1,1,$1+$1,$4,$5*
1,1,$1+$1,$6,$7*
1,1,$1+$1,$8,$9*
0 Add four rect primitives between the rounded corners*
20,1,$1+$1,$2,$3,$4,$5,0*
20,1,$1+$1,$4,$5,$6,$7,0*
20,1,$1+$1,$6,$7,$8,$9,0*
20,1,$1+$1,$8,$9,$2,$3,0*%
G04 Aperture macros list end*
%ADD10R,1.450000X0.600000*%
%ADD11R,1.450000X0.300000*%
%ADD12RoundRect,0.250000X-0.400000X-0.625000X0.400000X-0.625000X0.400000X0.625000X-0.400000X0.625000X0*%
%ADD13RoundRect,0.250000X-0.550000X1.050000X-0.550000X-1.050000X0.550000X-1.050000X0.550000X1.050000X0*%
%ADD14RoundRect,0.375000X-0.625000X-0.375000X0.625000X-0.375000X0.625000X0.375000X-0.625000X0.375000X0*%
%ADD15RoundRect,0.500000X-0.500000X-1.400000X0.500000X-1.400000X0.500000X1.400000X-0.500000X1.400000X0*%
%ADD16RoundRect,0.250000X-0.350000X-0.450000X0.350000X-0.450000X0.350000X0.450000X-0.350000X0.450000X0*%
%ADD17RoundRect,0.250000X0.350000X0.450000X-0.350000X0.450000X-0.350000X-0.450000X0.350000X-0.450000X0*%
%ADD18RoundRect,0.250000X0.325000X0.450000X-0.325000X0.450000X-0.325000X-0.450000X0.325000X-0.450000X0*%
%ADD19RoundRect,0.250000X0.550000X-1.050000X0.550000X1.050000X-0.550000X1.050000X-0.550000X-1.050000X0*%
%ADD20RoundRect,0.162500X0.617500X0.162500X-0.617500X0.162500X-0.617500X-0.162500X0.617500X-0.162500X0*%
%ADD21RoundRect,0.250000X0.625000X-0.400000X0.625000X0.400000X-0.625000X0.400000X-0.625000X-0.400000X0*%
%ADD22RoundRect,0.200000X0.200000X0.800000X-0.200000X0.800000X-0.200000X-0.800000X0.200000X-0.800000X0*%
%ADD23RoundRect,0.250000X0.337500X0.475000X-0.337500X0.475000X-0.337500X-0.475000X0.337500X-0.475000X0*%
%ADD24RoundRect,0.250000X0.450000X-0.350000X0.450000X0.350000X-0.450000X0.350000X-0.450000X-0.350000X0*%
%ADD25RoundRect,0.250000X0.375000X0.625000X-0.375000X0.625000X-0.375000X-0.625000X0.375000X-0.625000X0*%
%ADD26RoundRect,0.250000X-0.475000X0.337500X-0.475000X-0.337500X0.475000X-0.337500X0.475000X0.337500X0*%
%ADD27RoundRect,0.250000X0.475000X-0.337500X0.475000X0.337500X-0.475000X0.337500X-0.475000X-0.337500X0*%
%ADD28R,2.000000X1.100000*%
%ADD29R,0.900000X0.900000*%
%ADD30R,1.500000X0.900000*%
%ADD31R,0.900000X1.500000*%
%ADD32RoundRect,0.250000X-0.337500X-0.475000X0.337500X-0.475000X0.337500X0.475000X-0.337500X0.475000X0*%
%ADD33RoundRect,0.250000X-0.412500X-0.650000X0.412500X-0.650000X0.412500X0.650000X-0.412500X0.650000X0*%
G04 APERTURE END LIST*
D10*
%TO.C,J1*%
X164800000Y-122000000D03*
X164800000Y-121200000D03*
D11*
X164800000Y-120000000D03*
X164800000Y-119000000D03*
X164800000Y-118500000D03*
X164800000Y-117500000D03*
D10*
X164800000Y-116300000D03*
X164800000Y-115500000D03*
X164800000Y-115500000D03*
X164800000Y-116300000D03*
D11*
X164800000Y-117000000D03*
X164800000Y-118000000D03*
X164800000Y-119500000D03*
X164800000Y-120500000D03*
D10*
X164800000Y-121200000D03*
X164800000Y-122000000D03*
%TD*%
D12*
%TO.C,R6*%
X124650000Y-125600000D03*
X127750000Y-125600000D03*
%TD*%
D13*
%TO.C,C8*%
X169900000Y-86200000D03*
X169900000Y-89800000D03*
%TD*%
D14*
%TO.C,U4*%
X165400000Y-103530000D03*
X165400000Y-105830000D03*
D15*
X171700000Y-105830000D03*
D14*
X165400000Y-108130000D03*
%TD*%
D16*
%TO.C,R4*%
X170000000Y-97600000D03*
X172000000Y-97600000D03*
%TD*%
D17*
%TO.C,R2*%
X161400000Y-113100000D03*
X159400000Y-113100000D03*
%TD*%
D18*
%TO.C,D1*%
X167425000Y-97600000D03*
X165375000Y-97600000D03*
%TD*%
D19*
%TO.C,C3*%
X116800000Y-89600000D03*
X116800000Y-86000000D03*
%TD*%
D12*
%TO.C,R5*%
X124650000Y-122800000D03*
X127750000Y-122800000D03*
%TD*%
D20*
%TO.C,U2*%
X159750000Y-117450000D03*
X159750000Y-116500000D03*
X159750000Y-115550000D03*
X157050000Y-115550000D03*
X157050000Y-116500000D03*
X157050000Y-117450000D03*
%TD*%
D17*
%TO.C,R8*%
X126000000Y-104800000D03*
X124000000Y-104800000D03*
%TD*%
D21*
%TO.C,R1*%
X155600000Y-124150000D03*
X155600000Y-121050000D03*
%TD*%
D22*
%TO.C,SW2*%
X162090000Y-129310000D03*
X157890000Y-129310000D03*
%TD*%
D23*
%TO.C,C9*%
X161137500Y-122800000D03*
X159062500Y-122800000D03*
%TD*%
D24*
%TO.C,C4*%
X162600000Y-106000000D03*
X162600000Y-104000000D03*
%TD*%
D25*
%TO.C,F1*%
X162400000Y-110300000D03*
X159600000Y-110300000D03*
%TD*%
D17*
%TO.C,R7*%
X126000000Y-107000000D03*
X124000000Y-107000000D03*
%TD*%
%TO.C,R9*%
X126000000Y-102600000D03*
X124000000Y-102600000D03*
%TD*%
D26*
%TO.C,C2*%
X164600000Y-127262500D03*
X164600000Y-129337500D03*
%TD*%
D27*
%TO.C,C1*%
X121800000Y-128537500D03*
X121800000Y-126462500D03*
%TD*%
D28*
%TO.C,D2*%
X120700000Y-102900000D03*
X120700000Y-101200000D03*
X120700000Y-99500000D03*
X115900000Y-99500000D03*
X115900000Y-101200000D03*
X115900000Y-102900000D03*
%TD*%
D29*
%TO.C,U6*%
X146054394Y-120780000D03*
X146050000Y-123580000D03*
X146050000Y-122180000D03*
X144654394Y-120780000D03*
X144650000Y-123580000D03*
X144650000Y-122180000D03*
X143254394Y-120780000D03*
X143250000Y-123580000D03*
X143250000Y-122180000D03*
D30*
X151900000Y-129900000D03*
X151900000Y-128630000D03*
X151900000Y-127360000D03*
X151900000Y-126090000D03*
X151900000Y-124820000D03*
X151900000Y-123550000D03*
X151900000Y-122280000D03*
X151900000Y-121010000D03*
X151900000Y-119740000D03*
X151900000Y-118470000D03*
X151900000Y-117200000D03*
X151900000Y-115930000D03*
X151900000Y-114660000D03*
X151900000Y-113390000D03*
D31*
X150135000Y-112140000D03*
X148865000Y-112140000D03*
X147595000Y-112140000D03*
X146325000Y-112140000D03*
X145055000Y-112140000D03*
X143785000Y-112140000D03*
X142515000Y-112140000D03*
X141245000Y-112140000D03*
X139975000Y-112140000D03*
X138705000Y-112140000D03*
X137435000Y-112140000D03*
X136165000Y-112140000D03*
D30*
X134400000Y-113390000D03*
X134400000Y-114660000D03*
X134400000Y-115930000D03*
X134400000Y-117200000D03*
X134400000Y-118470000D03*
X134400000Y-119740000D03*
X134400000Y-121010000D03*
X134400000Y-122280000D03*
X134400000Y-123550000D03*
X134400000Y-124820000D03*
X134400000Y-126090000D03*
X134400000Y-127360000D03*
X134400000Y-128630000D03*
X134400000Y-129900000D03*
%TD*%
D32*
%TO.C,C10*%
X159362500Y-125900000D03*
X161437500Y-125900000D03*
%TD*%
D22*
%TO.C,SW1*%
X128300000Y-129300000D03*
X124100000Y-129300000D03*
%TD*%
D17*
%TO.C,R3*%
X161100000Y-120000000D03*
X159100000Y-120000000D03*
%TD*%
D33*
%TO.C,C5*%
X166837500Y-111000000D03*
X169962500Y-111000000D03*
%TD*%
%TO.C,C7*%
X166742500Y-100350000D03*
X169867500Y-100350000D03*
%TD*%
M02*
