%TF.GenerationSoftware,KiCad,Pcbnew,8.0.1*%
%TF.CreationDate,2025-04-29T20:59:49+01:00*%
%TF.ProjectId,PCB,5043422e-6b69-4636-9164-5f7063625858,rev?*%
%TF.SameCoordinates,Original*%
%TF.FileFunction,Profile,NP*%
%FSLAX46Y46*%
G04 Gerber Fmt 4.6, Leading zero omitted, Abs format (unit mm)*
G04 Created by KiCad (PCBNEW 8.0.1) date 2025-04-29 20:59:49*
%MOMM*%
%LPD*%
G01*
G04 APERTURE LIST*
%TA.AperFunction,Profile*%
%ADD10C,0.050000*%
%TD*%
%TA.AperFunction,Profile*%
%ADD11C,0.200000*%
%TD*%
G04 APERTURE END LIST*
D10*
X126489162Y-110363547D02*
X129587200Y-113294123D01*
X149000000Y-94600000D02*
X138200000Y-94600000D01*
X125801962Y-110090015D02*
G75*
G02*
X126489140Y-110363571I38J-999785D01*
G01*
X127912470Y-119292800D02*
G75*
G02*
X127462018Y-119400007I-450470J892800D01*
G01*
X170250000Y-131500000D02*
X116250000Y-131500000D01*
X150000000Y-93600000D02*
G75*
G02*
X149000000Y-94600000I-1000000J0D01*
G01*
X129900000Y-114020591D02*
X129900000Y-117674483D01*
D11*
X132600000Y-105200000D02*
G75*
G02*
X130200000Y-105200000I-1200000J0D01*
G01*
X130200000Y-105200000D02*
G75*
G02*
X132600000Y-105200000I1200000J0D01*
G01*
D10*
X123000000Y-118400000D02*
X123000000Y-111090015D01*
X170250000Y-71500000D02*
G75*
G02*
X173250000Y-74500000I0J-3000000D01*
G01*
X123000000Y-111090015D02*
G75*
G02*
X124000000Y-110090000I1000000J15D01*
G01*
X116250000Y-71500000D02*
X170250000Y-71500000D01*
D11*
X132600000Y-129000000D02*
G75*
G02*
X130200000Y-129000000I-1200000J0D01*
G01*
X130200000Y-129000000D02*
G75*
G02*
X132600000Y-129000000I1200000J0D01*
G01*
D10*
X113250000Y-74500000D02*
G75*
G02*
X116250000Y-71500000I3000000J0D01*
G01*
X149000000Y-80000000D02*
G75*
G02*
X150000000Y-81000000I0J-1000000D01*
G01*
X137200000Y-81000000D02*
G75*
G02*
X138200000Y-80000000I1000000J0D01*
G01*
X116250000Y-131500000D02*
G75*
G02*
X113250000Y-128500000I0J3000000D01*
G01*
X150000000Y-81000000D02*
X150000000Y-93600000D01*
X129900000Y-117674483D02*
G75*
G02*
X129350434Y-118567248I-999900J-17D01*
G01*
D11*
X156100000Y-129000000D02*
G75*
G02*
X153700000Y-129000000I-1200000J0D01*
G01*
X153700000Y-129000000D02*
G75*
G02*
X156100000Y-129000000I1200000J0D01*
G01*
D10*
X173250000Y-74500000D02*
X173250000Y-128500000D01*
X127462018Y-119400000D02*
X124000000Y-119400000D01*
D11*
X156100000Y-105200000D02*
G75*
G02*
X153700000Y-105200000I-1200000J0D01*
G01*
X153700000Y-105200000D02*
G75*
G02*
X156100000Y-105200000I1200000J0D01*
G01*
D10*
X137200000Y-93600000D02*
X137200000Y-81000000D01*
X138200000Y-80000000D02*
X149000000Y-80000000D01*
X129350452Y-118567283D02*
X127912470Y-119292800D01*
X173250000Y-128500000D02*
G75*
G02*
X170250000Y-131500000I-3000000J0D01*
G01*
X113250000Y-128500000D02*
X113250000Y-74500000D01*
X124000000Y-110090015D02*
X125801962Y-110090015D01*
X138200000Y-94600000D02*
G75*
G02*
X137200000Y-93600000I0J1000000D01*
G01*
X129587200Y-113294123D02*
G75*
G02*
X129900006Y-114020591I-687200J-726477D01*
G01*
X124000000Y-119400000D02*
G75*
G02*
X123000000Y-118400000I0J1000000D01*
G01*
M02*
